<svg xmlns="http://www.w3.org/2000/svg" xmlns:xlink="http://www.w3.org/1999/xlink" width="584.589" height="543.771" viewBox="0 0 584.589 543.771"><defs><style>.a{fill:#a8dab5;}.b{fill:#34a853;}.c{fill:#fdfeff;}.d,.k{fill:#6c63ff;}.d,.h,.j{opacity:0.1;}.e{fill:#4285f4;}.f{fill:url(#a);}.g{fill:#46455b;}.i{fill:#fbbebe;}.l{fill:#878799;}.m{fill:url(#b);}.n{fill:#a0616a;}.o{fill:#2f2e41;}.p,.q,.r,.t{fill:none;}.p{stroke:#ea4335;stroke-width:0.938px;}.p,.q,.r{stroke-miterlimit:10;}.q{stroke:#0d652d;}.q,.r{stroke-width:0.938px;}.r{stroke:#e37400;}.s{stroke:none;}</style><linearGradient id="a" x1="0.769" y1="15.517" x2="0.769" y2="16.517" gradientUnits="objectBoundingBox"><stop offset="0" stop-color="gray" stop-opacity="0.251"/><stop offset="0.54" stop-color="gray" stop-opacity="0.122"/><stop offset="1" stop-color="gray" stop-opacity="0.102"/></linearGradient><linearGradient id="b" x1="2.137" y1="10.255" x2="3.267" y2="10.255" xlink:href="#a"/></defs><g transform="translate(-515.887 -157.873)"><path class="a" d="M817.921,639.737l81.784-51.718a38.372,38.372,0,0,1-7.229-19.407c-1.828-21.857,15.1-41.116,37.822-43.016a41.459,41.459,0,0,1,38.552,18.7l52.725-33.341L786.095,157.873,594.348,271.8Z"/><circle class="b" cx="32.226" cy="32.226" r="32.226" transform="translate(900.046 531.527)"/><path class="c" d="M791.554,459.423H848.04V392.347l60.016.043L819.8,304.131l-88.258,88.215h60.016Z"/><path class="d" d="M1040.813,371.854a6.5,6.5,0,0,0,1.18-3.617c0-7.853-16-14.207-35.734-14.207s-35.734,6.354-35.734,14.207a6.7,6.7,0,0,0,1.473,4.03c-21.974,2.454-36.776,7.052-36.776,12.33,0,7.844,32.72,14.208,73.19,14.208s73.19-6.364,73.19-14.208C1081.559,379.043,1064.923,374.178,1040.813,371.854Z"/><path class="e" d="M949.541,340.3C937.185,279.4,884.23,233.525,819.806,233.525a132.289,132.289,0,0,0-117.388,71.467c-52.955,5.3-94.433,50.3-94.433,105.049,0,58.242,47.651,105.911,105.911,105.911H943.368c48.537,0,88.258-39.721,88.258-88.259A87.182,87.182,0,0,0,949.541,340.3Zm-101.5,52.051v67.076H791.554V392.347H731.539L819.8,304.131l88.259,88.259Z"/><path class="f" d="M733.485,382.272c-.861-4.916-.44-10.212-2.7-14.638a3.186,3.186,0,0,0-1.024-1.317,3.54,3.54,0,0,0-1.834-.422c-2.041-.077-4.073-.1-6.114-.052a1.69,1.69,0,0,0-1.532.586.609.609,0,0,0-.078.172c-2.333-2.583-4.1-5.847-6.613-8.257.362-.121.715-.233,1.085-.328a3.444,3.444,0,0,0-.138-.723.9.9,0,0,0-.06-.215c-.017-.069-.077-.327-.129-.491a1.661,1.661,0,0,0-.086-.241,4.807,4.807,0,0,0-.155-.456.656.656,0,0,0-.1-.233l-.181-.456-.1-.216c-.069-.155-.138-.31-.215-.456l-.1-.189c-.077-.164-.163-.328-.249-.491l-.086-.155c-.1-.172-.2-.345-.293-.525a.386.386,0,0,1-.061-.1c-.111-.2-.232-.4-.353-.586h0c-.981-1.6-2.066-3.177-2.867-4.822-1.4-2.893-1.868-6.156-2.807-9.239s-2.583-6.217-5.373-7.689c-1.352-.689-3.16-1.3-3.289-2.824a3.378,3.378,0,0,1,.3-1.421,19.031,19.031,0,0,1,1.4-2.85c.206-.327.422-.654.637-.982l.172-.232c.172-.241.353-.482.534-.706l.224-.284c.181-.224.37-.431.56-.646l.232-.25c.267-.284.534-.56.818-.861a1.991,1.991,0,0,0,.6-.766,2.341,2.341,0,0,0,.043-.913c-.138-2.463,1.154-4.762,2.583-6.742s3.117-3.858,3.935-6.174c.1-.267.172-.534.241-.809a2.462,2.462,0,0,0,.06-.267c.043-.181.078-.362.112-.551l.052-.31a4.857,4.857,0,0,1,.06-.508v-2.015a2.622,2.622,0,0,0-.043-.543v-.292a5.22,5.22,0,0,0-.086-.629v-.207q-.06-.422-.155-.861h0a43,43,0,0,0-1.584-5.39,19.226,19.226,0,0,0-1.309-3.134c.319-.06.646-.129.964-.215q-.378-.594-.7-1.223a32.063,32.063,0,0,0,4.4-9.549,44.111,44.111,0,0,0,.861-7.38c.474-7.456.956-14.947.336-22.387v-.293a18.1,18.1,0,0,0,.052-4.822,20.256,20.256,0,0,0-2.7-8.894c-1.671-2.635-4.426-4.96-7.491-5.27a11.909,11.909,0,0,1-1.671,1.55,6.567,6.567,0,0,1-1.954-3.04A16.54,16.54,0,0,0,713.4,213.565c0-.267.06-.542.078-.809V210.4a2.413,2.413,0,0,0-.052-.56,1.623,1.623,0,0,0,0-.2l-.077-.6v-.129a3.387,3.387,0,0,0-.112-.646v-.069c-.043-.232-.095-.456-.155-.689h0a16.627,16.627,0,0,0-1.817-4.46,16.625,16.625,0,0,0,1.309-4.787c0-.3.06-.594.077-.861s0-.379,0-.569V195.81a.251.251,0,0,1,0-.077,16.736,16.736,0,0,0-4.641-11.073,9.632,9.632,0,0,0,.818-1.723h0c.069-.18.129-.361.181-.551h0c.051-.18.1-.353.146-.534v-.043l.1-.49a.307.307,0,0,1,0-.086,4.77,4.77,0,0,1,.087-.586,4.716,4.716,0,0,1,.051-.6v-1.42a10.186,10.186,0,0,0-20.3-.457,10.5,10.5,0,0,0,.094,3.126,16.662,16.662,0,0,0-9.239,12.993,17,17,0,0,0-.095,2.79,16.8,16.8,0,0,0-2.583,7.749h0v.31c0,.345-.043.7-.043,1.042a16.732,16.732,0,0,0,6.432,13.235,11.774,11.774,0,0,0,3.255,3.444,12.925,12.925,0,0,1,.525,2.153,6.526,6.526,0,0,1-1.98,5.347c-.37.31-.784.568-1.171.861a2.174,2.174,0,0,0-1.2,0c-4.443,1.4-8.7,4.159-10.738,8.387a16.384,16.384,0,0,0-1.067,3l-.241.37a43.056,43.056,0,0,0-5.735,13.777c-.56,2.506-.913,5.106-2.084,7.388a7.706,7.706,0,0,0-.68,1.507,15.052,15.052,0,0,0-.1,2.42c-.121,1.463-.973,2.764-1.257,4.2-.173.861-.138,1.722-.285,2.583a26.32,26.32,0,0,1-1.61,4.305c-.912,2.532-.9,5.313-1.584,7.922a2.786,2.786,0,0,1-.534,1.179,6.076,6.076,0,0,1-1.791.965,3.955,3.955,0,0,0-1.8,2.7,11.881,11.881,0,0,0-.06,3.358l.336,4.366-4.891,1.481-8.025,2.454a23.874,23.874,0,0,0-6.664,2.815,12.252,12.252,0,0,0-4.2,5.1,25.69,25.69,0,0,0-1.559,6.656,101.186,101.186,0,0,1-4.124,18.771c-.164.465-.336.938-.508,1.4h0l-.543,1.369c-.043.1-.086.19-.12.285l-.465,1.093c-.207.465-.422.921-.646,1.378l18.8,6.268a6.153,6.153,0,0,0,.077.732c.655,4.615.336,9.3.939,13.924a9,9,0,0,0,.525,2.247,3.2,3.2,0,0,0-.99,1.567,8.316,8.316,0,0,0-.1,3c.215,2.36.422,4.719.637,7.078a10.949,10.949,0,0,1,0,2.584c-.232,1.558-1.128,2.927-1.619,4.417s-.465,3.4.767,4.305a3.05,3.05,0,0,0,2.962.267,6.953,6.953,0,0,0,2.454-1.886c3.78-4.2,5.476-9.876,8.412-14.724a27.667,27.667,0,0,0,2.015-3.5c.405-.939.663-1.938.99-2.911a30.059,30.059,0,0,1,1.619-3.78c.353-.7,1.722-2.376,1.412-3.151-.482-1.335-5.64-2.506-6.888-2.919a3.439,3.439,0,0,0-2.523-.112,1.526,1.526,0,0,0-.344.224l-.44-5.692c.767-.069,1.525-.163,2.274-.293q0-1.6-.078-3.229c0-.981-.043-1.971-.069-2.962-.051-2.411-.1-4.822-.163-7.189a39.95,39.95,0,0,0-.267-4.177c-.293-2.109-.939-4.176-1.145-6.3a2.4,2.4,0,0,1,1.067-.482h0a7.6,7.6,0,0,1,1.826-.069h.482a15.631,15.631,0,0,0,7.6-2.1c2.368-1.231,4.564-2.772,6.888-4.038l.862-.456.327-.164.551-.276.456-.215.1-.051c1.369-.655,2.755-1.292,4.081-2.007a4.539,4.539,0,0,0,.293.422,2.746,2.746,0,0,0,2.867,1.042c-1.627,3.918-3.539,7.707-4.021,11.943-.706,6.122,1.722,12.055,4.142,17.755l7.654,18.082c.861,2,1.972,4.237,4.065,4.71a6.026,6.026,0,0,0,3.84-.766,71.992,71.992,0,0,0,9.868-6.3l.129.1c2.9,2.291,4.718,5.485,6.725,8.542l5.364,8.817a2.664,2.664,0,0,0,.215,1.292,7.524,7.524,0,0,0,1.507,1.954,25.387,25.387,0,0,1,6.458,13.218,8.127,8.127,0,0,0,1.068,3.6c1.438,2,4.5,1.868,6.664.732a4.209,4.209,0,0,0,1.671-1.378,5.431,5.431,0,0,0,.671-2.084,28.735,28.735,0,0,0,.646-5.545C735.405,389.109,734.1,385.742,733.485,382.272Zm-30.8-162.24a12.836,12.836,0,0,0,1.084-.8,16.644,16.644,0,0,1-3.444,5.907h0c-.361.4-.749.766-1.145,1.128v-.276c-.043-.861,0-1.817,0-2.729A11.54,11.54,0,0,0,702.685,220.032Zm-30.4,67.946.051-.164a3.3,3.3,0,0,1,.784.8,3.256,3.256,0,0,0,.12,2.919c.448.758,1.258,1.464,1.085,2.333s-1.274,1.215-2.17,1.361c-1.179.189-2.342.4-3.5.637v-.06a9,9,0,0,0-.388-2.867C670.266,292.076,671.506,290.027,672.281,287.978Z"/><path class="g" d="M708.118,187.733a10.221,10.221,0,1,0-18.943-6.449,10.018,10.018,0,0,0,.094,3.091,16.361,16.361,0,0,0-9.334,15.611,16.429,16.429,0,1,0,30.232,8.964v-.784a16.438,16.438,0,0,0-2.006-20.433Z"/><g class="h"><path d="M689.149,181.784l.137-.078c-.034-.176-.06-.355-.077-.534a.528.528,0,0,0,0,.112A4.64,4.64,0,0,0,689.149,181.784Z"/><path d="M712.664,198.505a16.351,16.351,0,0,1-2.54,7v.775a16.429,16.429,0,0,1-32.8,1.326c0,.447-.06.861-.06,1.343a16.429,16.429,0,0,0,32.858,0v-.784a16.26,16.26,0,0,0,2.54-7,15.836,15.836,0,0,0,.06-3.315A2.379,2.379,0,0,1,712.664,198.505Z"/><path d="M709.47,181.164a10.275,10.275,0,0,1-1.352,3.909c.293.293.56.6.861.913a10.22,10.22,0,0,0,.534-2.248A9.9,9.9,0,0,0,709.47,181.164Z"/></g><path class="i" d="M641.92,363.992a7.439,7.439,0,0,0,.749,2.687,2.946,2.946,0,0,0,2.178,1.593,4.393,4.393,0,0,0,2.4-.7,8.217,8.217,0,0,0,3.737-3.117,8.468,8.468,0,0,0,.508-4.693l-.982-12.528c-2.359-.069-4.736-.069-7.1.06s-2.755.68-2.428,2.971C641.627,354.813,641.282,359.437,641.92,363.992Z"/><path class="i" d="M711.338,372.456l5.623,9.093a2.236,2.236,0,0,0,1.231,1.154,1.868,1.868,0,0,0,1.171-.207,14.627,14.627,0,0,0,4.693-3.892,8.61,8.61,0,0,0,2.256-3.444,4.4,4.4,0,0,0-1.119-4.142,13.222,13.222,0,0,0-2.11-1.532c-4.452-3.005-6.458-8.706-10.849-11.788a1.731,1.731,0,0,0-.861-.388,1.9,1.9,0,0,0-.913.31l-6.028,3.289c-2.583,1.421-1.782,1.593.2,3.126C707.515,366.291,709.306,369.443,711.338,372.456Z"/><path class="g" d="M654.138,356.742a3.442,3.442,0,0,0-2.523-.086,2.773,2.773,0,0,0-1.317,2.075c-.155.861-.138,1.722-.37,2.523a8.616,8.616,0,0,1-2.454,3.444,3.658,3.658,0,0,1-1.542,1.076c-.818.207-1.679-.172-2.505,0a2.738,2.738,0,0,0-1.972,2.015,7.913,7.913,0,0,0-.1,2.954l.637,6.974a10.64,10.64,0,0,1,0,2.584c-.232,1.541-1.128,2.884-1.619,4.356s-.473,3.35.767,4.306a3.107,3.107,0,0,0,2.97.258,6.89,6.89,0,0,0,2.454-1.86c3.789-4.133,5.485-9.738,8.43-14.509a27.758,27.758,0,0,0,2.015-3.444c.405-.93.663-1.911.99-2.867a28.478,28.478,0,0,1,1.628-3.729c.344-.688,1.722-2.342,1.412-3.108C660.587,358.309,655.412,357.147,654.138,356.742Z"/><path class="g" d="M722.515,376a7.252,7.252,0,0,1-4,3.444,3.669,3.669,0,0,0-1.351.7,2.1,2.1,0,0,0-.242,2.3,7.42,7.42,0,0,0,1.516,1.928A24.915,24.915,0,0,1,724.9,397.4a8.1,8.1,0,0,0,1.076,3.556c1.438,1.972,4.512,1.843,6.682.715a4.3,4.3,0,0,0,1.67-1.352,5.307,5.307,0,0,0,.672-2.058,27.937,27.937,0,0,0,.646-5.468c0-3.444-1.343-6.793-1.963-10.2-.861-4.848-.448-10.074-2.7-14.449a3.184,3.184,0,0,0-1.008-1.326,3.626,3.626,0,0,0-1.842-.413c-2.032-.077-4.082-.1-6.122-.052a1.709,1.709,0,0,0-1.533.577,1.776,1.776,0,0,0,.224,1.662C721.946,371.061,724,373.016,722.515,376Z"/><path class="g" d="M674.072,289.123a3.159,3.159,0,0,0-.741,3.978c.456.749,1.266,1.447,1.085,2.308s-1.274,1.188-2.17,1.334c-7.9,1.258-15.6,3.574-23.248,5.881l-8.043,2.42a23.993,23.993,0,0,0-6.682,2.773,12.049,12.049,0,0,0-4.2,5.02A24.989,24.989,0,0,0,628.5,319.4c-1.205,8.223-2.746,16.515-6.415,23.972l19.486,6.4a28.594,28.594,0,0,0,5.847,1.464,21.412,21.412,0,0,0,5.691-.275c-.12-4.349-.2-8.835-.318-13.192a36.305,36.305,0,0,0-.267-4.116c-.293-2.083-.939-4.115-1.145-6.216.861-.741,2.213-.552,3.375-.526a15.971,15.971,0,0,0,7.629-2.058c2.359-1.222,4.564-2.738,6.889-3.986,3.917-2.075,8.378-3.445,11.374-6.742-1.524,5.812-5.166,10.875-5.829,16.842s1.722,11.926,4.159,17.5l7.672,17.806c.861,1.963,1.971,4.176,4.064,4.641a6.159,6.159,0,0,0,3.849-.757c7.06-3.307,12.709-9.532,20.252-11.513-.568-3.737-3.513-6.828-5.166-10.212-1.413-2.85-1.869-6.07-2.808-9.11s-2.583-6.131-5.39-7.577c-1.352-.68-3.168-1.283-3.289-2.79a3.1,3.1,0,0,1,.3-1.4,18.157,18.157,0,0,1,4.59-6.673,2.148,2.148,0,0,0,.6-.757,2.428,2.428,0,0,0,.043-.862c-.147-2.428,1.153-4.692,2.583-6.647s3.125-3.806,3.943-6.088c1.4-3.935,0-8.257-1.377-12.192a12.286,12.286,0,0,0-2.308-4.469c-1.808-1.929-4.615-2.489-7.25-2.781C690.811,286.109,680.831,283.879,674.072,289.123Z"/><g class="h"><path d="M706.31,306.353c-1.447,1.954-2.747,4.219-2.584,6.647a2.377,2.377,0,0,1-.043.861,2.128,2.128,0,0,1-.6.758,18.149,18.149,0,0,0-4.59,6.673,3.1,3.1,0,0,0-.3,1.4,2.694,2.694,0,0,0,1.722,2.015,18.063,18.063,0,0,1,3.186-3.875,2.151,2.151,0,0,0,.6-.758,2.421,2.421,0,0,0,.043-.861c-.147-2.428,1.153-4.693,2.583-6.647s3.125-3.806,3.943-6.088a12.63,12.63,0,0,0,.207-6.888q-.086.334-.207.671C709.435,302.547,707.765,304.407,706.31,306.353Z"/><path d="M673.185,290.3a1.629,1.629,0,0,0,1.231-1.111,1.115,1.115,0,0,0,0-.336l-.37.267A2.987,2.987,0,0,0,673.185,290.3Z"/><path d="M647.422,345.014a28.657,28.657,0,0,1-5.847-1.463L624.354,337.9a49.671,49.671,0,0,1-2.282,5.468l19.5,6.4a28.594,28.594,0,0,0,5.847,1.464,21.412,21.412,0,0,0,5.691-.275c-.06-2.041-.1-4.116-.155-6.191A21.307,21.307,0,0,1,647.422,345.014Z"/><path d="M694.591,363.932a6.166,6.166,0,0,1-3.849.758c-2.093-.465-3.221-2.678-4.065-4.642l-7.672-17.806a48.764,48.764,0,0,1-4.021-12.167c-.051.293-.094.586-.137.861-.7,6.027,1.722,11.926,4.158,17.5l7.672,17.806c.862,1.964,1.972,4.177,4.065,4.642a6.166,6.166,0,0,0,3.849-.758c7.06-3.307,12.709-9.532,20.252-11.513a14.637,14.637,0,0,0-2.317-5.45C706.1,355.683,700.911,360.961,694.591,363.932Z"/><path d="M680.676,307.9c-3,3.272-7.457,4.667-11.375,6.742-2.35,1.248-4.555,2.764-6.888,3.987a15.987,15.987,0,0,1-7.629,2.066c-1.163,0-2.471-.224-3.375.517.189,1.937.749,3.823,1.067,5.743a10.358,10.358,0,0,1,2.308-.052,15.974,15.974,0,0,0,7.629-2.058c2.359-1.222,4.563-2.738,6.888-3.986,2.583-1.369,5.4-2.437,7.879-3.953A67.858,67.858,0,0,0,680.676,307.9Z"/></g><path class="i" d="M687.513,227.5a6.364,6.364,0,0,1-1.981,5.261c-.473.4-1.033.706-1.489,1.128a4.039,4.039,0,0,0,.066,5.711,4.177,4.177,0,0,0,.519.429c1.55.947,3.522.688,5.313.378a30.673,30.673,0,0,0,6.974-1.816,11.533,11.533,0,0,0,5.494-4.5,6.771,6.771,0,0,1-3.126-5.6c-.12-2.23.491-4.761-.921-6.492s-3.918-1.653-6.027-1.085c-1.042.293-2.05.689-3.092.973-.533.138-2.273.146-2.583.534C686.058,223.123,687.452,226.369,687.513,227.5Z"/><path class="j" d="M687.513,227.5a6.364,6.364,0,0,1-1.981,5.261c-.473.4-1.033.706-1.489,1.128a4.039,4.039,0,0,0,.066,5.711,4.177,4.177,0,0,0,.519.429c1.55.947,3.522.688,5.313.378a30.673,30.673,0,0,0,6.974-1.816,11.533,11.533,0,0,0,5.494-4.5,6.771,6.771,0,0,1-3.126-5.6c-.12-2.23.491-4.761-.921-6.492s-3.918-1.653-6.027-1.085c-1.042.293-2.05.689-3.092.973-.533.138-2.273.146-2.583.534C686.058,223.123,687.452,226.369,687.513,227.5Z"/><circle class="i" cx="11.547" cy="11.547" r="11.547" transform="translate(681.95 204.283)"/><path class="i" d="M657.04,304.4a7.808,7.808,0,0,1-1.085,2.583,11.951,11.951,0,0,0-1.378,7.879,8.292,8.292,0,0,0,4.848,6.131,3.315,3.315,0,0,0,3.315-.207c-1.541-2.006-1.627-4.744-1.533-7.276a2.442,2.442,0,0,1,.319-1.352.861.861,0,0,1,1.2-.234l.028.019a10.854,10.854,0,0,0,.9,4.641c.241.56.654,1.18,1.274,1.163.861,0,1.111-1.214,1.076-2.093-.129-3.582-.31-7.31-2.032-10.444a12.382,12.382,0,0,1-1.722-3.522,2.086,2.086,0,0,0-.447-1.231,1.542,1.542,0,0,0-.646-.3c-.99-.284-3.35-1.154-4.168-.224S657.2,303.21,657.04,304.4Z"/><path class="k" d="M674.184,243.065c-1.327-.155-2.368,1.059-3.092,2.179a42.121,42.121,0,0,0-5.752,13.621c-.559,2.472-.9,5.038-2.083,7.285a7.408,7.408,0,0,0-.681,1.481,15.825,15.825,0,0,0-.1,2.394c-.12,1.438-.973,2.721-1.257,4.141-.172.862-.138,1.723-.293,2.584a25.155,25.155,0,0,1-1.6,4.227c-.922,2.5-.913,5.236-1.593,7.81a2.68,2.68,0,0,1-.534,1.154,6.17,6.17,0,0,1-1.791.956,3.887,3.887,0,0,0-1.808,2.66,11.491,11.491,0,0,0-.061,3.307l.534,6.828c.543-.232.861-.861,1.361-1.231a3.846,3.846,0,0,1,3.125-.345l1.559.285c1.593.284,3.324.654,4.3,1.911.81-1.274.353-3.143,1.593-3.987.4-.275.913-.361,1.335-.6a2.988,2.988,0,0,0,1.36-2.394,8.826,8.826,0,0,0-.387-2.833c2-.861,3.237-2.867,4.021-4.891a40.938,40.938,0,0,0,1.86-7.543c1.8-10.151,3.444-20.372,3.616-30.679a14.754,14.754,0,0,0-.559-5.106C676.724,244.641,675.9,243.254,674.184,243.065Z"/><path class="l" d="M674.184,243.065c-1.327-.155-2.368,1.059-3.092,2.179a42.121,42.121,0,0,0-5.752,13.621c-.559,2.472-.9,5.038-2.083,7.285a7.408,7.408,0,0,0-.681,1.481,15.825,15.825,0,0,0-.1,2.394c-.12,1.438-.973,2.721-1.257,4.141-.172.862-.138,1.723-.293,2.584a25.155,25.155,0,0,1-1.6,4.227c-.922,2.5-.913,5.236-1.593,7.81a2.68,2.68,0,0,1-.534,1.154,6.17,6.17,0,0,1-1.791.956,3.887,3.887,0,0,0-1.808,2.66,11.491,11.491,0,0,0-.061,3.307l.534,6.828c.543-.232.861-.861,1.361-1.231a3.846,3.846,0,0,1,3.125-.345l1.559.285c1.593.284,3.324.654,4.3,1.911.81-1.274.353-3.143,1.593-3.987.4-.275.913-.361,1.335-.6a2.988,2.988,0,0,0,1.36-2.394,8.826,8.826,0,0,0-.387-2.833c2-.861,3.237-2.867,4.021-4.891a40.938,40.938,0,0,0,1.86-7.543c1.8-10.151,3.444-20.372,3.616-30.679a14.754,14.754,0,0,0-.559-5.106C676.724,244.641,675.9,243.254,674.184,243.065Z"/><path class="l" d="M703.279,232.009a14.57,14.57,0,0,1-7.018,4.081,43,43,0,0,1-8.137,1.2,5.149,5.149,0,0,1-2.514-.215,1.723,1.723,0,0,1-1.042-2.058,2.467,2.467,0,0,0,.3-.8c0-.706-1.05-.766-1.722-.559-4.443,1.377-8.7,4.1-10.754,8.274a24.959,24.959,0,0,0-1.912,7.612c-.964,6.889-1.929,13.837-.637,20.666.7,3.625,2.023,7.146,2.1,10.832.051,2.066-.3,4.124-.284,6.191a3.124,3.124,0,0,0,.551,2.04c.318.371.8.6,1.024,1.042.371.724-.129,1.722.362,2.385.611.81,1.869.224,2.7-.344a21.481,21.481,0,0,1,14.285-3.591c6.027.646,12.055,3.875,17.927,2.256a8.147,8.147,0,0,1-.775-1.394c-2.928-9.61-2.73-20.365,1.653-29.406,1.49-3.091,3.445-6.027,4.047-9.42a18.072,18.072,0,0,0,.061-4.778,19.821,19.821,0,0,0-2.713-8.775C709.125,234.6,706.361,232.319,703.279,232.009Z"/><path class="i" d="M675.355,307.369a10.646,10.646,0,0,0-.663,3.935,23.718,23.718,0,0,0,.189,3.832,6.125,6.125,0,0,0,1.128,3.013,2.746,2.746,0,0,0,2.876,1.025,3.014,3.014,0,0,0,1.722-1.929,18.329,18.329,0,0,0,.551-2.635c.5-2.583,1.877-5.08,1.9-7.749a2.251,2.251,0,0,0-.146-.93,5.281,5.281,0,0,0-4.151-2.144C677.283,304.019,675.906,306.1,675.355,307.369Z"/><path class="j" d="M708.669,241.756c-.224,2.3,2,4.03,2.876,6.157a10.548,10.548,0,0,1,.6,3.1c.62,7.344.137,14.724-.345,22.069a41.1,41.1,0,0,1-.861,7.275c-1.24,5.02-4.3,9.377-7.276,13.6a8.381,8.381,0,0,1-4.451,3.633l-10.247,4.969a19.734,19.734,0,0,0-3.642,2.092,9.933,9.933,0,0,0-3.014,3.926c-1.989-1.016-4.056-1.928-6.027-2.944-.465-.242-.991-.552-1.068-1.068-.1-.689.62-1.18,1.119-1.722.93-.922,1.214-2.291,1.722-3.5,1.654-3.961,5.8-6.493,7.293-10.505.577-1.541.75-3.289,1.774-4.581a11.359,11.359,0,0,1,1.955-1.722,32.985,32.985,0,0,0,4.3-4.434,7.533,7.533,0,0,0,1.421-2.076,10.265,10.265,0,0,0,.336-3.633c.077-4.013,1.894-7.75,3-11.607,1.042-3.625,1.481-7.431,2.85-10.953S705,242.7,708.669,241.756Z"/><path class="l" d="M710,241.756c-.224,2.3,1.989,4.03,2.867,6.157a10.546,10.546,0,0,1,.611,3.1c.612,7.344.138,14.724-.344,22.069a41.235,41.235,0,0,1-.9,7.275c-1.24,5.02-4.306,9.377-7.276,13.6a11.531,11.531,0,0,1-1.559,1.911,11.649,11.649,0,0,1-2.893,1.722l-10.255,4.969a20.341,20.341,0,0,0-3.642,2.092,10.008,10.008,0,0,0-3.014,3.926c-1.989-1.016-4.047-1.928-6.028-2.944-.465-.242-.99-.552-1.067-1.068-.112-.689.611-1.18,1.111-1.722.938-.922,1.222-2.291,1.722-3.5,1.644-3.961,5.795-6.493,7.293-10.505.577-1.541.749-3.289,1.774-4.581a10.749,10.749,0,0,1,1.954-1.722,32.982,32.982,0,0,0,4.3-4.434,7.533,7.533,0,0,0,1.421-2.076,10.454,10.454,0,0,0,.336-3.633c.078-4.013,1.886-7.75,3-11.607,1.05-3.625,1.481-7.431,2.85-10.953S706.353,242.7,710,241.756Z"/><path class="g" d="M699.214,197.98a16.356,16.356,0,0,0-10.246,2.127,6.135,6.135,0,0,1,1.369.1,16.429,16.429,0,0,1,6.312,30.5,16.429,16.429,0,0,0,2.583-32.72Z"/><path class="g" d="M704.269,207.116a7.483,7.483,0,0,1,.129,5.752c-.077-.233-.164-.465-.267-.7-2.032-4.52-8.283-6.389-13.975-4.176a11.412,11.412,0,0,0-6.742,6.432c-1.447-4.374,1.49-9.385,6.889-11.486C695.986,200.727,702.237,202.6,704.269,207.116Z"/><g class="h"><path d="M704.3,212.515a16.437,16.437,0,0,0-10.978-14.173,16.285,16.285,0,0,0-4.357,1.722,6.135,6.135,0,0,1,1.369.1A16.419,16.419,0,0,1,704.3,212.515Z"/><path d="M706.964,200.52a16.456,16.456,0,0,0-10.978-14.173,16.6,16.6,0,0,0-4.357,1.774,6.247,6.247,0,0,1,1.377.1A16.411,16.411,0,0,1,706.964,200.52Z"/><path d="M707.033,182.619a6.18,6.18,0,0,0-9.256-7.448,3.777,3.777,0,0,1,.861.069A9.9,9.9,0,0,1,707.033,182.619Z"/><path d="M713.181,210.276a16.455,16.455,0,0,1-12.727,17.359,16.5,16.5,0,0,1-3.8,3.065,16.429,16.429,0,0,0,16.532-20.424Z"/></g><path class="m" d="M858.863,382.238a6.327,6.327,0,0,0-7.568-.37c-1.723,1.274-2.472,3.392-3.178,5.39-1.033,2.953-2.7,5.821-2.979,8.946-.766,8.611-6.8,15.852-8.611,24.291-.663,3.013-.792,6.182-2.04,9a27.1,27.1,0,0,1-2.067,3.556,94.064,94.064,0,0,0-7.749,15.008c-1.5.457-2.73,1.895-3.927,3.04a14.647,14.647,0,0,1-5.381,3.272,5.319,5.319,0,0,0-2.231,1.093c-.861.913-.861,2.385-1.575,3.445a5.107,5.107,0,0,1-1.964,1.61,7.416,7.416,0,0,1-.12-.741c-.181-1.317-.327-2.635-.465-3.952a14.915,14.915,0,0,0-2.032-19.245,28.89,28.89,0,0,1,.181-6.165,2.713,2.713,0,0,0-.861-2.738c-.422-.267-.939-.327-1.387-.551a5.634,5.634,0,0,1-1.618-1.662A7.75,7.75,0,0,0,793.406,424c-2.411,1.61-3.686,4.469-5.744,6.527-1.067,1.059-2.333,1.894-3.392,2.953a15.28,15.28,0,0,0-3.944,8.206,44.677,44.677,0,0,0-.37,9.231,8.438,8.438,0,0,0,.4,2.755,7.262,7.262,0,0,0,1.257,2,23.929,23.929,0,0,0,9.678,7.483,4.048,4.048,0,0,1,.043.551,3.719,3.719,0,0,1-.068.861l-.422-.069c-1.55-.19-3.186,0-4.624-.594-2.454-1.059-3.444-4.176-5.864-5.4a3.553,3.553,0,0,0-.629-.258,39.886,39.886,0,0,0-3.5-11.573,14.318,14.318,0,0,1-1.937-5.459,13.9,13.9,0,0,1,1.2-5.244,135.51,135.51,0,0,0,4.6-18.082q1.17-5.761,2.359-11.521a17.283,17.283,0,0,0,2.807-3.281,15.983,15.983,0,0,0,2.807-8.12,11.014,11.014,0,0,0-2.842-7.982,4.716,4.716,0,0,0-3.538-1.722,4.308,4.308,0,0,0-2.963,1.722,14.187,14.187,0,0,0-2.238,4.891c-.861,2.859-1.722,5.838-1.335,8.8.353,2.454,1.55,5.115.327,7.267-4.03,7.053-6.811,14.983-9.8,22.543a37.9,37.9,0,0,0-1.877,5.6,29.615,29.615,0,0,0-.31,9.351,123.511,123.511,0,0,0,3.367,17.3,22.241,22.241,0,0,0,2.85,7.439,32.107,32.107,0,0,0-.379,8.748,4.835,4.835,0,0,0,.517,1.938,8.263,8.263,0,0,0,1.774,1.817,8.842,8.842,0,0,1,2.815,6.75,20.057,20.057,0,0,0,1.352,6.889c2.058,6.139,4.125,12.279,5.924,18.5a12.14,12.14,0,0,1,.637,3.573c0,1.722-.818,3.445-.439,5.167a18.325,18.325,0,0,1,.706,2.385,6.16,6.16,0,0,1-.241,1.851c-1.119,4.865-4.357,16.085-3.8,21.053l1.111-.387c-.474,6.578-2.506,13.019-3.246,19.6a64.359,64.359,0,0,0,.155,14.4,50.662,50.662,0,0,1,.551,6.449c0,1.938-.31,3.849-.388,5.778a52.575,52.575,0,0,0,.457,7.75,80.094,80.094,0,0,0,1.92,11.96c1.791,6.682.585,13.639.783,20.562a125.1,125.1,0,0,1-.146,14.491c-.181,2.041-.465,4.073-.525,6.123-.181,6.079,1.618,12.132.981,18.176-.3,2.833-1.024,6.028.758,8.258.568.7,1.335,1.2,1.937,1.86a2.583,2.583,0,0,1,.749,2.454c-.232.68-.861,1.18-1.007,1.894-.164,1.12,1.068,1.9,2.135,2.256l.3.086a2.659,2.659,0,0,0,.766,2.032,4.566,4.566,0,0,0,2.3.913l13.777,2.669c3.074.594,6.415,1.154,9.3.112a2.359,2.359,0,0,0,.645,1.094,4.579,4.579,0,0,0,2.291.913l13.777,2.669c3.513.68,7.37,1.309,10.505-.431a5.9,5.9,0,0,0,2.213-2.058,6.382,6.382,0,0,0,.3-5.381,4.4,4.4,0,0,0-1.533-2.23,5.707,5.707,0,0,0-3.2-.689,6.327,6.327,0,0,1-2.773-.422,2.056,2.056,0,0,1-.688-.586c.688-.861,1.351-1.722,1.98-2.583-.594-.138-.861-.956-1.007-1.558-1.774-8.938.714-18.083,1.076-27.21a57.928,57.928,0,0,0-1.068-13.63c-.336-1.722-.74-3.358-.981-5.063-1.266-8.9,2.118-17.928,1.042-26.848-.509-4.168,1.282-8.525,1.92-12.675a45.586,45.586,0,0,0-.164-11.194l-2.85-29.276c-.388-3.952-.792-8-2.48-11.6a15.189,15.189,0,0,1-1.171-6.363c3.444-1.972,6.613-4.684,10.505-4.693.749-2.842-1.4-11.8-2.661-14.457a63.082,63.082,0,0,1-5.6-33.539c.456-4.124-1.188-8.283-.637-12.4a7.453,7.453,0,0,1,.792-2.764,2.851,2.851,0,0,1,2.29-1.524c-.241-2.471-.56-4.959-.981-7.431a18.082,18.082,0,0,0,3.444-4.951c1.791-3.745,2.583-7.878,3.625-11.891,1.894-7.069,4.787-13.82,7.078-20.76s1.842-14.276,3.487-21.406a15.709,15.709,0,0,1,6.716-9.549c1.309-.861,2.8-1.524,3.7-2.8a6.394,6.394,0,0,0,1.033-3.521A9.015,9.015,0,0,0,858.863,382.238ZM806.235,683.505c.259-.353.508-.706.741-1.076-.913-.052-2.067-.586-2.179-1.5a9.723,9.723,0,0,1,.3-2.712,10.792,10.792,0,0,0-.284-4.744c-.319-1.068-.793-2.093-1.137-3.16a32.08,32.08,0,0,1-.8-3.626,61.881,61.881,0,0,0-3.918-12.735c-1.722-3.969-.387-8.3-.37-12.631,0-2.041-.31-4.125.207-6.105.3-1.171.861-2.256,1.179-3.444.707-2.73-.18-5.6-1.05-8.275,3.4-8.042,3.858-17.221,4.555-25.97q.585-7.335,1.171-14.638c.172-2.178.37-4.443,1.515-6.3a75.13,75.13,0,0,1,3.608,19.211,29.13,29.13,0,0,0,.655,5.614c.542,2.04,1.6,3.892,2.307,5.872,1.567,4.357,1.4,9.119,2.11,13.691.284,1.851.715,3.677.99,5.528,1.188,8.171-.732,16.446-2.643,24.48-1.171,4.925-.982,10.376-1.249,15.43-.25,4.848-.508,9.695-.387,14.552,0,1.481.094,3,.077,4.5a10.909,10.909,0,0,0-1.412-.077,6.341,6.341,0,0,1-2.773-.422A3.166,3.166,0,0,1,806.235,683.505Z"/><path class="g" d="M806.847,539.1a165.612,165.612,0,0,0-23.791,1.817,4.771,4.771,0,0,0-1.507.4c-1.671.861-1.722,3.2-1.679,5.081.112,7.637-2.5,15.034-3.358,22.611a63.046,63.046,0,0,0,.146,14.3,53.2,53.2,0,0,1,.551,6.415c0,1.912-.318,3.815-.4,5.735a51.944,51.944,0,0,0,.448,7.663,79.064,79.064,0,0,0,1.92,11.883c1.782,6.639.577,13.553.766,20.424a121.756,121.756,0,0,1-.163,14.4c-.181,2.032-.465,4.047-.526,6.088-.18,6.027,1.611,12.054.973,18.082-.3,2.807-1.033,6.027.75,8.2.568.689,1.334,1.188,1.928,1.851a2.583,2.583,0,0,1,.758,2.429c-.241.68-.9,1.179-1.007,1.885-.173,1.111,1.059,1.886,2.126,2.239a19.683,19.683,0,0,0,22.207-7.982c-.913-.052-2.066-.586-2.178-1.49a9.565,9.565,0,0,1,.3-2.7,10.5,10.5,0,0,0-.284-4.71c-.31-1.067-.792-2.083-1.128-3.143a31.84,31.84,0,0,1-.8-3.6,60.853,60.853,0,0,0-3.909-12.657c-1.722-3.944-.379-8.249-.362-12.537,0-2.032-.3-4.108.207-6.071.3-1.171.861-2.247,1.188-3.444.706-2.712-.181-5.554-1.05-8.215,3.444-7.99,3.874-17.152,4.572-25.831l1.18-14.638c.172-2.162.378-4.418,1.515-6.26a74.147,74.147,0,0,1,3.608,19.081A28.163,28.163,0,0,0,810.5,602c.542,2.015,1.593,3.858,2.307,5.829,1.559,4.306,1.4,9.05,2.1,13.6.284,1.842.706,3.65.982,5.493,1.188,8.12-.741,16.36-2.661,24.325-1.171,4.891-.99,10.333-1.257,15.335-.258,4.814-.517,9.627-.4,14.449.1,4.435.448,9.2-1.938,12.916,2.67,1.36,5.425,2.747,8.4,3.005a14.852,14.852,0,0,0,9.67-2.928,31.407,31.407,0,0,0,7.087-7.431c-.6-.137-.861-.955-1.008-1.549-1.774-8.878.723-18,1.094-27.038a57.548,57.548,0,0,0-1.059-13.535c-.336-1.723-.749-3.35-.991-5.038-1.248-8.834,2.136-17.815,1.068-26.692-.5-4.151,1.292-8.473,1.929-12.606a44.539,44.539,0,0,0-.155-11.074l-2.833-29.06c-.379-3.935-.784-7.956-2.471-11.53-2.015-4.305-.767-9.609-.982-14.354A59.08,59.08,0,0,1,806.847,539.1Z"/><path class="n" d="M823.482,453.043a92.562,92.562,0,0,1,9.076-18.255,26.728,26.728,0,0,0,2.066-3.539c1.258-2.789,1.387-5.941,2.05-8.937,1.851-8.387,7.9-15.586,8.671-24.11.275-3.108,1.946-5.959,2.988-8.895.7-1.989,1.489-4.09,3.177-5.356a6.373,6.373,0,0,1,7.56.362,8.9,8.9,0,0,1,3.057,7.242,6.367,6.367,0,0,1-1.034,3.495c-.912,1.266-2.393,1.946-3.7,2.782a15.626,15.626,0,0,0-6.725,9.471c-1.653,7.087-1.206,14.363-3.505,21.26s-5.166,13.613-7.086,20.665c-1.076,3.987-1.843,8.094-3.642,11.814s-4.857,7.078-8.878,8.034a24.02,24.02,0,0,0-1.963-7.414C824.387,458.941,822.466,455.807,823.482,453.043Z"/><path class="n" d="M780.163,462.867a39.281,39.281,0,0,0-3.824-14.491,13.956,13.956,0,0,1-1.928-5.416,13.664,13.664,0,0,1,1.2-5.21,134.385,134.385,0,0,0,4.606-18l2.377-11.452a17.456,17.456,0,0,0,2.8-3.255,15.793,15.793,0,0,0,2.816-8.068,10.886,10.886,0,0,0-2.833-7.939,4.729,4.729,0,0,0-3.539-1.671,4.308,4.308,0,0,0-2.962,1.722,13.894,13.894,0,0,0-2.2,4.822c-.861,2.842-1.722,5.8-1.343,8.74.345,2.437,1.55,5.08.319,7.216-4.039,7.017-6.82,14.887-9.816,22.387a37.6,37.6,0,0,0-1.869,5.563,29.26,29.26,0,0,0-.327,9.3A122.066,122.066,0,0,0,767,464.331c.861,3.548,1.937,7.4,4.917,9.532A56.818,56.818,0,0,1,780.163,462.867Z"/><circle class="n" cx="14.784" cy="14.784" r="14.784" transform="translate(782.177 434.289)"/><path class="n" d="M791.442,465.287c-.086,2.7-1.257,5.218-2.411,7.663-.7,1.473-1.61,3.117-3.2,3.445a71.669,71.669,0,0,0,13.889,3.986,15.257,15.257,0,0,0,4.96.284,11.907,11.907,0,0,0,3.952-1.463,20.273,20.273,0,0,0,10.049-14.638,26.7,26.7,0,0,1-5.5.146,4.031,4.031,0,0,1-2.816-1.042,4.221,4.221,0,0,1-.792-2.307q-.492-3.669-.784-7.354a29.146,29.146,0,0,0-10.548,2.42c-1.377.6-2.721,1.3-4.141,1.816-.862.31-3.35.371-3.953.93C789.212,460.06,791.494,463.427,791.442,465.287Z"/><path class="o" d="M798.856,473.553a9.3,9.3,0,0,0-7.87-7.482c-1.55-.181-3.186,0-4.624-.577-2.454-1.06-3.487-4.151-5.864-5.365s-5.459-.086-7.215,1.946-2.5,4.8-3.031,7.379a35.743,35.743,0,0,0-.8,10.936,4.92,4.92,0,0,0,.525,1.929,8.406,8.406,0,0,0,1.765,1.808,8.731,8.731,0,0,1,2.816,6.7,19.614,19.614,0,0,0,1.343,6.888c2.058,6.1,4.125,12.2,5.916,18.384a11.909,11.909,0,0,1,.637,3.548c-.043,1.722-.861,3.444-.439,5.123a19.89,19.89,0,0,1,.7,2.368,6.1,6.1,0,0,1-.241,1.842c-1.128,4.84-4.365,15.982-3.806,20.916,7.345-2.7,18.427-4.306,26.211-5.167a57.9,57.9,0,0,1,6.449-.379c5.167,0,10.583.973,15.405-.921,4.468-1.722,8.18-5.872,12.984-5.89.749-2.815-1.4-11.719-2.652-14.353a62.184,62.184,0,0,1-5.579-33.315c.447-4.1-1.189-8.232-.629-12.322a7.371,7.371,0,0,1,.784-2.746,2.891,2.891,0,0,1,2.3-1.524,90.43,90.43,0,0,0-3.746-18.892c-.7-2.187-1.955-4.719-4.245-4.865-2.067-.138-3.591,1.722-5.08,3.177a14.629,14.629,0,0,1-5.382,3.246,5.316,5.316,0,0,0-2.239,1.094c-.861.9-.861,2.377-1.575,3.444-1.24,1.912-4.409,2.093-5.167,4.228a13.17,13.17,0,0,0-.336,1.912,6.81,6.81,0,0,1-2.032,3.254A13.121,13.121,0,0,1,798.856,473.553Z"/><path class="g" d="M807.286,432.2a2.669,2.669,0,0,0-.861-2.712,13.214,13.214,0,0,0-1.395-.56,5.683,5.683,0,0,1-1.61-1.67,7.75,7.75,0,0,0-9.877-1.447c-2.419,1.6-3.685,4.443-5.751,6.484-1.06,1.059-2.325,1.886-3.393,2.945a15.2,15.2,0,0,0-3.952,8.145,44.245,44.245,0,0,0-.371,9.179,8.125,8.125,0,0,0,.4,2.738,7.259,7.259,0,0,0,1.257,1.981,23.511,23.511,0,0,0,10.169,7.629,14.385,14.385,0,0,0,12.39-1.059,2.209,2.209,0,0,0,.862-.861,2.716,2.716,0,0,0,0-1.654,11.186,11.186,0,0,1,.594-6.4,42.338,42.338,0,0,0,1.911-4.349,14.539,14.539,0,0,0,.138-5.166C807.372,441.04,806.606,436.614,807.286,432.2Z"/><path class="d" d="M1059.757,200.5a6.494,6.494,0,0,0,1.179-3.616c0-7.853-16-14.208-35.733-14.208s-35.734,6.355-35.734,14.208a6.7,6.7,0,0,0,1.4,4.029C968.9,203.37,954.1,207.968,954.1,213.247c0,7.844,32.721,14.207,73.19,14.207s73.19-6.363,73.19-14.207C1100.5,207.693,1083.866,202.828,1059.757,200.5Z"/><path class="d" d="M621.478,216a6.5,6.5,0,0,0,1.18-3.616c0-7.853-16-14.208-35.734-14.208s-35.734,6.355-35.734,14.208a6.7,6.7,0,0,0,1.472,4.029c-21.974,2.454-36.775,7.052-36.775,12.331,0,7.844,32.763,14.207,73.19,14.207s73.189-6.363,73.189-14.207C662.223,223.192,645.588,218.327,621.478,216Z"/><g class="p" transform="translate(542.144 549.895)"><circle class="s" cx="8.755" cy="8.755" r="8.755"/><circle class="t" cx="8.755" cy="8.755" r="8.286"/></g><circle class="q" cx="8.755" cy="8.755" r="8.755" transform="translate(848.623 205.534)"/><circle class="r" cx="8.755" cy="8.755" r="8.755" transform="translate(685.069 602.042)"/></g></svg>