<svg xmlns="http://www.w3.org/2000/svg" width="560.469" height="507.577" viewBox="0 0 560.469 507.577"><defs><style>.a{fill:#fde293;}.b,.c,.d,.h,.n{fill:none;}.b{stroke:#ea4335;stroke-width:0.938px;}.b,.c,.d,.h{stroke-miterlimit:10;}.c{stroke:#0d652d;}.c,.d,.h{stroke-width:0.938px;}.d{stroke:#e37400;}.e{fill:#fbbc04;}.f{fill:#3f3d56;}.g{fill:#4285f4;}.h{stroke:#174ea6;}.i{opacity:0.1;}.j{fill:#2f2e41;}.k{fill:#9f616a;}.l{fill:#a0616a;}.m{stroke:none;}</style></defs><g transform="translate(1340.442 -237.725)"><path class="a" d="M-855.013,528.474l-130.117-162.6a43.692,43.692,0,0,1-21.043,10.626c-24.5,4.824-48.419-11.9-53.433-37.363a47.194,47.194,0,0,1,16.292-45.972l-44.367-55.441-252.761,216.023L-1107.773,744.5Z"/><g class="b" transform="translate(-932.068 266.198)"><circle class="m" cx="9.965" cy="9.965" r="9.965"/><circle class="n" cx="9.965" cy="9.965" r="9.497"/></g><circle class="c" cx="9.965" cy="9.965" r="9.965" transform="translate(-800.373 555.928)"/><circle class="d" cx="9.965" cy="9.965" r="9.965" transform="translate(-1235.125 291.187)"/><circle class="e" cx="36.682" cy="36.682" r="36.682" transform="translate(-1053.371 295.41)"/><path class="f" d="M-1244.753,302.622h162.5a34.545,34.545,0,0,1,33.7,26.946l82.11,364.2a27.92,27.92,0,0,1-21.1,33.377,27.8,27.8,0,0,1-4.767.65l-167.053,8.231a36.885,36.885,0,0,1-38.112-30.275l-46.577-257.494-3.465.99-8.912-48.8,3.566-.892-13-71.876a21.269,21.269,0,0,1,17.144-24.715A21.3,21.3,0,0,1-1244.753,302.622Z" transform="translate(10.266 8.974)"/><path class="g" d="M-1105.592,309.519h18.968A23.874,23.874,0,0,1-1063.3,328.3l78.813,361.23a14.792,14.792,0,0,1-11.3,17.606,14.923,14.923,0,0,1-2.187.308l-166.513,10.913a19.157,19.157,0,0,1-20.106-15.721l-67.253-373.365a16.78,16.78,0,0,1,13.54-19.488,16.717,16.717,0,0,1,2.974-.266h17.995a7.919,7.919,0,0,1,7.647,5.861h0a6.993,6.993,0,0,0,6.751,5.173h85.429a11.951,11.951,0,0,0,11.916-11.034Z" transform="translate(12.214 9.928)"/><rect class="h" width="172.302" height="0.849" transform="translate(-1212.632 412.812)"/><rect class="h" width="173.999" height="0.849" transform="translate(-1207.539 440.398)"/><path class="h" d="M-1216.932,391.806l3.915-5.22-.679-.509-3.384,4.511-13.039-10.668-.537.658Z" transform="translate(15.181 19.663)"/><path class="h" d="M-1197.172,499.927l3.915-5.22-.679-.509-3.384,4.511-13.039-10.667-.537.657Z" transform="translate(17.914 34.614)"/><rect class="h" width="180.406" height="0.849" transform="translate(-1194.817 538.431) rotate(-1.213)"/><rect class="h" width="183.809" height="0.849" transform="matrix(1, -0.023, 0.023, 1, -1192.695, 563.895)"/><path class="i" d="M-1148.186,589.009a40.318,40.318,0,0,0,40.33,40.3,40.318,40.318,0,0,0,40.3-40.3c0-.505-.009-1.006-.031-1.507a40.314,40.314,0,0,0-41.793-38.781,40.315,40.315,0,0,0-38.811,40.288Z" transform="translate(26.585 43)"/><path class="i" d="M-1144.83,602.8c0,.5.008,1.005.03,1.506a40.321,40.321,0,0,0,53.677,19.25,40.323,40.323,0,0,0,23.108-36.458c0-.505-.009-1.006-.031-1.507a40.321,40.321,0,0,0-53.676-19.248A40.319,40.319,0,0,0-1144.83,602.8Z" transform="translate(27.049 44.907)"/><circle class="j" cx="24.853" cy="24.853" r="24.853" transform="translate(-897.301 371.525)"/><path class="k" d="M-904.35,651.04l4.728,20.261H-911.1l-4.728-22.962Z" transform="translate(58.715 56.78)"/><path class="k" d="M-953,650.712v18.91l-11.481,1.351V650.712Z" transform="translate(51.988 57.108)"/><path class="k" d="M-900.072,462.119s-1.35,29.041-2.7,31.066-13.507,31.067-13.507,31.067l-6.078-18.91s9.454-15.533,8.1-24.313-.5-19.584-.5-19.584Z" transform="translate(57.813 30.936)"/><circle class="k" cx="18.91" cy="18.91" r="18.91" transform="translate(-899.664 384.997)"/><path class="k" d="M-920.161,385.5s-.676,27.015,4.051,31.066-27.014.676-27.014.676,6.753-18.91,1.35-22.963S-920.161,385.5-920.161,385.5Z" transform="translate(54.941 20.434)"/><path class="j" d="M-939.993,413.024s4.052-7.428,9.454-6.753,22.963,2.026,23.638,3.377,2.7,6.077,4.052,7.428,11.482,3.377,12.157,11.481S-915,485.962-915,485.962s3.376,11.482,2.7,14.183,3.376,10.806,2.7,14.183,10.131,23.637,4.727,49.976v42.548s18.235,73.615,12.832,79.018-23.637,2.025-27.014,0-17.56-104.006-17.56-104.006l-6.753-34.444-.675,75.641s1.351,63.484-3.377,65.51-22.961,2.7-24.312-1.351c-1.054-3.16-6.215-87.249-8.436-124.109a137.711,137.711,0,0,1,2.973-37.939c2.812-12.749,6.892-27.727,11.541-33.807,8.78-11.481,14.182-47.951,14.182-47.951l-11.481-20.935s6.754-6.755,10.806-6.755S-939.993,413.024-939.993,413.024Z" transform="translate(49.784 23.3)"/><path class="j" d="M-903.551,421.691l3.562,2.425s2.517,43.5.491,46.2-16.112,1.383-17.173-1S-903.551,421.691-903.551,421.691Z" transform="translate(58.591 25.439)"/><path class="k" d="M-950.654,456.9c1.977,13.714,3.71,25.923-6.4,36.968a189.7,189.7,0,0,1-34.128,29.561c-1.24,3.284-19.441,27.4-20.366,17.781s5.362-17.162,14.3-25.3,21.438-25.785,28.491-35.471,4.15-15.724,3.905-23.814S-953.428,456.995-950.654,456.9Z" transform="translate(45.467 29.785)"/><path class="j" d="M-963.328,657.713s-.675,7.564-2.7,9.59-7.428,4.727-6.753,12.157,5.065,7.766,5.065,7.766l-.338-1.688,2.026.675.338,1.013h18.91s.337-7.091-.338-10.468-.675-19.586-2.7-18.91-7.429,1.35-8.78,4.052S-964,663.655-963.328,657.713Z" transform="translate(50.832 58.076)"/><path class="j" d="M-901.945,657.713s.675,7.564,2.7,9.59,7.43,4.727,6.753,12.157-5.065,7.766-5.065,7.766l.338-1.688-2.026.675-.338,1.013h-18.91s-.337-7.091.338-10.468.675-19.586,2.7-18.91,7.43,1.35,8.781,4.052S-901.27,663.655-901.945,657.713Z" transform="translate(58.336 58.076)"/><path class="j" d="M-954.578,418.725l-9.455,2.026s0,14.858-2.7,20.935-7.43,20.261-5.4,20.936,20.936,10.131,22.287,4.728S-945.123,418.725-954.578,418.725Z" transform="translate(50.861 25.029)"/><circle class="j" cx="24.853" cy="24.853" r="24.853" transform="translate(-870.376 338.802)"/><path class="j" d="M-882.152,369.261a24.855,24.855,0,0,1-34.7-5.584,24.835,24.835,0,0,1-3.677-7.466,24.856,24.856,0,0,0,27.761,21.56,24.854,24.854,0,0,0,21.559-27.762,24.879,24.879,0,0,0-.839-3.991A24.846,24.846,0,0,1-882.152,369.261Z" transform="translate(58.065 14.975)"/><circle class="j" cx="18.226" cy="18.226" r="18.226" transform="translate(-884.046 382.295)"/><ellipse class="j" cx="16.155" cy="12.634" rx="16.155" ry="12.634" transform="translate(-897.301 381.052)"/><ellipse class="l" cx="3.066" cy="5.424" rx="3.066" ry="5.424" transform="translate(-888.521 401.207)"/></g></svg>