<svg xmlns="http://www.w3.org/2000/svg" width="707.77" height="520.507" viewBox="0 0 707.77 520.507"><defs><style>.a{fill:#fad2cf;}.b{fill:#ea4335;}.c{fill:#3f3d56;}.d,.g,.l,.m,.n,.p{fill:none;}.d{stroke:#2f2e41;}.d,.g,.l,.m,.n{stroke-miterlimit:10;}.d,.g{stroke-width:2px;}.e,.f{fill:#4285f4;}.f,.g{opacity:0.3;}.g{stroke:#6c63ff;}.h{fill:#6c63ff;}.i{fill:#2f2e41;}.j{fill:#a0616a;}.k{fill:#d0cde1;}.l{stroke:#ea4335;stroke-width:0.938px;}.m{stroke:#0d652d;}.m,.n{stroke-width:0.938px;}.n{stroke:#e37400;}.o{stroke:none;}</style></defs><g transform="translate(1350.119 -920.095)"><path class="a" d="M-1201.57,920.095l-39.218,64.1a48.474,48.474,0,0,1,14.249,67.055,48.473,48.473,0,0,1-64.826,15.612l-41.7,68.154,402.274,246.12L-799.3,1166.213Z" transform="translate(10.022)"/><circle class="b" cx="31.586" cy="31.586" r="31.586" transform="translate(-1282.891 993.252)"/><rect class="c" width="536.233" height="362.141" transform="translate(-1188.499 1049.446)"/><line class="d" x2="536.233" transform="translate(-1188.499 1075.934)"/><circle class="e" cx="6.611" cy="6.611" r="6.611" transform="translate(-1178.582 1056.057)"/><circle class="e" cx="6.611" cy="6.611" r="6.611" transform="translate(-1158.749 1056.425)"/><circle class="e" cx="6.611" cy="6.611" r="6.611" transform="translate(-1138.916 1056.792)"/><rect class="f" width="452.492" height="88.148" transform="translate(-1155.076 1100.499)"/><line class="g" y1="88.148" x2="452.492" transform="translate(-1155.076 1100.499)"/><line class="g" x1="452.492" y1="88.148" transform="translate(-1155.076 1100.499)"/><rect class="f" width="107.981" height="141.771" transform="translate(-1155.076 1244.474)"/><rect class="f" width="107.981" height="141.771" transform="translate(-810.565 1244.474)"/><rect class="f" width="107.981" height="141.771" transform="translate(-982.821 1244.474)"/><line class="g" x2="107.981" y2="141.771" transform="translate(-1155.076 1244.474)"/><line class="g" x1="107.981" y2="141.771" transform="translate(-1155.076 1244.474)"/><line class="g" x2="107.981" y2="141.771" transform="translate(-982.453 1244.474)"/><line class="g" x1="107.981" y2="141.771" transform="translate(-982.453 1244.474)"/><line class="g" x2="107.981" y2="141.771" transform="translate(-810.565 1244.474)"/><line class="g" x1="107.981" y2="141.771" transform="translate(-810.565 1244.474)"/><rect class="e" width="452.492" height="88.148" transform="translate(-1094.842 1100.499)"/><rect class="e" width="107.981" height="141.771" transform="translate(-789.997 1278.264)"/><rect class="c" width="76.395" height="8.815" transform="translate(-774.204 1296.995)"/><rect class="c" width="76.395" height="8.815" transform="translate(-774.204 1316.094)"/><rect class="c" width="76.395" height="8.815" transform="translate(-774.204 1335.192)"/><rect class="c" width="76.395" height="8.815" transform="translate(-774.204 1354.291)"/><rect class="c" width="76.395" height="8.815" transform="translate(-774.204 1373.39)"/><rect class="c" width="76.395" height="8.815" transform="translate(-774.204 1392.489)"/><rect class="e" width="107.981" height="141.771" transform="translate(-1128.632 1263.572)"/><rect class="c" width="76.395" height="8.815" transform="translate(-1112.839 1310.952)"/><rect class="c" width="76.395" height="8.815" transform="translate(-1112.839 1330.051)"/><rect class="c" width="76.395" height="8.815" transform="translate(-1112.839 1349.149)"/><path class="c" d="M-1016.789,1080.168c0,16.5-9.811,22.268-21.915,22.268-.281,0-.561,0-.84-.01-.56-.012-1.116-.04-1.665-.076-10.923-.773-19.41-6.833-19.41-22.182,0-15.885,20.3-35.93,21.825-37.413l0,0,.087-.086S-1016.789,1063.663-1016.789,1080.168Z" transform="translate(170.108 72.022)"/><path class="h" d="M-1044.058,1099.91l8.016-11.2-8.036,12.429-.021,1.286c-.56-.012-1.116-.04-1.665-.076l.864-16.512-.006-.129.014-.024.083-1.561-8.055-12.459,8.081,11.291.018.33.654-12.475-6.9-12.875,6.98,10.684.68-25.865,0-.089v.086l-.115,20.4,6.866-8.087-6.895,9.845-.181,11.17,6.411-10.721-6.437,12.364-.1,6.211,9.307-14.922-9.342,17.089Z" transform="translate(174.664 72.022)"/><circle class="i" cx="17.213" cy="17.213" r="17.213" transform="translate(-1279.924 1152.075)"/><path class="j" d="M-1300.463,1084.276s.259,10.624-.778,10.883,14.254,4.406,14.254,4.406l1.554-14.512Z" transform="translate(28.691 96.472)"/><path class="j" d="M-1224.576,1141.923s11.4,0,11.661-1.3,2.593,10.624,2.593,10.624l-4.666,1.556s-8.811-3.888-9.587-3.888S-1224.576,1141.923-1224.576,1141.923Z" transform="translate(73.565 129.525)"/><path class="i" d="M-1215.143,1151.75s-2.073-7-4.664-7.255c0,0,8.811-5.7,9.07-7.516s3.369-6.479,4.664-4.925,1.3,26.175-1.037,28.766-12.7-3.642-12.7-3.642S-1213.328,1154.341-1215.143,1151.75Z" transform="translate(76.57 124.363)"/><path class="j" d="M-1304.737,1206.863l-2.073,11.143,9.588,1.555v-12.7Z" transform="translate(25.448 168.503)"/><path class="i" d="M-1303.671,1214.632s-1.556-4.925-2.591-4.147-2.593,5.7-2.334,7,2.073,11.4,1.3,13.217,3.886,11.143,9.846,10.365,5.442-5.96,5.442-5.96l-2.072-8.033-.778-12.7S-1301.6,1213.336-1303.671,1214.632Z" transform="translate(24.382 170.582)"/><circle class="i" cx="7.123" cy="7.123" r="7.123" transform="translate(-1275.855 1144.049)"/><path class="i" d="M-1304.289,1065.852a7.125,7.125,0,0,1,6.382-7.084,7.279,7.279,0,0,0-.743-.038,7.122,7.122,0,0,0-7.119,7.125,7.124,7.124,0,0,0,7.119,7.12,7.281,7.281,0,0,0,.743-.04A7.124,7.124,0,0,1-1304.289,1065.852Z" transform="translate(26.06 81.461)"/><circle class="j" cx="10.884" cy="10.884" r="10.884" transform="translate(-1273.587 1166.235)"/><path class="i" d="M-1308.606,1130.152s.519,12.958,2.593,19.7,9.548,54.723,7.992,58.35-9.548,43.752-7.733,46.085,10.365,1.556,10.365,1.556l11.621-48.677s-2.291-53.686,16.886-54.982,50.533-2.073,50.533-2.073,20.213,5.96,29.283,5.7,14.254,2.332,14.254,2.332l1.554-10.624-40.166-8.811s-36.8-12.7-57.014-9.331S-1308.606,1130.152-1308.606,1130.152Z" transform="translate(24.393 122.637)"/><path class="k" d="M-1290.162,1089.307s-3.108-1.813-3.886,0-6.22,3.369-8.292,1.815-7.257.518-7.257.518l-5.7,16.844s2.851,14.512,5.442,22.547,3.628,24.619,2.591,26.173,20.733,7.774,31.357,3.888,12.958-8.294,12.958-8.294-11.663-16.586-7.775-24.36.778-16.584.778-16.584l1.554-8.811-8.811-4.925s-.518-4.664-2.591-4.664S-1290.162,1089.307-1290.162,1089.307Z" transform="translate(20.461 98.955)"/><path class="k" d="M-1287.052,1097.824h3.888a8.7,8.7,0,0,1,2.591,8.033c-1.037,4.923-5.711,21.248-5.711,21.248l-3.877-10.1Z" transform="translate(35.232 104.432)"/><path class="j" d="M-1279.3,1124.038s7.754,8.4,2.053,12.8-7.106-10.107-7.106-10.107Z" transform="translate(38.644 119.836)"/><path class="k" d="M-1288.059,1113l1.815,7.257,3.11,5.7s10.624,7,10.624,9.589c0,0-4.664-5.961-10.624,0l-5.312-12.828Z" transform="translate(36.239 113.352)"/><ellipse class="i" cx="11.871" cy="7.123" rx="11.871" ry="7.123" transform="translate(-1272.579 1158.516)"/><path class="j" d="M-1308.606,1076.067s8.294-4.666,11.662-1.3-10.106,8.552-10.106,8.552Z" transform="translate(24.393 90.168)"/><path class="k" d="M-1297.316,1101.48l-1.815-1.3s-2.073-3.109-3.886-2.072-12.44-3.888-12.44-3.888,3.888,1.814,3.888-1.3.518-2.591,3.11-2.591,2.591,1.3,3.628-.519.517-2.85,2.332-1.813a3.638,3.638,0,0,0,4.406-.519c.517-.778,9.848-2.073,9.848-2.073s-3.628-10.624-4.406-11.4-20.732,8.033-20.732,8.033-25.136,7-18.657,15.031,29.8,20.213,29.8,20.213Z" transform="translate(9.995 90.411)"/><rect class="e" width="107.981" height="141.771" transform="translate(-1006.694 1298.831)"/><rect class="c" width="48.481" height="48.481" transform="translate(-976.944 1321.236)"/><rect class="c" width="85.21" height="5.877" transform="translate(-995.308 1380.001)"/><rect class="c" width="85.21" height="5.877" transform="translate(-995.308 1396.161)"/><rect class="c" width="85.21" height="5.877" transform="translate(-995.308 1412.322)"/><g class="l" transform="translate(-1350.119 1236.792)"><circle class="o" cx="13.899" cy="13.899" r="13.899"/><circle class="p" cx="13.899" cy="13.899" r="13.43"/></g><circle class="m" cx="13.899" cy="13.899" r="13.899" transform="translate(-976.944 950.396)"/><circle class="n" cx="13.899" cy="13.899" r="13.899" transform="translate(-749.905 1007.151)"/></g></svg>