<svg xmlns="http://www.w3.org/2000/svg" width="1844.831" height="1021.85" viewBox="0 0 1844.831 1021.85"><defs><style>.a,.aa,.ab,.c,.f,.k,.l,.m,.n,.o,.p,.q,.r,.s,.t,.u,.v,.y,.z{fill:none;stroke-miterlimit:10;}.a,.n{stroke:#a8dab5;}.a{stroke-width:0.7px;}.b{fill:#fde293;}.c{stroke:#fde293;}.c,.f,.k,.l,.m,.n,.o,.p,.r,.s,.t,.u,.v,.y,.z{stroke-width:0.94px;}.d{fill:#fad2cf;}.e{fill:#aecbfa;}.f{stroke:#4285f4;}.g{fill:#fbbc04;}.h{fill:#4285f4;}.i{fill:#ea4335;}.j{fill:#a8dab5;}.k,.q{stroke:#aecbfa;}.l{stroke:#ea4335;}.m{stroke:#1e8e3e;}.o{stroke:#174ea6;}.p{stroke:#e37400;}.aa,.q{stroke-width:0.93px;}.r{stroke:#34a853;}.s{stroke:#fbbc04;}.t{stroke:#fff;}.u{stroke:#f9ab00;}.v{stroke:#fad2cf;}.w{fill:#fff;}.x{fill:#34a853;}.y{stroke:#0d652d;}.aa,.z{stroke:#a50e0e;}.ab{stroke:#202124;stroke-width:0.86px;}</style></defs><g transform="translate(-0.02)"><line class="a" y1="26.08" transform="translate(1799.84 527.09)"/><line class="a" y1="12.88" transform="translate(1799.84 503.53)"/><circle class="a" cx="5.34" cy="5.34" r="5.34" transform="translate(1794.5 516.41)"/><path class="b" d="M1642,251.66c4.65,0,9.29,5,12.72,13.66,3.59,9.08,5.57,21.18,5.57,34.06s-2,25-5.57,34.06c-3.43,8.68-8.07,13.65-12.72,13.65s-9.3-5-12.73-13.65c-3.59-9.09-5.57-21.18-5.57-34.06s2-25,5.57-34.06c3.43-8.68,8.07-13.66,12.73-13.66m0-.94c-10.63,0-19.23,21.79-19.23,48.66S1631.38,348,1642,348s19.22-21.78,19.22-48.65-8.6-48.66-19.22-48.66Z"/><line class="c" x2="92.15" transform="translate(1596.03 283.16)"/><path class="b" d="M1642,251.66a47.72,47.72,0,1,1-47.72,47.72A47.72,47.72,0,0,1,1642,251.66m0-.94a48.66,48.66,0,1,0,48.65,48.657A48.662,48.662,0,0,0,1642,250.72Z"/><line class="c" x2="91.57" transform="translate(1596.32 315.6)"/><path class="d" d="M1708.43,720.78l-38.88-67.35-38.89,67.35"/><rect class="b" width="29.77" height="11.22" transform="translate(500.81 826.64)"/><rect class="d" width="45.53" height="112.32" transform="translate(807.32)"/><rect class="e" width="45.53" height="112.32" transform="translate(1787.97 697.99)"/><line class="f" x1="30.91" transform="translate(1772.51 781.73)"/><line class="f" x1="30.91" transform="translate(1772.51 757.67)"/><rect class="d" width="56.26" height="112.32" transform="translate(171.12 392.45)"/><path class="g" d="M133.2,135.59H245.53a40.17,40.17,0,0,0-40.17-40.17h-32A40.17,40.17,0,0,0,133.2,135.59Z"/><rect class="b" width="96.87" height="112.32" transform="translate(24.57 798.83)"/><path class="e" d="M394,0l64.85,112.32V0Z"/><path class="h" d="M556.32,957l-56.16-32.43L444,1021.85h0Z"/><rect class="i" width="37.45" height="28.08" transform="translate(195.84 718.68)"/><rect class="h" width="28.62" height="28.08" transform="translate(1824.613 112.328) rotate(45)"/><rect class="h" width="28.62" height="28.08" transform="translate(1810.68 900.73)"/><rect class="i" width="28.08" height="28.08" transform="translate(1088.57 865.32)"/><rect class="i" width="37.44" height="28.08" transform="translate(1792.19 287.68)"/><path class="g" d="M1406.17,934.9l-39.71,39.71L1340,948.13,1320.13,968l26.47,26.48a42.122,42.122,0,1,0,59.57-59.57Z"/><path class="j" d="M949.64,968.78h0l-79.42-79.42h0a40.15,40.15,0,0,0,0,56.8l22.62,22.62a40.15,40.15,0,0,0,56.8,0Z"/><rect class="j" width="112.32" height="50.9" transform="translate(1271 132.45)"/><circle class="k" cx="7.14" cy="7.14" r="7.14" transform="translate(389.72 889.37)"/><path class="b" d="M603,57.47a6.2,6.2,0,1,1-6.2,6.2,6.2,6.2,0,0,1,6.2-6.2m0-.94a7.14,7.14,0,1,0,7.14,7.14A7.14,7.14,0,0,0,603,56.53Z"/><path class="b" d="M603,85.19a6.2,6.2,0,1,1-6.2,6.2,6.2,6.2,0,0,1,6.2-6.2m0-.94a7.14,7.14,0,1,0,7.14,7.14A7.14,7.14,0,0,0,603,84.25Z"/><path class="b" d="M603,29.74a6.2,6.2,0,1,1-6.2,6.2,6.2,6.2,0,0,1,6.2-6.2m0-.94a7.14,7.14,0,1,0,7.14,7.14A7.14,7.14,0,0,0,603,28.8Z"/><rect class="l" width="11.52" height="11.52" transform="translate(298.486 607.279) rotate(45)"/><rect class="j" width="9.6" height="9.6" transform="translate(286.08 282.379) rotate(-45)"/><rect class="m" width="9.6" height="9.6" transform="translate(275.6 258.33) rotate(45)"/><rect class="n" width="9.6" height="9.6" transform="translate(254.568 237.288) rotate(45)"/><circle class="o" cx="6.79" cy="6.79" r="6.79" transform="translate(1409.04 40.51)"/><circle class="o" cx="6.79" cy="6.79" r="6.79" transform="translate(1587.23 465.04)"/><circle class="b" cx="10.94" cy="10.94" r="10.94" transform="translate(1465.935 843.602)"/><path class="p" d="M1640.93,945.82h13.28a28.08,28.08,0,0,0,0-56.16"/><path class="k" d="M1280.29,865.61l-20.46-20.45-20.45,20.45"/><path class="q" d="M965.8,134.14l29.3,29.29,29.29-29.29"/><path class="l" d="M1781.35,435.05l-22.48,22.48a28.08,28.08,0,1,0,39.711,39.711l35.159-35.151"/><line class="l" x1="31.99" y2="31.98" transform="translate(1803 442.59)"/><line class="l" x1="39.58" y2="39.58" transform="translate(1793.13 425.12)"/><line class="l" x1="33.51" y2="33.51" transform="translate(1783.26 421.33)"/><line class="f" y1="45.24" transform="translate(86.28 302.75)"/><line class="f" y1="55.97" transform="translate(72.32 302.75)"/><path class="f" d="M34.67,326.44H58.36V302.75"/><path class="f" d="M71.1,255.51a28.08,28.08,0,0,1,28.08,28.08v49.72"/><path class="f" d="M99.18,283.59a28.08,28.08,0,0,0-52.4-14"/><line class="f" x1="18.94" y2="33.2" transform="translate(27.84 269.55)"/><path class="r" d="M1463.79,855.68l22.49,22.48A28.083,28.083,0,0,0,1526,838.45L1506.55,819" transform="translate(26.615 33.612)"/><line class="r" x2="14.24" y2="14.24" transform="translate(1521.766 859.472)"/><line class="r" x2="16.52" y2="16.52" transform="translate(1509.615 867.062)"/><line class="r" x2="39.58" y2="39.58" transform="translate(1476.685 853.872)"/><line class="s" y1="33.92" transform="translate(645.22 124.68)"/><line class="s" y1="27.48" transform="translate(631.08 120.38)"/><line class="s" y1="30.7" transform="translate(616.94 117.16)"/><line class="s" y1="56.47" transform="translate(602.81 91.39)"/><line class="s" x1="8.74" y1="32.44" transform="translate(581.26 133.36)"/><path class="s" d="M590,165.8a28.08,28.08,0,0,0,55.23-7.2"/><rect class="t" width="47" height="47" transform="translate(49.5 821.8)"/><rect class="j" width="47" height="47" transform="translate(212.17 894.77)"/><line class="t" x1="49.77" y1="49.77" transform="translate(210.53 893.11)"/><line class="t" y1="49.99" x2="49.99" transform="translate(210.53 893.44)"/><circle class="b" cx="33.79" cy="33.79" r="33.79" transform="translate(1128.6 13.17)"/><path class="u" d="M1152.85,63.02l26.92-15.54-26.92-15.54Z"/><line class="k" y2="40.87" transform="translate(1050.29 938.98)"/><line class="k" x2="40.87" transform="translate(1029.86 959.42)"/><path class="i" d="M261.49,429.29v50.77L249.63,468.2l-.27-.27H197.59V429.29h63.9m.94-.94H196.65v40.52H249l13.46,13.46v-54Z"/><line class="r" y2="45.31" transform="translate(297.84 864.25)"/><line class="r" y2="56.07" transform="translate(283.86 853.49)"/><path class="r" d="M251.39,885.83h18.49v23.73"/><path class="r" d="M282.64,949a28.12,28.12,0,0,0,28.12-28.12V879"/><path class="r" d="M310.77,920.89A28.16,28.16,0,0,1,282.64,949H251.39"/><path class="n" d="M16.53,567.45a18.68,18.68,0,0,1,37.35,0v42.41H87.19"/><path class="r" d="M84.94,567.45a18.68,18.68,0,0,1,37.35,0"/><path class="j" d="M105.48,635.39a36.07,36.07,0,1,1-72.14,0Z"/><path class="l" d="M1617.43,65.36a15.91,15.91,0,0,1-31.82,0"/><path class="v" d="M1661.38,128.41a30.72,30.72,0,0,1-30.72,30.72"/><path class="l" d="M1675.7,65.36a15.92,15.92,0,0,1-15.9,15.91,16.11,16.11,0,0,1-16.13-15.91l-26.24,45.06h28.37"/><rect class="w" width="28.37" height="18.4" transform="translate(1633.92 46.96)"/><line class="n" x1="34.88" transform="translate(732.22 889.98)"/><line class="n" x1="14.81" transform="translate(703.14 889.98)"/><rect class="x" width="12.56" height="12.56" transform="translate(725.078 881.104) rotate(45)"/><line class="s" y2="45.24" transform="translate(665.21 858.36)"/><line class="s" y2="55.97" transform="translate(679.17 847.63)"/><path class="s" d="M716.82,879.91H693.13V903.6"/><path class="s" d="M680.39,950.84a28.08,28.08,0,0,1-28.08-28.08V873"/><path class="s" d="M652.31,922.76a28.08,28.08,0,0,0,52.4,14"/><line class="s" y1="33.19" x2="18.94" transform="translate(704.71 903.6)"/><path class="b" d="M18.44,301.14a17.473,17.473,0,1,0,.04,0m0-1a18.45,18.45,0,1,0,18.44,18.447A18.45,18.45,0,0,0,18.48,300.14Z"/><rect class="d" width="32.29" height="79.67" transform="translate(918.54 305.14)"/><rect class="e" width="32.29" height="79.67" transform="translate(1172.75 305.14)"/><rect class="j" width="32.29" height="79.67" transform="translate(631.95 305.14)"/><path class="g" d="M752.11,384.81h0V305.14h0a28.49,28.49,0,0,0-28.49,28.49v22.69A28.5,28.5,0,0,0,752.11,384.81Z"/><rect class="b" width="36.1" height="79.67" transform="translate(752.11 305.14)"/><path class="e" d="M807.76,305.14l46,79.67V305.14Z"/><path class="h" d="M899.75,305.14H853.76v79.67h0Z"/><path class="x" d="M664.24,305.14a39.837,39.837,0,1,1,0,79.675Z"/><path class="y" d="M664.24,369.6a24.628,24.628,0,1,0,0-49.255l-16.14.005V339.2"/><path class="g" d="M1112.46,364.89a29.878,29.878,0,1,1,0-59.755Z"/><rect class="i" width="26.56" height="19.92" transform="translate(950.83 305.14)"/><rect class="h" width="20.3" height="19.92" transform="translate(1152.45 305.14)"/><rect class="h" width="20.3" height="19.92" transform="translate(1205.04 305.14)"/><rect class="i" width="19.92" height="19.92" transform="translate(950.83 344.97)"/><rect class="g" width="26.56" height="19.92" transform="translate(1112.46 305.14)"/><path class="b" d="M1112.46,325.06v39.83H1085.9v19.92h26.56a29.878,29.878,0,1,0,0-59.755Z"/><path class="p" d="M1098.53,349.25a19.91,19.91,0,0,1,13.93-34.15h14.93"/><line class="o" x2="52.59" transform="translate(1162.6 315.29)"/><path class="x" d="M1024.87,384.81h0V305.14h0a28.49,28.49,0,0,0-28.49,28.49v22.69A28.5,28.5,0,0,0,1024.87,384.81Z"/><rect class="j" width="36.1" height="79.67" transform="translate(1024.87 305.14)"/><line class="y" x1="5.15" y1="0.03" transform="translate(1010.84 332.91)"/><line class="y" x1="35.36" transform="translate(1025.61 332.99)"/><line class="y" x1="10.56" transform="translate(1050.41 356.96)"/><line class="y" x1="8.03" transform="translate(1032.75 356.96)"/><circle class="o" cx="5.06" cy="5.06" r="5.06" transform="translate(848.7 347.09)"/><circle class="o" cx="5.06" cy="5.06" r="5.06" transform="translate(866.41 316.41)"/><line class="o" x1="12.68" y2="21.96" transform="translate(856.26 325.85)"/><circle class="o" cx="5.06" cy="5.06" r="5.06" transform="translate(830.99 316.41)"/><line class="o" x2="12.68" y2="21.96" transform="translate(838.58 325.85)"/><rect class="y" width="8.17" height="8.17" transform="translate(648.099 339.193) rotate(45)"/><rect class="y" width="6.81" height="6.81" transform="translate(1045.594 352.142) rotate(45)"/><rect class="y" width="6.81" height="6.81" transform="translate(1020.898 328.177) rotate(45)"/><circle class="o" cx="4.82" cy="4.82" r="4.82" transform="translate(1184.08 327.32)"/><circle class="o" cx="4.82" cy="4.82" r="4.82" transform="translate(1184.08 345.78)"/><circle class="o" cx="4.82" cy="4.82" r="4.82" transform="translate(1184.08 364.24)"/><path class="p" d="M1103,374.85h9.42a19.92,19.92,0,1,0,0-39.84"/><path class="z" d="M955.21,354.86H934.68v20.52"/><path class="aa" d="M964.07,315.09H934.68v29.38"/><line class="p" x1="36.25" transform="translate(751.97 332.99)"/><line class="p" x1="36.25" transform="translate(751.97 344.97)"/><line class="p" x1="36.25" transform="translate(751.97 356.96)"/><path class="ab" d="M1032.79,420a19.92,19.92,0,0,1,19.92,19.92v19.92a19.92,19.92,0,0,1-19.92,19.92h-14.94"/><path class="ab" d="M897.44,420a19.92,19.92,0,0,1,19.92,19.92v19.92a19.92,19.92,0,1,1-39.84,0V439.92A19.92,19.92,0,0,1,897.44,420Z"/><line class="ab" y2="59.55" transform="translate(965.63 420.2)"/><path class="ab" d="M836.87,479.75H807.24V469.8"/><path class="ab" d="M807.24,469.8a13.94,13.94,0,0,1,13.94-13.95,17.93,17.93,0,1,0,0-35.85H807.24"/><path class="ab" d="M1032.79,420a19.92,19.92,0,1,0,19.92,19.92"/><rect class="e" width="32.29" height="79.67" transform="translate(661.83 595.71)"/><rect class="h" width="20.3" height="19.92" transform="translate(641.53 595.71)"/><rect class="h" width="20.3" height="19.92" transform="translate(694.12 595.71)"/><line class="o" x2="52.59" transform="translate(651.68 605.86)"/><circle class="o" cx="4.82" cy="4.82" r="4.82" transform="translate(673.15 617.89)"/><circle class="o" cx="4.82" cy="4.82" r="4.82" transform="translate(673.15 636.35)"/><circle class="o" cx="4.82" cy="4.82" r="4.82" transform="translate(673.15 654.81)"/><path class="b" d="M818.09,675.38l-46-79.67v79.67Z"/><path class="g" d="M726.09,675.38h46V595.71h0Z"/><circle class="p" cx="5.06" cy="5.06" r="5.06" transform="translate(767.03 623.31)"/><circle class="p" cx="5.06" cy="5.06" r="5.06" transform="translate(749.32 653.99)"/><line class="p" y1="21.96" x2="12.68" transform="translate(756.91 632.7)"/><circle class="p" cx="5.06" cy="5.06" r="5.06" transform="translate(784.74 653.99)"/><line class="p" x1="12.68" y1="21.96" transform="translate(774.59 632.7)"/><line class="p" x2="25.3" transform="translate(759.44 659.05)"/><path class="e" d="M1119.93,675.38l-46-79.67v79.67Z"/><path class="h" d="M1027.93,675.38h46V595.71h0Z"/><circle class="o" cx="5.06" cy="5.06" r="5.06" transform="translate(1068.87 623.31)"/><circle class="o" cx="5.06" cy="5.06" r="5.06" transform="translate(1051.16 653.99)"/><line class="o" y1="21.96" x2="12.68" transform="translate(1058.75 632.7)"/><circle class="o" cx="5.06" cy="5.06" r="5.06" transform="translate(1086.58 653.99)"/><line class="o" x1="12.68" y1="21.96" transform="translate(1076.43 632.7)"/><line class="o" x2="25.3" transform="translate(1061.28 659.05)"/><rect class="d" width="32.29" height="79.67" transform="translate(857.6 595.71)"/><rect class="i" width="20.3" height="19.92" transform="translate(837.3 595.71)"/><rect class="i" width="20.3" height="19.92" transform="translate(889.89 595.71)"/><rect class="i" width="20.3" height="19.92" transform="translate(837.3 655.46)"/><rect class="i" width="20.3" height="19.92" transform="translate(889.89 655.46)"/><line class="z" x2="52.59" transform="translate(847.45 605.86)"/><line class="z" x2="52.59" transform="translate(847.45 665.42)"/><rect class="z" width="6.81" height="6.81" transform="translate(873.753 620.359) rotate(45)"/><rect class="z" width="6.81" height="6.81" transform="translate(873.741 641.171) rotate(45)"/><path class="x" d="M1011.39,646.89H931.72a28.49,28.49,0,0,0,28.49,28.49H982.9A28.5,28.5,0,0,0,1011.39,646.89Z"/><rect class="j" width="79.67" height="51.12" transform="translate(931.72 595.71)"/><line class="y" y2="54.69" transform="translate(952.89 595.71)"/><line class="y" y2="51.32" transform="translate(971.55 595.71)"/><line class="y" y2="51.32" transform="translate(990.22 595.71)"/><circle class="y" cx="5.06" cy="5.06" r="5.06" transform="translate(947.83 650.4)"/><path class="g" d="M1136.1,624.2h79.67a28.49,28.49,0,0,0-28.49-28.49h-22.69a28.48,28.48,0,0,0-28.49,28.49Z"/><rect class="b" width="79.67" height="51.12" transform="translate(1136.1 624.26)"/><line class="p" y1="54.69" transform="translate(1154.76 620.69)"/><line class="p" y1="51.32" transform="translate(1193.19 624.16)"/><rect class="p" width="6.81" height="6.81" transform="translate(1154.765 611.062) rotate(45)"/></g></svg>