<svg xmlns="http://www.w3.org/2000/svg" width="403.453" height="663.568" viewBox="0 0 403.453 663.568"><defs><style>.a{fill:#fad2cf;}.b{fill:#aecbfa;}.c{fill:#a8dab5;}.d{fill:#fbbc04;}.e{fill:#fde293;}.f{fill:#4285f4;}.g{fill:#34a853;}.aa,.ab,.ac,.ad,.ae,.af,.ah,.aj,.h,.j,.k,.l,.m,.n,.o,.p,.q,.r,.s,.t,.u,.v,.w,.x,.y,.z{fill:none;}.h{stroke:#0d652d;}.aa,.ab,.ac,.ad,.ae,.af,.ah,.h,.j,.k,.l,.m,.n,.o,.p,.q,.r,.s,.t,.u,.v,.w,.x,.y,.z{stroke-miterlimit:10;}.h,.j,.k,.l{stroke-width:0.94px;}.ak,.i{fill:#ea4335;}.j,.w{stroke:#e37400;}.k,.v{stroke:#174ea6;}.l,.m{stroke:#a50e0e;}.m{stroke-width:0.93px;}.n{stroke:#202124;stroke-width:0.86px;}.o,.u{stroke:#a8dab5;}.o{stroke-width:0.701px;}.ah,.p{stroke:#fde293;}.aa,.ab,.ac,.ad,.af,.p,.q,.y,.z{stroke-width:0.938px;}.q{stroke:#4285f4;}.ad,.r,.x{stroke:#aecbfa;}.r,.s,.t,.u,.v,.w{stroke-width:0.938px;}.s,.y{stroke:#ea4335;}.t{stroke:#1e8e3e;}.x{stroke-width:0.934px;}.z{stroke:#34a853;}.aa{stroke:#fbbc04;}.ab{stroke:#fff;}.ac{stroke:#f9ab00;}.af{stroke:#fad2cf;}.ag{fill:#fff;}.ah{stroke-width:0.957px;}.ai,.ak{stroke:none;}</style></defs><g transform="translate(-9.635 -64.262)"><g transform="translate(156.942 -511.607)"><rect class="a" width="15.132" height="37.337" transform="translate(45.322 802.137)"/><rect class="b" width="15.132" height="37.337" transform="translate(164.456 802.137)"/><rect class="c" width="15.132" height="37.337" transform="translate(-88.985 802.137)"/><path class="d" d="M736.972,342.477h0V305.14h0a13.352,13.352,0,0,0-13.352,13.352v10.633A13.356,13.356,0,0,0,736.972,342.477Z" transform="translate(-769.645 496.997)"/><rect class="e" width="16.918" height="37.337" transform="translate(-32.673 802.137)"/><path class="b" d="M807.76,305.14l21.557,37.337V305.14Z" transform="translate(-814.354 496.997)"/><path class="f" d="M875.313,305.14H853.76v37.337h0Z" transform="translate(-838.796 496.997)"/><path class="g" d="M664.24,305.14a18.669,18.669,0,1,1,0,37.339Z" transform="translate(-738.093 496.997)"/><path class="h" d="M655.664,343.428a11.541,11.541,0,1,0,0-23.083l-7.564,0v8.834" transform="translate(-729.517 488.918)"/><path class="d" d="M1096.583,333.139a14,14,0,1,1,0-28Z" transform="translate(-960.381 497)"/><rect class="i" width="12.447" height="9.335" transform="translate(60.455 802.137)"/><rect class="f" width="9.513" height="9.335" transform="translate(154.942 802.137)"/><rect class="f" width="9.513" height="9.335" transform="translate(179.588 802.137)"/><rect class="i" width="9.335" height="9.335" transform="translate(60.455 820.803)"/><rect class="d" width="12.447" height="9.335" transform="translate(136.201 802.137)"/><path class="e" d="M1098.347,325.057v18.666H1085.9v9.335h12.447a14,14,0,1,0,0-28Z" transform="translate(-962.146 486.415)"/><path class="j" d="M1095.344,331.1a9.331,9.331,0,0,1,6.528-16h7" transform="translate(-965.671 491.705)"/><line class="k" x2="24.646" transform="translate(159.699 806.894)"/><path class="g" d="M1009.732,342.477h0V305.14h0a13.352,13.352,0,0,0-13.352,13.352v10.633A13.356,13.356,0,0,0,1009.732,342.477Z" transform="translate(-914.578 496.997)"/><rect class="c" width="16.918" height="37.337" transform="translate(95.153 802.137)"/><line class="h" x1="2.414" y1="0.014" transform="translate(88.578 815.152)"/><line class="h" x1="16.571" transform="translate(95.5 815.189)"/><line class="h" x1="4.949" transform="translate(107.122 826.422)"/><line class="h" x1="3.763" transform="translate(98.846 826.422)"/><circle class="k" cx="2.371" cy="2.371" r="2.371" transform="translate(12.593 821.797)"/><circle class="k" cx="2.371" cy="2.371" r="2.371" transform="translate(20.892 807.419)"/><line class="k" x1="5.942" y2="10.291" transform="translate(16.136 811.843)"/><circle class="k" cx="2.371" cy="2.371" r="2.371" transform="translate(4.293 807.419)"/><line class="k" x2="5.942" y2="10.291" transform="translate(7.85 811.843)"/><rect class="h" width="3.829" height="3.829" transform="translate(-81.417 818.096) rotate(45)"/><rect class="h" width="3.191" height="3.191" transform="translate(104.865 824.164) rotate(45)"/><rect class="h" width="3.191" height="3.191" transform="translate(93.292 812.933) rotate(45)"/><circle class="k" cx="2.259" cy="2.259" r="2.259" transform="translate(169.766 812.532)"/><circle class="k" cx="2.259" cy="2.259" r="2.259" transform="translate(169.766 821.183)"/><circle class="k" cx="2.259" cy="2.259" r="2.259" transform="translate(169.766 829.834)"/><path class="j" d="M1103,353.681h4.415a9.335,9.335,0,1,0,0-18.671" transform="translate(-971.232 481.126)"/><path class="l" d="M944.3,354.86H934.68v9.617" transform="translate(-881.794 470.578)"/><path class="m" d="M948.453,315.09H934.68v13.769" transform="translate(-881.794 491.71)"/><line class="j" x1="16.988" transform="translate(-32.739 815.189)"/><line class="j" x1="16.988" transform="translate(-32.739 820.803)"/><line class="j" x1="16.988" transform="translate(-32.739 826.422)"/><path class="n" d="M1024.852,420a9.335,9.335,0,0,1,9.335,9.335v9.335a9.336,9.336,0,0,1-9.335,9.335h-7" transform="translate(-925.987 435.965)"/><path class="n" d="M886.855,420a9.335,9.335,0,0,1,9.335,9.335v9.335a9.335,9.335,0,1,1-18.671,0v-9.335A9.335,9.335,0,0,1,886.855,420Z" transform="translate(-851.421 435.965)"/><line class="n" y2="27.908" transform="translate(67.391 856.059)"/><path class="n" d="M821.126,474.463H807.24V469.8" transform="translate(-814.077 409.504)"/><path class="n" d="M807.24,443.336a6.533,6.533,0,0,1,6.533-6.538,8.4,8.4,0,1,0,0-16.8H807.24" transform="translate(-814.077 435.968)"/><path class="n" d="M1022.205,420a9.335,9.335,0,1,0,9.335,9.335" transform="translate(-923.341 435.965)"/><rect class="b" width="15.132" height="37.337" transform="translate(-74.982 938.31)"/><rect class="f" width="9.513" height="9.335" transform="translate(-84.496 938.31)"/><rect class="f" width="9.513" height="9.335" transform="translate(-59.85 938.31)"/><line class="k" x2="24.646" transform="translate(-79.739 943.067)"/><circle class="k" cx="2.259" cy="2.259" r="2.259" transform="translate(-69.677 948.705)"/><circle class="k" cx="2.259" cy="2.259" r="2.259" transform="translate(-69.677 957.356)"/><circle class="k" cx="2.259" cy="2.259" r="2.259" transform="translate(-69.677 966.007)"/><path class="e" d="M793.648,633.047,772.09,595.71v37.337Z" transform="translate(-795.4 342.6)"/><path class="d" d="M726.09,633.047h21.557V595.71h0Z" transform="translate(-770.958 342.6)"/><circle class="j" cx="2.371" cy="2.371" r="2.371" transform="translate(-25.681 951.245)"/><circle class="j" cx="2.371" cy="2.371" r="2.371" transform="translate(-33.981 965.623)"/><line class="j" y1="10.291" x2="5.942" transform="translate(-30.424 955.645)"/><circle class="j" cx="2.371" cy="2.371" r="2.371" transform="translate(-17.382 965.623)"/><line class="j" x1="5.942" y1="10.291" transform="translate(-22.138 955.645)"/><line class="j" x2="11.857" transform="translate(-29.238 967.994)"/><path class="b" d="M1095.487,633.047,1073.93,595.71v37.337Z" transform="translate(-955.785 342.6)"/><path class="f" d="M1027.93,633.047h21.557V595.71h0Z" transform="translate(-931.343 342.6)"/><circle class="k" cx="2.371" cy="2.371" r="2.371" transform="translate(115.773 951.245)"/><circle class="k" cx="2.371" cy="2.371" r="2.371" transform="translate(107.474 965.623)"/><line class="k" y1="10.291" x2="5.942" transform="translate(111.031 955.645)"/><circle class="k" cx="2.371" cy="2.371" r="2.371" transform="translate(124.073 965.623)"/><line class="k" x1="5.942" y1="10.291" transform="translate(119.316 955.645)"/><line class="k" x2="11.857" transform="translate(112.216 967.994)"/><rect class="a" width="15.132" height="37.337" transform="translate(16.764 938.31)"/><rect class="i" width="9.513" height="9.335" transform="translate(7.25 938.31)"/><rect class="i" width="9.513" height="9.335" transform="translate(31.896 938.31)"/><rect class="i" width="9.513" height="9.335" transform="translate(7.25 966.312)"/><rect class="i" width="9.513" height="9.335" transform="translate(31.896 966.312)"/><line class="l" x2="24.646" transform="translate(12.007 943.067)"/><line class="l" x2="24.646" transform="translate(12.007 970.979)"/><rect class="l" width="3.191" height="3.191" transform="translate(24.334 949.862) rotate(45)"/><rect class="l" width="3.191" height="3.191" transform="translate(24.328 959.615) rotate(45)"/><path class="g" d="M969.057,646.89H931.72a13.352,13.352,0,0,0,13.352,13.352h10.633A13.356,13.356,0,0,0,969.057,646.89Z" transform="translate(-880.221 315.406)"/><rect class="c" width="37.337" height="23.957" transform="translate(51.499 938.31)"/><line class="h" y2="25.63" transform="translate(61.42 938.31)"/><line class="h" y2="24.051" transform="translate(70.165 938.31)"/><line class="h" y2="24.051" transform="translate(78.915 938.31)"/><circle class="h" cx="2.371" cy="2.371" r="2.371" transform="translate(59.049 963.94)"/><path class="d" d="M1136.1,609.062h37.337a13.352,13.352,0,0,0-13.352-13.352h-10.633A13.347,13.347,0,0,0,1136.1,609.062Z" transform="translate(-988.82 342.6)"/><rect class="e" width="37.337" height="23.957" transform="translate(147.28 951.69)"/><line class="j" y1="25.63" transform="translate(156.025 950.017)"/><line class="j" y1="24.051" transform="translate(174.035 951.643)"/><rect class="j" width="3.191" height="3.191" transform="translate(156.027 945.505) rotate(45)"/></g><g transform="translate(-1 2)"><g transform="translate(-117.353 1066.929)"><g transform="translate(502.257 -787.803)"><line class="o" y1="9.377" transform="translate(1.919 8.47)"/><line class="o" y1="4.631" transform="translate(1.919)"/><circle class="o" cx="1.919" cy="1.919" r="1.919" transform="translate(0 4.631)"/></g><g class="p" transform="translate(507.93 -518.792)"><ellipse class="ai" cx="6.912" cy="17.489" rx="6.912" ry="17.489"/><ellipse class="aj" cx="6.912" cy="17.489" rx="6.444" ry="17.021"/></g><line class="p" x2="33.124" transform="translate(498.316 -507.133)"/><g class="p" transform="translate(496.353 -518.792)"><circle class="ai" cx="17.489" cy="17.489" r="17.489"/><circle class="aj" cx="17.489" cy="17.489" r="17.021"/></g><line class="p" x2="32.915" transform="translate(498.421 -495.473)"/><path class="a" d="M1689.969,711.242l-13.979-24.212-13.979,24.212" transform="translate(-1164.616 -1130.171)"/><rect class="e" width="10.703" height="4.034" transform="translate(190.98 -426.929)"/><rect class="a" width="16.365" height="40.376" transform="translate(323.556 -999.4)"/><rect class="b" width="16.365" height="40.376" transform="translate(518.273 -662.525) rotate(180)"/><path class="q" d="M1846.879,794.806" transform="translate(-1335.064 -1474.983)"/><line class="q" x1="11.109" transform="translate(496.353 -672.798)"/><line class="q" x1="11.109" transform="translate(496.353 -681.447)"/><rect class="a" width="20.224" height="40.376" transform="translate(131.155 -578.997)"/><path class="d" d="M164.556,143.46h40.376a14.438,14.438,0,0,0-14.438-14.438h-11.5A14.438,14.438,0,0,0,164.556,143.46Z" transform="translate(-36.321 -1064.121)"/><rect class="e" width="34.822" height="40.376" transform="translate(128.183 -693.305)"/><path class="b" d="M425.353,33.6l23.311,40.376V33.6Z" transform="translate(-240.371 -1025)"/><path class="f" d="M515.729,969.831l-20.188-11.656-20.188,34.967h0Z" transform="translate(-261.377 -1358.071)"/><rect class="i" width="13.462" height="10.094" transform="translate(140.039 -461.729)"/><rect class="f" width="10.288" height="10.094" transform="translate(510.078 -904.426) rotate(45)"/><rect class="f" width="10.288" height="10.094" transform="translate(507.072 -599.023)"/><rect class="i" width="10.094" height="10.094" transform="translate(363.258 -354.929)"/><rect class="i" width="13.459" height="10.094" transform="translate(448.425 -855.394)"/><path class="d" d="M1382.412,968.5l-14.275,14.275-9.517-9.517-7.138,7.138,9.517,9.517a15.141,15.141,0,0,0,21.413-21.413Z" transform="translate(-933.129 -1467.427)"/><path class="c" d="M922.588,951.509h0l-28.551-28.55h0a14.438,14.438,0,0,0,0,20.419l8.132,8.131A14.438,14.438,0,0,0,922.588,951.509Z" transform="translate(-599.023 -1345.667)"/><rect class="c" width="40.376" height="18.298" transform="translate(384.233 -922.788)"/><circle class="r" cx="2.566" cy="2.566" r="2.566" transform="translate(261.445 -346.7)"/><g class="p" transform="translate(279.531 -919.079)"><circle class="ai" cx="2.566" cy="2.566" r="2.566"/><circle class="aj" cx="2.566" cy="2.566" r="2.097"/></g><g class="p" transform="translate(279.531 -909.113)"><circle class="ai" cx="2.566" cy="2.566" r="2.566"/><circle class="aj" cx="2.566" cy="2.566" r="2.097"/></g><g class="p" transform="translate(279.531 -929.046)"><circle class="ai" cx="2.566" cy="2.566" r="2.566"/><circle class="aj" cx="2.566" cy="2.566" r="2.097"/></g><rect class="s" width="4.14" height="4.14" transform="translate(176.939 -501.775) rotate(45)"/><rect class="c" width="3.452" height="3.452" transform="translate(212.916 -552.004) rotate(45)"/><rect class="t" width="3.452" height="3.452" transform="translate(206.713 -558.207) rotate(45)"/><rect class="u" width="3.452" height="3.452" transform="translate(199.148 -565.772) rotate(45)"/><circle class="v" cx="2.441" cy="2.441" r="2.441" transform="translate(496.353 -988.838)"/><circle class="v" cx="2.441" cy="2.441" r="2.441" transform="translate(466.471 -451.81)"/><circle class="e" cx="3.932" cy="3.932" r="3.932" transform="translate(434.353 -388.39)"/><path class="w" d="M1672.285,943.447h4.773a10.094,10.094,0,0,0,0-20.188" transform="translate(-1176.197 -1290.376)"/><path class="r" d="M1285.434,886.11l-7.354-7.354-7.354,7.354" transform="translate(-893.375 -1297.038)"/><path class="x" d="M997.154,167.74l10.53,10.53,10.53-10.53" transform="translate(-640.862 -1023.921)"/><path class="y" d="M1793.034,468.647l-8.082,8.082A10.094,10.094,0,0,0,1799.227,491l12.637-12.637" transform="translate(-1295.505 -1281.067)"/><line class="y" x1="11.499" y2="11.499" transform="translate(505.312 -809.71)"/><line class="y" x1="14.228" y2="14.228" transform="translate(501.764 -815.986)"/><line class="y" x1="12.044" y2="12.044" transform="translate(498.216 -817.351)"/><line class="q" y1="16.262" transform="translate(215.366 -880.629)"/><line class="q" y1="20.121" transform="translate(210.349 -880.629)"/><path class="q" d="M66.021,344.867h8.517V336.35" transform="translate(130.794 -1216.979)"/><path class="q" d="M102.449,289.113a10.094,10.094,0,0,1,10.094,10.094v17.872" transform="translate(107.46 -1186.722)"/><path class="q" d="M96.968,299.205a10.1,10.1,0,0,0-18.837-5.047" transform="translate(123.037 -1186.72)"/><line class="q" x1="6.809" y2="11.932" transform="translate(194.359 -892.562)"/><path class="z" d="M1495.145,865.793l8.082,8.082A10.094,10.094,0,0,0,1517.5,859.6l-6.987-6.987" transform="translate(-1051.995 -1237.761)"/><line class="z" x2="5.119" y2="5.119" transform="translate(454.422 -382.687)"/><line class="z" x2="5.938" y2="5.938" transform="translate(450.056 -379.958)"/><line class="z" x2="14.228" y2="14.228" transform="translate(438.219 -384.7)"/><line class="aa" y1="12.193" transform="translate(297.288 -894.583)"/><line class="aa" y1="9.878" transform="translate(292.206 -896.127)"/><line class="aa" y1="11.036" transform="translate(287.123 -897.284)"/><line class="aa" y1="20.298" transform="translate(282.041 -906.547)"/><line class="aa" x1="3.14" y1="11.661" transform="translate(274.296 -891.459)"/><path class="aa" d="M621.347,194.788A10.1,10.1,0,0,0,641.2,192.2" transform="translate(-343.911 -1074.587)"/><rect class="ab" width="16.897" height="16.897" transform="translate(137.146 -685.049)"/><rect class="c" width="16.897" height="16.897" transform="translate(128.91 -371.429)"/><line class="ab" x1="17.891" y1="17.891" transform="translate(128.319 -372.026)"/><line class="ab" y1="17.973" x2="17.973" transform="translate(128.319 -371.908)"/><circle class="e" cx="12.148" cy="12.148" r="12.148" transform="translate(422.045 -1004.667)"/><path class="ac" d="M1184.2,76.711l9.676-5.586-9.676-5.586Z" transform="translate(-753.438 -1063.457)"/><line class="ad" y2="14.692" transform="translate(332.699 -471.621)"/><line class="ad" x2="14.692" transform="translate(325.353 -464.275)"/><g class="ae" transform="translate(-87.672 -1028.041)"><path class="ai" d="M228,461.95v14.565H246.81l4.838,4.838v-19.4Z"/><path class="ak" d="M 228.9399719238281 462.8874816894531 L 228.9399719238281 475.577392578125 L 246.8102111816406 475.577392578125 L 247.1985473632812 475.577392578125 L 247.4731140136719 475.8519897460938 L 250.7110290527344 479.0899047851562 L 250.7110290527344 476.514892578125 L 250.7110290527344 462.8874816894531 L 228.9399719238281 462.8874816894531 M 228.0024719238281 461.9499816894531 L 251.6485290527344 461.9499816894531 L 251.6485290527344 476.514892578125 L 251.6485290527344 481.3532104492188 L 246.8102111816406 476.514892578125 L 228.0024719238281 476.514892578125 L 228.0024719238281 461.9499816894531 Z"/></g><line class="z" y2="16.289" transform="translate(159.706 -382.401)"/><line class="z" y2="20.155" transform="translate(154.68 -386.267)"/><path class="z" d="M282.741,919.427h6.647v8.531" transform="translate(-139.733 -1294.071)"/><path class="z" d="M313.988,937.733A10.111,10.111,0,0,0,324.1,927.622V912.546" transform="translate(-159.748 -1289.663)"/><path class="z" d="M304.086,954.486A10.117,10.117,0,0,1,293.973,964.6H282.741" transform="translate(-139.733 -1316.527)"/><path class="u" d="M47.884,589.093a6.713,6.713,0,0,1,13.426,0v15.243H73.283" transform="translate(90.411 -1411.57)"/><path class="z" d="M116.294,589.093a6.713,6.713,0,0,1,13.426,0" transform="translate(46.592 -1411.57)"/><path class="c" d="M90.626,668.995a12.966,12.966,0,0,1-25.933,0Z" transform="translate(79.644 -1467.05)"/><path class="y" d="M1628.4,98.964a5.718,5.718,0,1,1-11.437,0" transform="translate(-1166.764 -662.387)"/><path class="af" d="M1673.057,162.007a11.045,11.045,0,0,1-11.045,11.045" transform="translate(-1195.617 -702.768)"/><path class="y" d="M1669.73,98.964a5.725,5.725,0,0,1-5.718,5.718,5.793,5.793,0,0,1-5.8-5.718l-9.431,16.2h10.2" transform="translate(-1187.143 -662.387)"/><rect class="ag" width="10.197" height="6.615" transform="translate(467.568 -570.039)"/><line class="u" x1="12.536" transform="translate(261.08 -488.807)"/><line class="u" x1="5.324" transform="translate(250.624 -488.807)"/><rect class="g" width="4.516" height="4.516" transform="translate(258.514 -492) rotate(45)"/><line class="aa" y2="16.262" transform="translate(236.992 -500.172)"/><line class="aa" y2="20.121" transform="translate(242.009 -504.031)"/><path class="aa" d="M733,913.507h-8.517v8.517" transform="translate(-477.454 -1405.934)"/><path class="aa" d="M693.759,934.6a10.094,10.094,0,0,1-10.094-10.094V906.638" transform="translate(-451.31 -1401.534)"/><path class="aa" d="M683.66,956.356A10.1,10.1,0,0,0,702.5,961.4" transform="translate(-451.307 -1433.38)"/><line class="aa" y1="11.932" x2="6.809" transform="translate(251.19 -483.91)"/><g class="ah" transform="translate(184.353 -881.552)"><circle class="ai" cx="6.629" cy="6.629" r="6.629"/><circle class="aj" cx="6.629" cy="6.629" r="6.151"/></g></g></g></g></svg>