<svg xmlns="http://www.w3.org/2000/svg" width="226.76" height="25.288" viewBox="0 0 226.76 25.288"><defs><style>.a,.b{fill:#676c72;}.b{font-size:25px;font-family:Helvetica;}</style></defs><g transform="translate(-207.705 486.77)"><g transform="translate(207.705 -486.77)"><g transform="translate(0 8.467)"><path class="a" d="M-312.556-134.808l-14.666-8.467a4.155,4.155,0,0,0-2.084-.561,4.175,4.175,0,0,0-3.62,2.089,4.176,4.176,0,0,0,1.529,5.7l14.666,8.467a4.156,4.156,0,0,0,2.084.56,4.175,4.175,0,0,0,3.621-2.089,4.176,4.176,0,0,0-1.529-5.7" transform="translate(333.486 143.836)"/></g><g transform="translate(29.246 0)"><path class="a" d="M-312.553-134.808l-14.666-8.467a4.158,4.158,0,0,0-2.084-.56,4.174,4.174,0,0,0-3.62,2.089,4.176,4.176,0,0,0,1.529,5.7l14.666,8.467a4.159,4.159,0,0,0,2.084.56,4.174,4.174,0,0,0,3.621-2.089,4.176,4.176,0,0,0-1.529-5.7" transform="translate(333.484 143.836)"/></g><g transform="translate(29.247 13.315)"><path class="a" d="M-241.52-59.015l-6.845-3.952-7.24,4.18a4.176,4.176,0,0,0-1.528,5.7,4.175,4.175,0,0,0,3.621,2.089,4.156,4.156,0,0,0,2.084-.56l11.789-6.806a5.35,5.35,0,0,1-1.88-.655" transform="translate(257.693 62.967)"/></g><g transform="translate(4.966 0)"><path class="a" d="M-28.071-119.788l6.845,3.952,7.24-4.18a4.176,4.176,0,0,0,1.529-5.7,4.176,4.176,0,0,0-5.7-1.529l-11.789,6.806a5.344,5.344,0,0,1,1.88.655" transform="translate(29.951 127.81)"/></g></g><text class="b" transform="translate(270.465 -467.77)"><tspan x="0" y="0">GDG Taichung</tspan></text></g></svg>