<?xml version="1.0" encoding="UTF-8" standalone="no"?>
<svg
   xmlns:osb="http://www.openswatchbook.org/uri/2009/osb"
   xmlns:dc="http://purl.org/dc/elements/1.1/"
   xmlns:cc="http://creativecommons.org/ns#"
   xmlns:rdf="http://www.w3.org/1999/02/22-rdf-syntax-ns#"
   xmlns:svg="http://www.w3.org/2000/svg"
   xmlns="http://www.w3.org/2000/svg"
   xmlns:sodipodi="http://sodipodi.sourceforge.net/DTD/sodipodi-0.dtd"
   xmlns:inkscape="http://www.inkscape.org/namespaces/inkscape"
   width="165.864"
   height="21.24"
   viewBox="0 0 165.864 21.24"
   version="1.1"
   id="svg36"
   sodipodi:docname="gdg-cloud-mobile.svg"
   inkscape:version="0.92.4 (5da689c313, 2019-01-14)">
  <metadata
     id="metadata40">
    <rdf:RDF>
      <cc:Work
         rdf:about="">
        <dc:format>image/svg+xml</dc:format>
        <dc:type
           rdf:resource="http://purl.org/dc/dcmitype/StillImage" />
      </cc:Work>
    </rdf:RDF>
  </metadata>
  <sodipodi:namedview
     pagecolor="#ffffff"
     bordercolor="#666666"
     borderopacity="1"
     objecttolerance="10"
     gridtolerance="10"
     guidetolerance="10"
     inkscape:pageopacity="0"
     inkscape:pageshadow="2"
     inkscape:window-width="1282"
     inkscape:window-height="526"
     id="namedview38"
     showgrid="false"
     inkscape:zoom="2.4598466"
     inkscape:cx="82.931999"
     inkscape:cy="10.62"
     inkscape:window-x="127"
     inkscape:window-y="314"
     inkscape:window-maximized="0"
     inkscape:current-layer="svg36" />
  <defs
     id="defs4">
    <linearGradient
       id="linearGradient8484"
       osb:paint="solid">
      <stop
         style="stop-color:#000000;stop-opacity:1;"
         offset="0"
         id="stop8482" />
    </linearGradient>
    <style
       id="style2">.a{fill:#fff;}</style>
  </defs>
  <g
     id="g8516"
     style="fill-opacity:1">
    <g
       id="g30"
       style="fill-opacity:1">
      <g
         id="g28"
         style="fill-opacity:1">
        <g
           transform="translate(53.827,2.525)"
           id="g12"
           style="fill-opacity:1">
          <path
             class="a"
             d="m 772.174,85.178 a 7.888,7.888 0 0 1 -2.924,-2.924 8.361,8.361 0 0 1 0,-8.231 7.956,7.956 0 0 1 6.953,-3.986 8.532,8.532 0 0 1 3.217,0.607 6.469,6.469 0 0 1 2.48,1.711 l -1.321,1.321 a 4.783,4.783 0 0 0 -1.884,-1.4 6.407,6.407 0 0 0 -5.534,0.3 6.021,6.021 0 0 0 -2.274,2.231 6.887,6.887 0 0 0 0,6.65 6,6 0 0 0 2.285,2.231 6.689,6.689 0 0 0 5.664,0.3 5.851,5.851 0 0 0 1.809,-1.289 4.734,4.734 0 0 0 0.91,-1.462 6.46,6.46 0 0 0 0.433,-1.9 h -5.74 V 77.64 h 7.452 a 6.428,6.428 0 0 1 0.108,1.126 8.682,8.682 0 0 1 -0.455,2.783 6.148,6.148 0 0 1 -1.451,2.372 7.39,7.39 0 0 1 -5.7,2.318 7.924,7.924 0 0 1 -4.028,-1.061 z"
             transform="translate(-768.167,-70.037)"
             id="path6"
             style="fill-opacity:1"
             inkscape:connector-curvature="0" />
          <path
             class="a"
             d="m 1023.332,74.968 h 4.679 a 8.436,8.436 0 0 1 4.159,0.986 6.789,6.789 0 0 1 2.729,2.74 8.994,8.994 0 0 1 0,8.058 6.786,6.786 0 0 1 -2.729,2.74 8.433,8.433 0 0 1 -4.159,0.986 h -4.679 z m 4.679,13.754 a 5.967,5.967 0 0 0 4.365,-1.581 6.857,6.857 0 0 0 0,-8.837 5.969,5.969 0 0 0 -4.365,-1.581 h -2.859 v 12 z"
             transform="translate(-1005.397,-74.621)"
             id="path8"
             style="fill-opacity:1"
             inkscape:connector-curvature="0" />
          <path
             class="a"
             d="m 1227.032,85.178 a 7.886,7.886 0 0 1 -2.924,-2.924 8.361,8.361 0 0 1 0,-8.231 7.956,7.956 0 0 1 6.953,-3.986 8.533,8.533 0 0 1 3.217,0.607 6.469,6.469 0 0 1 2.48,1.711 l -1.321,1.321 a 4.783,4.783 0 0 0 -1.884,-1.4 6.407,6.407 0 0 0 -5.534,0.3 6.019,6.019 0 0 0 -2.274,2.231 6.888,6.888 0 0 0 0,6.65 5.993,5.993 0 0 0 2.285,2.231 6.689,6.689 0 0 0 5.664,0.3 5.85,5.85 0 0 0 1.809,-1.289 4.729,4.729 0 0 0 0.91,-1.462 6.458,6.458 0 0 0 0.433,-1.9 h -5.74 V 77.64 h 7.451 a 6.452,6.452 0 0 1 0.108,1.126 8.682,8.682 0 0 1 -0.455,2.783 6.147,6.147 0 0 1 -1.451,2.372 7.39,7.39 0 0 1 -5.7,2.318 7.924,7.924 0 0 1 -4.027,-1.061 z"
             transform="translate(-1191.055,-70.037)"
             id="path10"
             style="fill-opacity:1"
             inkscape:connector-curvature="0" />
        </g>
        <g
           id="g26"
           style="fill-opacity:1">
          <path
             class="a"
             d="M 19.922,142.874 7.6,135.763 a 3.507,3.507 0 1 0 -3.5,6.075 l 12.318,7.112 a 3.508,3.508 0 1 0 3.508,-6.075 z"
             transform="translate(-2.343,-128.18)"
             id="path14"
             style="fill-opacity:1"
             inkscape:connector-curvature="0" />
          <path
             class="a"
             d="m 369.409,41.7 -12.318,-7.112 a 3.508,3.508 0 1 0 -3.508,6.075 L 365.9,47.77 a 3.5075522,3.5075522 0 1 0 3.508,-6.075 z"
             transform="translate(-327.265,-34.113)"
             id="path16"
             style="fill-opacity:1"
             inkscape:connector-curvature="0" />
          <g
             transform="translate(24.564,11.183)"
             id="g20"
             style="fill-opacity:1">
            <path
               class="a"
               d="m 365.414,196.538 -5.749,-3.319 -6.081,3.511 a 3.508,3.508 0 1 0 3.508,6.075 l 9.9,-5.717 a 4.492,4.492 0 0 1 -1.578,-0.55 z"
               transform="translate(-351.83,-193.219)"
               id="path18"
               style="fill-opacity:1"
               inkscape:connector-curvature="0" />
          </g>
          <g
             transform="translate(4.171)"
             id="g24"
             style="fill-opacity:1">
            <path
               class="a"
               d="m 63.261,40.85 5.749,3.319 6.081,-3.511 a 3.508,3.508 0 0 0 -3.508,-6.075 l -9.9,5.717 a 4.489,4.489 0 0 1 1.578,0.55 z"
               transform="translate(-61.682,-34.112)"
               id="path22"
               style="fill-opacity:1"
               inkscape:connector-curvature="0" />
          </g>
        </g>
      </g>
    </g>
    <path
       class="a"
       d="m 114.378,18.39 a 7.763,7.763 0 0 1 -3.948,-1.029 7.419,7.419 0 0 1 -2.8,-2.835 7.982,7.982 0 0 1 -1.018,-3.99 7.982,7.982 0 0 1 1.018,-3.99 7.419,7.419 0 0 1 2.8,-2.835 7.763,7.763 0 0 1 3.948,-1.029 7.343,7.343 0 0 1 3.1,0.641 6.947,6.947 0 0 1 2.4,1.816 l -1.26,1.239 a 5.346,5.346 0 0 0 -1.88,-1.512 5.544,5.544 0 0 0 -2.362,-0.483 5.988,5.988 0 0 0 -2.982,0.767 5.707,5.707 0 0 0 -2.174,2.163 6.317,6.317 0 0 0 -0.809,3.223 6.317,6.317 0 0 0 0.809,3.224 5.707,5.707 0 0 0 2.174,2.163 5.988,5.988 0 0 0 2.982,0.766 5.9,5.9 0 0 0 4.659,-2.247 l 1.281,1.26 a 7.375,7.375 0 0 1 -2.557,1.963 7.812,7.812 0 0 1 -3.381,0.725 z m 7.9,-15.372 h 1.785 v 15.036 h -1.785 z m 9.026,15.372 a 5.278,5.278 0 0 1 -2.751,-0.725 5.062,5.062 0 0 1 -1.9,-2 5.872,5.872 0 0 1 -0.682,-2.824 5.872,5.872 0 0 1 0.682,-2.825 5.062,5.062 0 0 1 1.9,-1.995 5.278,5.278 0 0 1 2.751,-0.725 5.333,5.333 0 0 1 2.761,0.725 5.04,5.04 0 0 1 1.911,2 5.872,5.872 0 0 1 0.682,2.825 5.872,5.872 0 0 1 -0.682,2.824 5.04,5.04 0 0 1 -1.911,2 5.333,5.333 0 0 1 -2.761,0.72 z m 0,-1.617 a 3.413,3.413 0 0 0 1.764,-0.483 3.551,3.551 0 0 0 1.312,-1.375 4.205,4.205 0 0 0 0.493,-2.068 4.205,4.205 0 0 0 -0.493,-2.07 3.551,3.551 0 0 0 -1.312,-1.375 3.413,3.413 0 0 0 -1.764,-0.483 3.376,3.376 0 0 0 -1.743,0.483 3.551,3.551 0 0 0 -1.313,1.375 4.205,4.205 0 0 0 -0.493,2.069 4.205,4.205 0 0 0 0.494,2.068 3.551,3.551 0 0 0 1.312,1.376 3.376,3.376 0 0 0 1.743,0.483 z m 11.109,1.617 a 3.731,3.731 0 0 1 -2.93,-1.113 4.462,4.462 0 0 1 -1,-3.087 V 7.638 h 1.788 v 6.258 q 0,2.877 2.583,2.877 a 2.607,2.607 0 0 0 1.543,-0.483 3.18,3.18 0 0 0 1.05,-1.26 3.785,3.785 0 0 0 0.368,-1.638 V 7.638 h 1.764 v 10.416 h -1.68 V 16.5 h -0.084 a 3.746,3.746 0 0 1 -1.4,1.344 3.909,3.909 0 0 1 -2.002,0.546 z m 12.054,0 a 4.561,4.561 0 0 1 -2.478,-0.714 5.114,5.114 0 0 1 -1.806,-1.984 5.991,5.991 0 0 1 -0.672,-2.845 5.991,5.991 0 0 1 0.672,-2.846 5.114,5.114 0 0 1 1.806,-1.984 4.561,4.561 0 0 1 2.478,-0.714 4.428,4.428 0 0 1 2.184,0.536 3.785,3.785 0 0 1 1.449,1.333 h 0.084 L 158.1,7.744 V 3.019 h 1.764 v 15.035 h -1.68 V 16.5 H 158.1 a 3.725,3.725 0 0 1 -1.45,1.354 4.428,4.428 0 0 1 -2.184,0.536 z m 0.268,-1.617 a 3.267,3.267 0 0 0 1.711,-0.472 3.389,3.389 0 0 0 1.26,-1.376 4.419,4.419 0 0 0 0.473,-2.079 4.4,4.4 0 0 0 -0.473,-2.09 3.4,3.4 0 0 0 -1.26,-1.365 3.267,3.267 0 0 0 -1.711,-0.472 3.213,3.213 0 0 0 -1.712,0.483 3.481,3.481 0 0 0 -1.26,1.376 4.356,4.356 0 0 0 -0.472,2.069 4.356,4.356 0 0 0 0.472,2.068 3.481,3.481 0 0 0 1.26,1.375 3.213,3.213 0 0 0 1.712,0.483 z"
       id="path32"
       style="fill-opacity:1"
       inkscape:connector-curvature="0" />
  </g>
</svg>
