<svg id="Group_101" data-name="Group 101" xmlns="http://www.w3.org/2000/svg" width="101.436" height="21.24" viewBox="0 0 101.436 21.24">
  <g id="Group_5" data-name="Group 5" transform="translate(0 0)">
    <g id="Group_1" data-name="Group 1" transform="translate(53.827 2.525)">
      <path id="Path_1" data-name="Path 1" d="M772.174,85.178a7.888,7.888,0,0,1-2.924-2.924,8.361,8.361,0,0,1,0-8.231,7.956,7.956,0,0,1,6.953-3.986,8.532,8.532,0,0,1,3.217.607,6.469,6.469,0,0,1,2.48,1.711l-1.321,1.321a4.783,4.783,0,0,0-1.884-1.4,6.407,6.407,0,0,0-5.534.3,6.021,6.021,0,0,0-2.274,2.231,6.887,6.887,0,0,0,0,6.65,6,6,0,0,0,2.285,2.231,6.689,6.689,0,0,0,5.664.3,5.851,5.851,0,0,0,1.809-1.289,4.734,4.734,0,0,0,.91-1.462,6.46,6.46,0,0,0,.433-1.9h-5.74V77.64H783.7a6.428,6.428,0,0,1,.108,1.126,8.682,8.682,0,0,1-.455,2.783,6.148,6.148,0,0,1-1.451,2.372,7.39,7.39,0,0,1-5.7,2.318A7.924,7.924,0,0,1,772.174,85.178Z" transform="translate(-768.167 -70.037)" fill="#fff"/>
      <path id="Path_2" data-name="Path 2" d="M1023.332,74.968h4.679a8.436,8.436,0,0,1,4.159.986,6.789,6.789,0,0,1,2.729,2.74,8.994,8.994,0,0,1,0,8.058,6.786,6.786,0,0,1-2.729,2.74,8.433,8.433,0,0,1-4.159.986h-4.679Zm4.679,13.754a5.967,5.967,0,0,0,4.365-1.581,6.857,6.857,0,0,0,0-8.837,5.969,5.969,0,0,0-4.365-1.581h-2.859v12Z" transform="translate(-1005.397 -74.621)" fill="#fff"/>
      <path id="Path_3" data-name="Path 3" d="M1227.032,85.178a7.886,7.886,0,0,1-2.924-2.924,8.361,8.361,0,0,1,0-8.231,7.956,7.956,0,0,1,6.953-3.986,8.533,8.533,0,0,1,3.217.607,6.469,6.469,0,0,1,2.48,1.711l-1.321,1.321a4.783,4.783,0,0,0-1.884-1.4,6.407,6.407,0,0,0-5.534.3,6.019,6.019,0,0,0-2.274,2.231,6.888,6.888,0,0,0,0,6.65,5.993,5.993,0,0,0,2.285,2.231,6.689,6.689,0,0,0,5.664.3,5.85,5.85,0,0,0,1.809-1.289,4.729,4.729,0,0,0,.91-1.462,6.458,6.458,0,0,0,.433-1.9h-5.74V77.64h7.451a6.452,6.452,0,0,1,.108,1.126,8.682,8.682,0,0,1-.455,2.783,6.147,6.147,0,0,1-1.451,2.372,7.39,7.39,0,0,1-5.7,2.318A7.924,7.924,0,0,1,1227.032,85.178Z" transform="translate(-1191.055 -70.037)" fill="#fff"/>
    </g>
    <g id="Group_4" data-name="Group 4" transform="translate(0)">
      <path id="Path_4" data-name="Path 4" d="M19.922,142.874,7.6,135.763A3.507,3.507,0,1,0,4.1,141.838l12.318,7.112a3.508,3.508,0,1,0,3.508-6.075Z" transform="translate(-2.343 -128.18)" fill="#fff"/>
      <path id="Path_5" data-name="Path 5" d="M369.409,41.7l-12.318-7.112a3.508,3.508,0,1,0-3.508,6.075L365.9,47.77a3.507,3.507,0,1,0,3.508-6.075Z" transform="translate(-327.265 -34.113)" fill="#fff"/>
      <g id="Group_2" data-name="Group 2" transform="translate(24.564 11.183)">
        <path id="Path_6" data-name="Path 6" d="M365.414,196.538l-5.749-3.319-6.081,3.511a3.508,3.508,0,1,0,3.508,6.075l9.9-5.717A4.492,4.492,0,0,1,365.414,196.538Z" transform="translate(-351.83 -193.219)" fill="#fff"/>
      </g>
      <g id="Group_3" data-name="Group 3" transform="translate(4.171)">
        <path id="Path_7" data-name="Path 7" d="M63.261,40.85l5.749,3.319,6.081-3.511a3.508,3.508,0,0,0-3.508-6.075l-9.9,5.717A4.489,4.489,0,0,1,63.261,40.85Z" transform="translate(-61.682 -34.112)" fill="#fff"/>
      </g>
    </g>
  </g>
</svg>
