<?xml version="1.0" encoding="UTF-8" standalone="no"?>
<svg
   xmlns:dc="http://purl.org/dc/elements/1.1/"
   xmlns:cc="http://creativecommons.org/ns#"
   xmlns:rdf="http://www.w3.org/1999/02/22-rdf-syntax-ns#"
   xmlns:svg="http://www.w3.org/2000/svg"
   xmlns="http://www.w3.org/2000/svg"
   xmlns:sodipodi="http://sodipodi.sourceforge.net/DTD/sodipodi-0.dtd"
   xmlns:inkscape="http://www.inkscape.org/namespaces/inkscape"
   width="335.489"
   height="42.239"
   viewBox="0 0 335.489 42.239"
   version="1.1"
   id="svg36"
   sodipodi:docname="gdg-cloud.svg"
   inkscape:version="0.92.4 (5da689c313, 2019-01-14)">
  <metadata
     id="metadata40">
    <rdf:RDF>
      <cc:Work
         rdf:about="">
        <dc:format>image/svg+xml</dc:format>
        <dc:type
           rdf:resource="http://purl.org/dc/dcmitype/StillImage" />
      </cc:Work>
    </rdf:RDF>
  </metadata>
  <sodipodi:namedview
     pagecolor="#ffffff"
     bordercolor="#666666"
     borderopacity="1"
     objecttolerance="10"
     gridtolerance="10"
     guidetolerance="10"
     inkscape:pageopacity="0"
     inkscape:pageshadow="2"
     inkscape:window-width="1383"
     inkscape:window-height="859"
     id="namedview38"
     showgrid="false"
     inkscape:zoom="1.2161352"
     inkscape:cx="167.74451"
     inkscape:cy="21.119499"
     inkscape:window-x="0"
     inkscape:window-y="0"
     inkscape:window-maximized="0"
     inkscape:current-layer="svg36" />
  <defs
     id="defs4">
    <style
       id="style2">.a{fill:#fff;}</style>
  </defs>
  <g
     id="g4837"
     style="fill-opacity:1;">
    <g
       transform="translate(-2.342,-34.112)"
       id="g30"
       style="fill-opacity:1;">
      <g
         transform="translate(2.343,34.112)"
         id="g28"
         style="fill-opacity:1;">
        <g
           transform="translate(107.045,5.021)"
           id="g12"
           style="fill-opacity:1;">
          <path
             class="a"
             d="m 776.136,100.147 a 15.686,15.686 0 0 1 -5.815,-5.815 16.627,16.627 0 0 1 0,-16.369 15.823,15.823 0 0 1 13.827,-7.926 16.968,16.968 0 0 1 6.4,1.206 12.864,12.864 0 0 1 4.932,3.4 l -2.628,2.628 A 9.511,9.511 0 0 0 789.1,74.5 a 12.742,12.742 0 0 0 -11.006,0.6 11.973,11.973 0 0 0 -4.523,4.437 13.7,13.7 0 0 0 0,13.224 11.923,11.923 0 0 0 4.544,4.437 13.3,13.3 0 0 0 11.264,0.6 11.636,11.636 0 0 0 3.6,-2.563 9.414,9.414 0 0 0 1.809,-2.908 12.845,12.845 0 0 0 0.861,-3.769 h -11.415 v -3.4 h 14.818 a 12.8,12.8 0 0 1 0.215,2.24 17.264,17.264 0 0 1 -0.9,5.535 12.226,12.226 0 0 1 -2.886,4.717 14.7,14.7 0 0 1 -11.329,4.609 15.758,15.758 0 0 1 -8.016,-2.112 z"
             transform="translate(-768.167,-70.037)"
             id="path6"
             style="fill-opacity:1;"
             inkscape:connector-curvature="0" />
          <path
             class="a"
             d="m 1023.332,74.968 h 9.3 a 16.776,16.776 0 0 1 8.271,1.96 13.5,13.5 0 0 1 5.428,5.449 17.884,17.884 0 0 1 0,16.024 13.492,13.492 0 0 1 -5.428,5.449 16.77,16.77 0 0 1 -8.271,1.96 h -9.3 z m 9.3,27.353 a 11.866,11.866 0 0 0 8.68,-3.145 q 3.209,-3.144 3.209,-8.787 0,-5.643 -3.209,-8.788 a 11.869,11.869 0 0 0 -8.68,-3.144 h -5.686 v 23.864 z"
             transform="translate(-987.666,-74.279)"
             id="path8"
             style="fill-opacity:1;"
             inkscape:connector-curvature="0" />
          <path
             class="a"
             d="m 1230.994,100.147 a 15.684,15.684 0 0 1 -5.815,-5.815 16.627,16.627 0 0 1 0,-16.369 15.823,15.823 0 0 1 13.827,-7.926 16.969,16.969 0 0 1 6.4,1.206 12.865,12.865 0 0 1 4.932,3.4 l -2.628,2.628 a 9.511,9.511 0 0 0 -3.747,-2.778 12.742,12.742 0 0 0 -11.006,0.6 11.971,11.971 0 0 0 -4.523,4.437 13.7,13.7 0 0 0 0,13.224 11.919,11.919 0 0 0 4.544,4.437 13.3,13.3 0 0 0 11.264,0.6 11.63,11.63 0 0 0 3.6,-2.563 9.408,9.408 0 0 0 1.809,-2.908 12.843,12.843 0 0 0 0.862,-3.769 h -11.415 v -3.4 h 14.818 a 12.812,12.812 0 0 1 0.215,2.24 17.265,17.265 0 0 1 -0.9,5.535 12.226,12.226 0 0 1 -2.886,4.717 14.7,14.7 0 0 1 -11.329,4.609 15.757,15.757 0 0 1 -8.022,-2.105 z"
             transform="translate(-1159.446,-70.037)"
             id="path10"
             style="fill-opacity:1;"
             inkscape:connector-curvature="0" />
        </g>
        <g
           id="g26"
           style="fill-opacity:1;">
          <path
             class="a"
             d="M 37.3,150.371 12.8,136.228 A 6.975,6.975 0 1 0 5.831,148.31 l 24.5,14.143 A 6.975,6.975 0 1 0 37.3,150.371 Z"
             transform="translate(-2.343,-121.149)"
             id="path14"
             style="fill-opacity:1;"
             inkscape:connector-curvature="0" />
          <path
             class="a"
             d="m 386.79,49.192 -24.5,-14.143 a 6.9754095,6.9754095 0 1 0 -6.975,12.082 l 24.5,14.143 a 6.9754095,6.9754095 0 1 0 6.975,-12.082 z"
             transform="translate(-302.979,-34.113)"
             id="path16"
             style="fill-opacity:1;"
             inkscape:connector-curvature="0" />
          <g
             transform="translate(48.85,22.24)"
             id="g20"
             style="fill-opacity:1;">
            <path
               class="a"
               d="m 378.844,199.82 -11.433,-6.6 -12.093,6.98 a 6.9754095,6.9754095 0 1 0 6.975,12.082 l 19.691,-11.368 a 8.933,8.933 0 0 1 -3.14,-1.094 z"
               transform="translate(-351.83,-193.219)"
               id="path18"
               style="fill-opacity:1;"
               inkscape:connector-curvature="0" />
          </g>
          <g
             transform="translate(8.294)"
             id="g24"
             style="fill-opacity:1;">
            <path
               class="a"
               d="m 64.822,47.511 11.433,6.6 12.093,-6.981 A 6.9754095,6.9754095 0 0 0 81.373,35.048 L 61.682,46.416 a 8.927,8.927 0 0 1 3.14,1.095 z"
               transform="translate(-61.682,-34.112)"
               id="path22"
               style="fill-opacity:1;"
               inkscape:connector-curvature="0" />
          </g>
        </g>
      </g>
    </g>
    <path
       class="a"
       d="m 228.517,36.849965 a 15.526,15.526 0 0 1 -7.9,-2.058 14.839,14.839 0 0 1 -5.607,-5.67 15.963,15.963 0 0 1 -2.037,-7.98 15.963,15.963 0 0 1 2.037,-7.98 14.839,14.839 0 0 1 5.607,-5.6699996 15.526,15.526 0 0 1 7.9,-2.058 14.685,14.685 0 0 1 6.195,1.281 13.894,13.894 0 0 1 4.809,3.6329996 l -2.52,2.478 a 10.692,10.692 0 0 0 -3.759,-3.0239996 11.089,11.089 0 0 0 -4.725,-0.966 11.975,11.975 0 0 0 -5.964,1.5329996 11.415,11.415 0 0 0 -4.347,4.326 12.633,12.633 0 0 0 -1.617,6.447 12.633,12.633 0 0 0 1.617,6.447 11.415,11.415 0 0 0 4.347,4.326 11.975,11.975 0 0 0 5.964,1.533 11.8,11.8 0 0 0 9.324,-4.494 l 2.562,2.52 a 14.75,14.75 0 0 1 -5.124,3.927 15.625,15.625 0 0 1 -6.762,1.449 z M 244.309,6.1059654 h 3.57 V 36.177965 h -3.57 z m 18.06,30.7439996 a 10.555,10.555 0 0 1 -5.5,-1.449 10.124,10.124 0 0 1 -3.8,-3.99 11.745,11.745 0 0 1 -1.365,-5.649 11.745,11.745 0 0 1 1.365,-5.649 10.124,10.124 0 0 1 3.8,-3.99 10.555,10.555 0 0 1 5.5,-1.449 10.667,10.667 0 0 1 5.523,1.449 10.079,10.079 0 0 1 3.822,3.99 11.745,11.745 0 0 1 1.365,5.649 11.745,11.745 0 0 1 -1.365,5.649 10.079,10.079 0 0 1 -3.822,3.99 10.667,10.667 0 0 1 -5.523,1.449 z m 0,-3.234 a 6.826,6.826 0 0 0 3.528,-0.966 7.1,7.1 0 0 0 2.625,-2.751 8.41,8.41 0 0 0 0.987,-4.137 8.41,8.41 0 0 0 -0.987,-4.137 7.1,7.1 0 0 0 -2.625,-2.747 6.826,6.826 0 0 0 -3.528,-0.966 6.752,6.752 0 0 0 -3.486,0.966 7.1,7.1 0 0 0 -2.625,2.751 8.41,8.41 0 0 0 -0.987,4.137 8.41,8.41 0 0 0 0.987,4.137 7.1,7.1 0 0 0 2.625,2.747 6.752,6.752 0 0 0 3.486,0.966 z m 22.218,3.234 a 7.461,7.461 0 0 1 -5.855,-2.226 8.923,8.923 0 0 1 -2,-6.174 v -13.1 h 3.57 v 12.512 q 0,5.754 5.166,5.754 a 5.214,5.214 0 0 0 3.087,-0.966 6.36,6.36 0 0 0 2.1,-2.52 7.57,7.57 0 0 0 0.735,-3.276 v -11.508 h 3.528 v 20.832 h -3.36 v -3.108 h -0.168 a 7.491,7.491 0 0 1 -2.792,2.688 7.818,7.818 0 0 1 -4.011,1.092 z m 24.108,0 a 9.122,9.122 0 0 1 -4.956,-1.428 10.228,10.228 0 0 1 -3.612,-3.969 11.982,11.982 0 0 1 -1.344,-5.691 11.982,11.982 0 0 1 1.344,-5.691 10.228,10.228 0 0 1 3.612,-3.969 9.122,9.122 0 0 1 4.956,-1.424 8.856,8.856 0 0 1 4.368,1.071 7.57,7.57 0 0 1 2.9,2.667 h 0.169 l -0.168,-2.856 V 6.1099654 h 3.528 V 36.177965 h -3.36 v -3.108 h -0.168 a 7.45,7.45 0 0 1 -2.901,2.708 8.856,8.856 0 0 1 -4.368,1.072 z m 0.546,-3.234 a 6.533,6.533 0 0 0 3.423,-0.945 6.778,6.778 0 0 0 2.52,-2.751 8.838,8.838 0 0 0 0.945,-4.158 8.806,8.806 0 0 0 -0.945,-4.179 6.808,6.808 0 0 0 -2.52,-2.73 6.533,6.533 0 0 0 -3.423,-0.945 6.426,6.426 0 0 0 -3.423,0.966 6.961,6.961 0 0 0 -2.52,2.751 8.713,8.713 0 0 0 -0.945,4.137 8.713,8.713 0 0 0 0.945,4.137 6.961,6.961 0 0 0 2.52,2.751 6.426,6.426 0 0 0 3.423,0.966 z"
       id="path32"
       style="fill-opacity:1;"
       inkscape:connector-curvature="0" />
  </g>
</svg>
