<svg xmlns="http://www.w3.org/2000/svg" width="201.724" height="42.239" viewBox="0 0 201.724 42.239">
  <g id="Group_35" data-name="Group 35" transform="translate(-2.343 -34.112)">
    <g id="Group_5" data-name="Group 5" transform="translate(2.343 34.112)">
      <g id="Group_1" data-name="Group 1" transform="translate(107.045 5.021)">
        <path id="Path_1" data-name="Path 1" d="M776.136,100.147a15.686,15.686,0,0,1-5.815-5.815,16.627,16.627,0,0,1,0-16.369,15.823,15.823,0,0,1,13.827-7.926,16.968,16.968,0,0,1,6.4,1.206,12.864,12.864,0,0,1,4.932,3.4l-2.628,2.628A9.511,9.511,0,0,0,789.1,74.5a12.742,12.742,0,0,0-11.006.6,11.973,11.973,0,0,0-4.523,4.437,13.7,13.7,0,0,0,0,13.224,11.923,11.923,0,0,0,4.544,4.437,13.3,13.3,0,0,0,11.264.6,11.636,11.636,0,0,0,3.6-2.563,9.414,9.414,0,0,0,1.809-2.908,12.845,12.845,0,0,0,.861-3.769H784.234v-3.4h14.818a12.8,12.8,0,0,1,.215,2.24,17.264,17.264,0,0,1-.9,5.535,12.226,12.226,0,0,1-2.886,4.717,14.7,14.7,0,0,1-11.329,4.609A15.758,15.758,0,0,1,776.136,100.147Z" transform="translate(-768.167 -70.037)" fill="#fff"/>
        <path id="Path_2" data-name="Path 2" d="M1023.332,74.968h9.3a16.776,16.776,0,0,1,8.271,1.96,13.5,13.5,0,0,1,5.428,5.449,17.884,17.884,0,0,1,0,16.024,13.492,13.492,0,0,1-5.428,5.449,16.77,16.77,0,0,1-8.271,1.96h-9.3Zm9.3,27.353a11.866,11.866,0,0,0,8.68-3.145q3.209-3.144,3.209-8.787t-3.209-8.788a11.869,11.869,0,0,0-8.68-3.144h-5.686v23.864Z" transform="translate(-987.666 -74.279)" fill="#fff"/>
        <path id="Path_3" data-name="Path 3" d="M1230.994,100.147a15.684,15.684,0,0,1-5.815-5.815,16.627,16.627,0,0,1,0-16.369,15.823,15.823,0,0,1,13.827-7.926,16.969,16.969,0,0,1,6.4,1.206,12.865,12.865,0,0,1,4.932,3.4l-2.628,2.628a9.511,9.511,0,0,0-3.747-2.778,12.742,12.742,0,0,0-11.006.6,11.971,11.971,0,0,0-4.523,4.437,13.7,13.7,0,0,0,0,13.224,11.919,11.919,0,0,0,4.544,4.437,13.3,13.3,0,0,0,11.264.6,11.63,11.63,0,0,0,3.6-2.563,9.408,9.408,0,0,0,1.809-2.908,12.843,12.843,0,0,0,.862-3.769h-11.415v-3.4h14.818a12.812,12.812,0,0,1,.215,2.24,17.265,17.265,0,0,1-.9,5.535,12.226,12.226,0,0,1-2.886,4.717,14.7,14.7,0,0,1-11.329,4.609A15.757,15.757,0,0,1,1230.994,100.147Z" transform="translate(-1159.446 -70.037)" fill="#fff"/>
      </g>
      <g id="Group_4" data-name="Group 4" transform="translate(0)">
        <path id="Path_4" data-name="Path 4" d="M37.3,150.371l-24.5-14.143A6.975,6.975,0,1,0,5.831,148.31l24.5,14.143A6.975,6.975,0,1,0,37.3,150.371Z" transform="translate(-2.343 -121.149)" fill="#fff"/>
        <path id="Path_5" data-name="Path 5" d="M386.79,49.192l-24.5-14.143a6.975,6.975,0,1,0-6.975,12.082l24.5,14.143a6.975,6.975,0,1,0,6.975-12.082Z" transform="translate(-302.979 -34.113)" fill="#fff"/>
        <g id="Group_2" data-name="Group 2" transform="translate(48.85 22.24)">
          <path id="Path_6" data-name="Path 6" d="M378.844,199.82l-11.433-6.6L355.318,200.2a6.975,6.975,0,1,0,6.975,12.082l19.691-11.368A8.933,8.933,0,0,1,378.844,199.82Z" transform="translate(-351.83 -193.219)" fill="#fff"/>
        </g>
        <g id="Group_3" data-name="Group 3" transform="translate(8.294)">
          <path id="Path_7" data-name="Path 7" d="M64.822,47.511l11.433,6.6L88.348,47.13a6.975,6.975,0,0,0-6.975-12.082L61.682,46.416A8.927,8.927,0,0,1,64.822,47.511Z" transform="translate(-61.682 -34.112)" fill="#fff"/>
        </g>
      </g>
    </g>
  </g>
</svg>
