<svg xmlns="http://www.w3.org/2000/svg" width="191.395" height="40.076" viewBox="0 0 191.395 40.076"><defs><style>.a{fill:#174ea6;}</style></defs><g transform="translate(-2.343 -34.112)"><g transform="translate(2.343 34.112)"><g transform="translate(101.563 4.764)"><path class="a" d="M775.728,98.605a14.882,14.882,0,0,1-5.517-5.517,15.776,15.776,0,0,1,0-15.531,15.013,15.013,0,0,1,13.119-7.52,16.1,16.1,0,0,1,6.069,1.144,12.206,12.206,0,0,1,4.68,3.229L791.586,76.9a9.024,9.024,0,0,0-3.556-2.636,12.09,12.09,0,0,0-10.442.572,11.36,11.36,0,0,0-4.291,4.21,13,13,0,0,0,0,12.547,11.312,11.312,0,0,0,4.312,4.21,12.621,12.621,0,0,0,10.688.572,11.04,11.04,0,0,0,3.413-2.432,8.931,8.931,0,0,0,1.716-2.759,12.184,12.184,0,0,0,.817-3.576H783.411V84.382h14.059a12.147,12.147,0,0,1,.2,2.125,16.381,16.381,0,0,1-.858,5.252,11.6,11.6,0,0,1-2.738,4.475,13.944,13.944,0,0,1-10.749,4.373A14.951,14.951,0,0,1,775.728,98.605Z" transform="translate(-768.167 -70.037)"/><path class="a" d="M1023.332,74.968h8.828a15.917,15.917,0,0,1,7.847,1.86,12.807,12.807,0,0,1,5.15,5.17,16.967,16.967,0,0,1,0,15.2,12.8,12.8,0,0,1-5.15,5.17,15.911,15.911,0,0,1-7.847,1.86h-8.828Zm8.828,25.952a11.258,11.258,0,0,0,8.235-2.984q3.044-2.983,3.045-8.337t-3.045-8.338a11.261,11.261,0,0,0-8.235-2.983h-5.395V100.92Z" transform="translate(-989.492 -74.314)"/><path class="a" d="M1230.586,98.605a14.881,14.881,0,0,1-5.517-5.517,15.776,15.776,0,0,1,0-15.531,15.012,15.012,0,0,1,13.119-7.52,16.1,16.1,0,0,1,6.069,1.144,12.206,12.206,0,0,1,4.68,3.229l-2.493,2.493a9.025,9.025,0,0,0-3.556-2.636,12.089,12.089,0,0,0-10.442.572,11.358,11.358,0,0,0-4.291,4.21,13,13,0,0,0,0,12.547,11.309,11.309,0,0,0,4.312,4.21,12.62,12.62,0,0,0,10.688.572,11.033,11.033,0,0,0,3.412-2.432,8.926,8.926,0,0,0,1.717-2.759,12.188,12.188,0,0,0,.818-3.576h-10.831V84.382h14.059a12.164,12.164,0,0,1,.2,2.125,16.381,16.381,0,0,1-.858,5.252,11.6,11.6,0,0,1-2.738,4.475,13.944,13.944,0,0,1-10.749,4.373A14.951,14.951,0,0,1,1230.586,98.605Z" transform="translate(-1162.702 -70.037)"/></g><g transform="translate(0)"><path class="a" d="M35.513,149.6,12.271,136.18a6.618,6.618,0,1,0-6.618,11.463l23.242,13.418A6.618,6.618,0,1,0,35.513,149.6Z" transform="translate(-2.343 -121.874)"/><path class="a" d="M385,48.42,361.758,35a6.618,6.618,0,1,0-6.618,11.463l23.242,13.419A6.618,6.618,0,1,0,385,48.42Z" transform="translate(-305.481 -34.113)"/><g transform="translate(46.349 21.101)"><path class="a" d="M377.461,199.482l-10.847-6.263-11.474,6.624a6.618,6.618,0,1,0,6.618,11.463l18.683-10.786A8.475,8.475,0,0,1,377.461,199.482Z" transform="translate(-351.83 -193.219)"/></g><g transform="translate(7.87)"><path class="a" d="M64.661,46.825l10.848,6.263,11.474-6.624A6.618,6.618,0,0,0,80.364,35L61.682,45.786A8.47,8.47,0,0,1,64.661,46.825Z" transform="translate(-61.682 -34.112)"/></g></g></g></g></svg>