<svg xmlns="http://www.w3.org/2000/svg" width="1844.845" height="1021.849" viewBox="0 0 1844.845 1021.849"><defs><style>.a,.ab,.ac,.ad,.ae,.af,.ag,.ah,.ak,.b,.f,.k,.l,.m,.n,.o,.p,.q,.r,.s,.t,.u,.v,.w,.x,.y{fill:none;}.a,.n{stroke:#a8dab5;}.a,.ab,.ac,.ad,.ae,.af,.ag,.ah,.b,.f,.k,.l,.m,.n,.o,.p,.q,.r,.s,.t,.u,.v,.w,.x,.y{stroke-miterlimit:10;}.a{stroke-width:0.701px;}.ab,.b{stroke:#fde293;}.b,.f,.r,.s,.t,.u,.v,.w,.y{stroke-width:0.938px;}.c{fill:#fad2cf;}.d{fill:#fde293;}.e{fill:#aecbfa;}.f{stroke:#4285f4;}.g{fill:#fbbc04;}.h{fill:#4285f4;}.al,.i{fill:#ea4335;}.j{fill:#a8dab5;}.k,.q,.w{stroke:#aecbfa;}.k,.l,.m,.n,.o,.p{stroke-width:0.938px;}.l,.r{stroke:#ea4335;}.m{stroke:#1e8e3e;}.ae,.o{stroke:#174ea6;}.ad,.p{stroke:#e37400;}.q{stroke-width:0.934px;}.s{stroke:#34a853;}.t{stroke:#fbbc04;}.u{stroke:#fff;}.v{stroke:#f9ab00;}.y{stroke:#fad2cf;}.z{fill:#fff;}.aa{fill:#34a853;}.ab{stroke-width:0.957px;}.ac{stroke:#0d652d;}.ac,.ad,.ae,.af{stroke-width:0.938px;}.af,.ag{stroke:#a50e0e;}.ag{stroke-width:0.934px;}.ah{stroke:#202124;stroke-width:0.86px;}.ai{fill:#174ea6;}.aj,.al{stroke:none;}</style></defs><g transform="translate(-31.353 -33.6)"><line class="a" y1="26.085" transform="translate(1831.196 560.69)"/><line class="a" y1="12.884" transform="translate(1831.196 537.128)"/><circle class="a" cx="5.339" cy="5.339" r="5.339" transform="translate(1825.857 550.012)"/><g class="b" transform="translate(1654.128 284.324)"><ellipse class="aj" cx="19.23" cy="48.654" rx="19.23" ry="48.654"/><ellipse class="ak" cx="19.23" cy="48.654" rx="18.761" ry="48.185"/></g><line class="b" x2="92.147" transform="translate(1627.385 316.76)"/><g class="b" transform="translate(1624.704 284.324)"><circle class="aj" cx="48.654" cy="48.654" r="48.654"/><circle class="ak" cx="48.654" cy="48.654" r="48.185"/></g><line class="b" x2="91.566" transform="translate(1627.677 349.196)"/><path class="c" d="M1739.786,754.385,1700.9,687.031l-38.887,67.355"/><rect class="d" width="29.774" height="11.223" transform="translate(532.167 860.241)"/><rect class="c" width="45.526" height="112.323" transform="translate(838.671 33.6)"/><rect class="e" width="45.526" height="112.323" transform="translate(1864.845 843.912) rotate(180)"/><path class="f" d="M1846.879,794.806"/><line class="f" x1="30.906" transform="translate(1803.866 815.333)"/><line class="f" x1="30.906" transform="translate(1803.866 791.271)"/><rect class="c" width="56.262" height="112.323" transform="translate(202.476 426.047)"/><path class="g" d="M164.556,169.188H276.879a40.166,40.166,0,0,0-40.166-40.166H204.722A40.166,40.166,0,0,0,164.556,169.188Z"/><rect class="d" width="96.873" height="112.323" transform="translate(55.919 832.43)"/><path class="e" d="M425.353,33.6,490.2,145.924V33.6Z"/><path class="h" d="M587.676,990.6l-56.162-32.425-56.162,97.275h0Z"/><rect class="i" width="37.449" height="28.081" transform="translate(227.19 752.276)"/><rect class="h" width="28.62" height="28.081" transform="translate(1855.961 145.927) rotate(45)"/><rect class="h" width="28.62" height="28.081" transform="translate(1842.033 934.328)"/><rect class="i" width="28.082" height="28.081" transform="translate(1119.922 898.918)"/><rect class="i" width="37.441" height="28.081" transform="translate(1823.542 321.279)"/><path class="g" d="M1437.525,968.5l-39.712,39.712-26.475-26.475-19.856,19.856,26.475,26.475a42.121,42.121,0,1,0,59.568-59.568Z"/><path class="j" d="M981,1002.383h0l-79.425-79.424h0a40.165,40.165,0,0,0,0,56.8l22.622,22.621A40.165,40.165,0,0,0,981,1002.383Z"/><rect class="j" width="112.323" height="50.902" transform="translate(1302.351 166.052)"/><circle class="k" cx="7.138" cy="7.138" r="7.138" transform="translate(421.077 922.974)"/><g class="b" transform="translate(627.177 90.13)"><circle class="aj" cx="7.138" cy="7.138" r="7.138"/><circle class="ak" cx="7.138" cy="7.138" r="6.669"/></g><g class="b" transform="translate(627.177 117.855)"><circle class="aj" cx="7.138" cy="7.138" r="7.138"/><circle class="ak" cx="7.138" cy="7.138" r="6.669"/></g><g class="b" transform="translate(627.177 62.404)"><circle class="aj" cx="7.138" cy="7.138" r="7.138"/><circle class="ak" cx="7.138" cy="7.138" r="6.669"/></g><rect class="l" width="11.518" height="11.518" transform="translate(329.843 640.871) rotate(45)"/><rect class="j" width="9.603" height="9.603" transform="translate(324.215 309.187) rotate(45)"/><rect class="m" width="9.603" height="9.603" transform="translate(306.957 291.93) rotate(45)"/><rect class="n" width="9.603" height="9.603" transform="translate(285.914 270.886) rotate(45)"/><circle class="o" cx="6.79" cy="6.79" r="6.79" transform="translate(1440.389 74.108)"/><circle class="o" cx="6.79" cy="6.79" r="6.79" transform="translate(1618.579 498.636)"/><circle class="d" cx="10.939" cy="10.939" r="10.939" transform="translate(1470.672 843.594)"/><path class="p" d="M1672.285,979.421h13.277a28.081,28.081,0,0,0,0-56.162"/><path class="k" d="M1311.641,899.213l-20.457-20.457-20.457,20.457"/><path class="q" d="M997.154,167.74l29.293,29.293,29.294-29.293"/><path class="r" d="M1812.7,468.647,1790.22,491.13a28.081,28.081,0,0,0,39.712,39.713l35.156-35.156"/><line class="r" x1="31.988" y2="31.988" transform="translate(1834.355 476.186)"/><line class="r" x1="39.58" y2="39.58" transform="translate(1824.486 458.725)"/><line class="r" x1="33.507" y2="33.507" transform="translate(1814.617 454.929)"/><line class="f" y1="45.238" transform="translate(117.629 336.35)"/><line class="f" y1="55.975" transform="translate(103.671 336.35)"/><path class="f" d="M66.021,360.043H89.714V336.35"/><path class="f" d="M102.449,289.113a28.081,28.081,0,0,1,28.081,28.081v49.718"/><path class="f" d="M130.535,317.194a28.084,28.084,0,0,0-52.4-14.039"/><line class="f" x1="18.942" y2="33.195" transform="translate(59.188 303.155)"/><path class="s" d="M1495.145,889.278l22.483,22.484a28.081,28.081,0,0,0,39.713-39.712L1537.9,852.614"/><line class="s" x2="14.242" y2="14.242" transform="translate(1526.504 859.459)"/><line class="s" x2="16.519" y2="16.519" transform="translate(1514.357 867.051)"/><line class="s" x2="39.58" y2="39.58" transform="translate(1481.428 853.859)"/><line class="t" y1="33.921" transform="translate(676.575 158.276)"/><line class="t" y1="27.479" transform="translate(662.436 153.982)"/><line class="t" y1="30.7" transform="translate(648.297 150.761)"/><line class="t" y1="56.467" transform="translate(634.159 124.994)"/><line class="t" x1="8.736" y1="32.44" transform="translate(612.612 166.965)"/><path class="t" d="M621.347,199.4a28.085,28.085,0,0,0,55.228-7.208"/><rect class="u" width="47.005" height="47.005" transform="translate(80.853 855.398)"/><rect class="j" width="47.005" height="47.005" transform="translate(243.523 928.369)"/><line class="u" x1="49.772" y1="49.772" transform="translate(241.878 926.707)"/><line class="u" y1="50" x2="50" transform="translate(241.878 927.036)"/><circle class="d" cx="33.795" cy="33.795" r="33.795" transform="translate(1159.949 46.765)"/><path class="v" d="M1184.2,96.619l26.917-15.54L1184.2,65.538Z"/><line class="w" y2="40.873" transform="translate(1081.647 972.582)"/><line class="w" x2="40.873" transform="translate(1061.211 993.018)"/><g class="x"><path class="aj" d="M228,461.95v40.518h52.321l13.46,13.46V461.95Z"/><path class="al" d="M 228.93994140625 462.8875122070312 L 228.93994140625 501.5306701660156 L 280.3237915039062 501.5306701660156 L 280.7120971679688 501.5306701660156 L 280.9866943359375 501.8052673339844 L 292.8460388183594 513.6646118164062 L 292.8460388183594 502.4681701660156 L 292.8460388183594 462.8875122070312 L 228.93994140625 462.8875122070312 M 228.00244140625 461.9500122070312 L 293.7835388183594 461.9500122070312 L 293.7835388183594 502.4681701660156 L 293.7835388183594 515.9279174804688 L 280.3237915039062 502.4681701660156 L 228.00244140625 502.4681701660156 L 228.00244140625 461.9500122070312 Z"/></g><line class="s" y2="45.314" transform="translate(329.193 897.845)"/><line class="s" y2="56.069" transform="translate(315.213 887.091)"/><path class="s" d="M282.741,919.427h18.491V943.16"/><path class="s" d="M313.988,982.614a28.128,28.128,0,0,0,28.128-28.128v-41.94"/><path class="s" d="M342.121,954.486a28.146,28.146,0,0,1-28.133,28.131H282.741"/><path class="n" d="M47.884,601.055a18.676,18.676,0,0,1,37.351,0v42.4h33.307"/><path class="s" d="M116.294,601.055a18.676,18.676,0,0,1,37.351,0"/><path class="j" d="M136.836,668.995a36.071,36.071,0,0,1-72.143,0Z"/><path class="r" d="M1648.783,98.964a15.908,15.908,0,1,1-31.816,0"/><path class="y" d="M1692.738,162.007a30.726,30.726,0,0,1-30.726,30.726"/><path class="r" d="M1707.056,98.964a15.926,15.926,0,0,1-15.908,15.908,16.117,16.117,0,0,1-16.129-15.908l-26.236,45.057h28.371"/><rect class="z" width="28.367" height="18.404" transform="translate(1665.275 80.56)"/><line class="n" x1="34.874" transform="translate(763.576 923.578)"/><line class="n" x1="14.811" transform="translate(734.489 923.578)"/><rect class="aa" width="12.562" height="12.562" transform="translate(756.438 914.695) rotate(45)"/><line class="t" y2="45.238" transform="translate(696.566 891.962)"/><line class="t" y2="55.974" transform="translate(710.524 881.226)"/><path class="t" d="M748.174,913.507H724.481V937.2"/><path class="t" d="M711.746,984.437a28.081,28.081,0,0,1-28.081-28.081V906.638"/><path class="t" d="M683.66,956.356a28.084,28.084,0,0,0,52.4,14.039"/><line class="t" y1="33.195" x2="18.942" transform="translate(736.064 937.2)"/><g class="ab" transform="translate(31.353 333.783)"><circle class="aj" cx="18.442" cy="18.442" r="18.442"/><circle class="ak" cx="18.442" cy="18.442" r="17.964"/></g><rect class="c" width="32.29" height="79.668" transform="translate(949.892 338.739)"/><rect class="e" width="32.29" height="79.668" transform="translate(1204.103 338.739)"/><rect class="j" width="32.29" height="79.668" transform="translate(663.307 338.739)"/><path class="g" d="M783.466,418.407h0V338.739h0a28.489,28.489,0,0,0-28.489,28.489v22.691A28.488,28.488,0,0,0,783.466,418.407Z"/><rect class="d" width="36.104" height="79.668" transform="translate(783.466 338.739)"/><path class="e" d="M839.116,338.739l46,79.668V338.739Z"/><path class="h" d="M931.108,338.739h-46v79.668h0Z"/><path class="aa" d="M695.6,338.739a39.834,39.834,0,0,1,0,79.668Z"/><path class="ac" d="M695.6,403.2a24.623,24.623,0,0,0,0-49.247H679.452V372.8"/><path class="g" d="M1143.808,398.49a29.875,29.875,0,0,1,0-59.751Z"/><rect class="i" width="26.561" height="19.917" transform="translate(982.183 338.739)"/><rect class="h" width="20.299" height="19.917" transform="translate(1183.803 338.739)"/><rect class="h" width="20.299" height="19.917" transform="translate(1236.393 338.739)"/><rect class="i" width="19.917" height="19.917" transform="translate(982.183 378.573)"/><rect class="g" width="26.556" height="19.917" transform="translate(1143.808 338.739)"/><path class="d" d="M1143.808,358.656V398.49h-26.555v19.917h26.555a29.876,29.876,0,1,0,0-59.751Z"/><path class="ad" d="M1129.879,382.851a19.917,19.917,0,0,1,13.929-34.153h14.938"/><line class="ae" x2="52.59" transform="translate(1193.953 348.889)"/><path class="aa" d="M1056.224,418.407h0V338.739h0a28.489,28.489,0,0,0-28.489,28.489v22.691A28.488,28.488,0,0,0,1056.224,418.407Z"/><rect class="j" width="36.104" height="79.668" transform="translate(1056.224 338.739)"/><line class="ac" x1="5.143" y1="0.034" transform="translate(1042.196 366.507)"/><line class="ac" x1="35.366" transform="translate(1056.962 366.591)"/><line class="ac" x1="10.56" transform="translate(1081.768 390.556)"/><line class="ac" x1="8.028" transform="translate(1064.108 390.556)"/><circle class="ae" cx="5.063" cy="5.063" r="5.063" transform="translate(880.049 380.685)"/><circle class="ae" cx="5.063" cy="5.063" r="5.063" transform="translate(897.761 350.006)"/><line class="ae" x1="12.677" y2="21.958" transform="translate(887.615 359.454)"/><circle class="ae" cx="5.063" cy="5.063" r="5.063" transform="translate(862.337 350.006)"/><line class="ae" x2="12.677" y2="21.958" transform="translate(869.931 359.454)"/><rect class="ac" width="8.17" height="8.17" transform="translate(679.452 372.797) rotate(45)"/><rect class="ac" width="6.811" height="6.811" transform="translate(1076.952 385.74) rotate(45)"/><rect class="ac" width="6.811" height="6.811" transform="translate(1052.25 361.775) rotate(45)"/><circle class="ae" cx="4.816" cy="4.816" r="4.816" transform="translate(1215.432 360.922)"/><circle class="ae" cx="4.816" cy="4.816" r="4.816" transform="translate(1215.432 379.384)"/><circle class="ae" cx="4.816" cy="4.816" r="4.816" transform="translate(1215.432 397.845)"/><path class="ad" d="M1134.392,408.449h9.416a19.917,19.917,0,0,0,0-39.834"/><path class="af" d="M986.557,388.462h-20.52v20.52"/><path class="ag" d="M995.421,348.69H966.038v29.383"/><line class="ad" x1="36.247" transform="translate(783.323 366.591)"/><line class="ad" x1="36.247" transform="translate(783.323 378.573)"/><line class="ad" x1="36.247" transform="translate(783.323 390.556)"/><path class="ah" d="M1064.143,453.6a19.918,19.918,0,0,1,19.917,19.917v19.917a19.918,19.918,0,0,1-19.917,19.917H1049.2"/><path class="ah" d="M928.793,453.6a19.917,19.917,0,0,1,19.917,19.917v19.917a19.917,19.917,0,0,1-39.834,0V473.521A19.917,19.917,0,0,1,928.793,453.6Z"/><line class="ah" y2="59.56" transform="translate(996.984 453.796)"/><path class="ah" d="M868.218,513.355H838.592V503.4"/><path class="ah" d="M838.592,503.4a13.945,13.945,0,0,1,13.945-13.945,17.924,17.924,0,1,0,0-35.848H838.592"/><path class="ah" d="M1064.143,453.6a19.917,19.917,0,1,0,19.917,19.917"/><path class="ac" d="M581.866,686.2"/><path class="ai" d="M45.462-11.725H45.02A25.1,25.1,0,0,1,36.06-1.88,22.7,22.7,0,0,1,23.671,1.77,23.953,23.953,0,0,1,15.541.442a20.224,20.224,0,0,1-6.416-3.65,16.229,16.229,0,0,1-4.2-5.531,16.307,16.307,0,0,1-1.493-6.969,15.391,15.391,0,0,1,1.936-7.8,18.348,18.348,0,0,1,5.088-5.7,22.475,22.475,0,0,1,7.19-3.484,30.057,30.057,0,0,1,8.351-1.161,38.256,38.256,0,0,1,10.287,1.383,39.143,39.143,0,0,1,9.181,3.816v-4.314A22.058,22.058,0,0,0,44.025-41.2,17.855,17.855,0,0,0,40.1-47.288,16.871,16.871,0,0,0,34.18-51.1a20.668,20.668,0,0,0-7.522-1.327,19.768,19.768,0,0,0-10.177,2.655,18.589,18.589,0,0,0-6.969,6.969l-3.429-2.1a22.084,22.084,0,0,1,8.517-8.02,24.61,24.61,0,0,1,12.057-3.042,25.1,25.1,0,0,1,9.292,1.659,21.728,21.728,0,0,1,7.19,4.535,20.043,20.043,0,0,1,4.646,6.913,22.619,22.619,0,0,1,1.659,8.683V0H45.462Zm0-13.163a42.952,42.952,0,0,0-8.849-3.982,33.591,33.591,0,0,0-10.177-1.438,28.564,28.564,0,0,0-7.466.94A18.51,18.51,0,0,0,12.942-26.6,13.6,13.6,0,0,0,8.9-22.068a12.974,12.974,0,0,0-1.493,6.36A12.583,12.583,0,0,0,8.739-9.9a13.494,13.494,0,0,0,3.595,4.425A15.9,15.9,0,0,0,17.588-2.71a20.875,20.875,0,0,0,6.305.94,18.383,18.383,0,0,0,8.02-1.88,22.857,22.857,0,0,0,6.913-5.088,26.169,26.169,0,0,0,4.812-7.356A21.6,21.6,0,0,0,45.462-24.888ZM64.6,0V-79.2h3.982V0ZM84.731,0V-79.2h3.982V0ZM247.665-55.971a25.735,25.735,0,0,1,10.674,2.212,26.083,26.083,0,0,1,8.517,6.084,28.4,28.4,0,0,1,5.641,9.126A31.278,31.278,0,0,1,274.545-27.1,31.278,31.278,0,0,1,272.5-15.652a28.4,28.4,0,0,1-5.641,9.126A26.083,26.083,0,0,1,258.34-.442,25.735,25.735,0,0,1,247.665,1.77,25.735,25.735,0,0,1,236.991-.442a26.083,26.083,0,0,1-8.517-6.084,28.4,28.4,0,0,1-5.641-9.126A31.279,31.279,0,0,1,220.786-27.1a31.279,31.279,0,0,1,2.046-11.449,28.4,28.4,0,0,1,5.641-9.126,26.083,26.083,0,0,1,8.517-6.084A25.735,25.735,0,0,1,247.665-55.971Zm0,54.2a20.548,20.548,0,0,0,8.573-1.88A23.412,23.412,0,0,0,263.594-8.9a25.241,25.241,0,0,0,5.088-8.02,26.876,26.876,0,0,0,1.88-10.177,26.876,26.876,0,0,0-1.88-10.177,25.241,25.241,0,0,0-5.088-8.02,23.412,23.412,0,0,0-7.356-5.254,20.548,20.548,0,0,0-8.573-1.88,20.427,20.427,0,0,0-8.628,1.88,23.611,23.611,0,0,0-7.3,5.254,25.241,25.241,0,0,0-5.088,8.02,26.877,26.877,0,0,0-1.88,10.177,26.876,26.876,0,0,0,1.88,10.177,25.241,25.241,0,0,0,5.088,8.02,23.611,23.611,0,0,0,7.3,5.254A20.427,20.427,0,0,0,247.665-1.77ZM286.049,0V-54.2h3.54v10.177h.442a15.058,15.058,0,0,1,2.378-4.812,17.652,17.652,0,0,1,3.706-3.706,16.914,16.914,0,0,1,4.48-2.378,14.208,14.208,0,0,1,4.7-.83,20.431,20.431,0,0,1,4.037.332,10.716,10.716,0,0,1,3.152,1.217l-1.217,3.429a11.843,11.843,0,0,0-2.71-1.051,14.493,14.493,0,0,0-3.595-.387,11.129,11.129,0,0,0-5.531,1.493,15.367,15.367,0,0,0-4.756,4.314,23.125,23.125,0,0,0-3.374,6.747,28.063,28.063,0,0,0-1.272,8.683V0ZM441.13-54.2h3.54v11.393h.442a30.338,30.338,0,0,1,3.429-5.033,22.411,22.411,0,0,1,4.7-4.2,22.643,22.643,0,0,1,6.25-2.876,28.394,28.394,0,0,1,8.075-1.051,23.611,23.611,0,0,1,9.845,2.1,24.1,24.1,0,0,1,8.075,5.918,28.41,28.41,0,0,1,5.42,9.126A33.158,33.158,0,0,1,492.9-27.1a33.158,33.158,0,0,1-1.991,11.725,28.41,28.41,0,0,1-5.42,9.126,24.1,24.1,0,0,1-8.075,5.918,23.611,23.611,0,0,1-9.845,2.1A28.394,28.394,0,0,1,459.492.719a22.643,22.643,0,0,1-6.25-2.876,22.411,22.411,0,0,1-4.7-4.2,30.338,30.338,0,0,1-3.429-5.033h-.442l.442,7.522V23.893H441.13ZM466.792-1.77A20.47,20.47,0,0,0,475.2-3.54a21.414,21.414,0,0,0,7.024-5.033,24.56,24.56,0,0,0,4.867-7.964A28.991,28.991,0,0,0,488.915-27.1a28.991,28.991,0,0,0-1.825-10.564,24.56,24.56,0,0,0-4.867-7.964,21.414,21.414,0,0,0-7.024-5.033,20.47,20.47,0,0,0-8.407-1.77,21.034,21.034,0,0,0-8.407,1.715,21.09,21.09,0,0,0-7.024,4.922,23.8,23.8,0,0,0-4.867,7.964A29.766,29.766,0,0,0,444.67-27.1a29.766,29.766,0,0,0,1.825,10.73,23.8,23.8,0,0,0,4.867,7.964,21.09,21.09,0,0,0,7.024,4.922A21.034,21.034,0,0,0,466.792-1.77Zm84.62-11.061A28.875,28.875,0,0,1,548.039-7.3a22.434,22.434,0,0,1-4.867,4.646A24.668,24.668,0,0,1,536.7.553a25.8,25.8,0,0,1-8.185,1.217A25.913,25.913,0,0,1,517.9-.387a24.964,24.964,0,0,1-8.407-6.028,28.141,28.141,0,0,1-5.531-9.126A32.376,32.376,0,0,1,501.968-27.1a33.637,33.637,0,0,1,1.825-11.117,28.048,28.048,0,0,1,5.2-9.181,24.961,24.961,0,0,1,8.185-6.25,24.23,24.23,0,0,1,10.674-2.323,25.454,25.454,0,0,1,10.232,1.991,21.764,21.764,0,0,1,7.8,5.641,26.012,26.012,0,0,1,4.978,8.739,34.166,34.166,0,0,1,1.77,11.283v.553a1.82,1.82,0,0,0-.111.553v.664H505.95a27.047,27.047,0,0,0,2.157,11.338,23.16,23.16,0,0,0,5.475,7.688,21.289,21.289,0,0,0,7.3,4.369,23.539,23.539,0,0,0,7.743,1.383,23.82,23.82,0,0,0,7.024-.94,17.823,17.823,0,0,0,5.31-2.6A19.66,19.66,0,0,0,545-9.292a43.249,43.249,0,0,0,3.318-5.088Zm-2.765-17.256a29.37,29.37,0,0,0-1.272-7.356,23.377,23.377,0,0,0-3.595-7.245,19.621,19.621,0,0,0-6.416-5.531,19.788,19.788,0,0,0-9.734-2.212,20.781,20.781,0,0,0-7.245,1.327,20.257,20.257,0,0,0-6.637,4.093,23.465,23.465,0,0,0-5.144,6.969,28.163,28.163,0,0,0-2.655,9.955Zm55.639,18.362h-.442a25.1,25.1,0,0,1-8.96,9.845,22.7,22.7,0,0,1-12.389,3.65,23.953,23.953,0,0,1-8.13-1.327,20.224,20.224,0,0,1-6.416-3.65,16.229,16.229,0,0,1-4.2-5.531,16.307,16.307,0,0,1-1.493-6.969,15.391,15.391,0,0,1,1.936-7.8,18.347,18.347,0,0,1,5.088-5.7,22.475,22.475,0,0,1,7.19-3.484,30.057,30.057,0,0,1,8.351-1.161,38.256,38.256,0,0,1,10.287,1.383,39.143,39.143,0,0,1,9.181,3.816v-4.314a22.058,22.058,0,0,0-1.438-8.241,17.856,17.856,0,0,0-3.927-6.084A16.871,16.871,0,0,0,593-51.1a20.668,20.668,0,0,0-7.522-1.327,19.768,19.768,0,0,0-10.177,2.655,18.589,18.589,0,0,0-6.969,6.969l-3.429-2.1a22.084,22.084,0,0,1,8.517-8.02,24.61,24.61,0,0,1,12.057-3.042,25.1,25.1,0,0,1,9.292,1.659,21.728,21.728,0,0,1,7.19,4.535,20.043,20.043,0,0,1,4.646,6.913,22.619,22.619,0,0,1,1.659,8.683V0h-3.982Zm0-13.163a42.952,42.952,0,0,0-8.849-3.982,33.591,33.591,0,0,0-10.177-1.438,28.564,28.564,0,0,0-7.466.94,18.511,18.511,0,0,0-6.028,2.765,13.6,13.6,0,0,0-4.037,4.535,12.974,12.974,0,0,0-1.493,6.36A12.582,12.582,0,0,0,567.562-9.9a13.5,13.5,0,0,0,3.595,4.425,15.9,15.9,0,0,0,5.254,2.765,20.875,20.875,0,0,0,6.3.94,18.383,18.383,0,0,0,8.02-1.88,22.856,22.856,0,0,0,6.913-5.088,26.169,26.169,0,0,0,4.812-7.356A21.6,21.6,0,0,0,604.286-24.888ZM623.422-79.2H627.4v56.413L658.819-54.2h4.867v.442l-19.579,19.8L666.783-.442V0h-4.425L641.231-31.083,627.4-17.256V0h-3.982ZM720.21-12.831A28.875,28.875,0,0,1,716.836-7.3a22.434,22.434,0,0,1-4.867,4.646A24.668,24.668,0,0,1,705.5.553a25.8,25.8,0,0,1-8.185,1.217A25.913,25.913,0,0,1,686.694-.387a24.965,24.965,0,0,1-8.407-6.028,28.14,28.14,0,0,1-5.531-9.126A32.376,32.376,0,0,1,670.765-27.1a33.637,33.637,0,0,1,1.825-11.117,28.049,28.049,0,0,1,5.2-9.181,24.961,24.961,0,0,1,8.185-6.25,24.23,24.23,0,0,1,10.674-2.323,25.454,25.454,0,0,1,10.232,1.991,21.764,21.764,0,0,1,7.8,5.641,26.012,26.012,0,0,1,4.978,8.739,34.166,34.166,0,0,1,1.77,11.283v.553a1.82,1.82,0,0,0-.111.553v.664H674.747A27.047,27.047,0,0,0,676.9-15.209a23.16,23.16,0,0,0,5.475,7.688,21.289,21.289,0,0,0,7.3,4.369,23.539,23.539,0,0,0,7.743,1.383,23.82,23.82,0,0,0,7.024-.94,17.823,17.823,0,0,0,5.31-2.6,19.66,19.66,0,0,0,4.037-3.982,43.249,43.249,0,0,0,3.318-5.088Zm-2.765-17.256a29.37,29.37,0,0,0-1.272-7.356,23.377,23.377,0,0,0-3.595-7.245,19.621,19.621,0,0,0-6.416-5.531,19.788,19.788,0,0,0-9.734-2.212,20.781,20.781,0,0,0-7.245,1.327,20.257,20.257,0,0,0-6.637,4.093,23.466,23.466,0,0,0-5.144,6.969,28.163,28.163,0,0,0-2.655,9.955ZM734.037,0V-54.2h3.54v10.177h.442a15.057,15.057,0,0,1,2.378-4.812,17.652,17.652,0,0,1,3.706-3.706,16.915,16.915,0,0,1,4.48-2.378,14.208,14.208,0,0,1,4.7-.83,20.431,20.431,0,0,1,4.037.332,10.716,10.716,0,0,1,3.153,1.217l-1.217,3.429a11.843,11.843,0,0,0-2.71-1.051,14.493,14.493,0,0,0-3.595-.387,11.129,11.129,0,0,0-5.531,1.493,15.366,15.366,0,0,0-4.756,4.314,23.125,23.125,0,0,0-3.374,6.747,28.062,28.062,0,0,0-1.272,8.683V0Zm51.989,1.77a24.179,24.179,0,0,1-7.8-1.217,22.982,22.982,0,0,1-6.416-3.318A21.755,21.755,0,0,1,767-7.688a23.434,23.434,0,0,1-3.1-6.139l3.54-1.549a19.436,19.436,0,0,0,7.3,10.066,19.316,19.316,0,0,0,11.283,3.54q7.743,0,12.223-3.54a10.851,10.851,0,0,0,4.48-8.849,10.177,10.177,0,0,0-.664-3.706,8.267,8.267,0,0,0-2.378-3.208,16.352,16.352,0,0,0-4.535-2.655,46.674,46.674,0,0,0-7.135-2.157l-6.969-1.549a45.813,45.813,0,0,1-5.7-1.715,19.919,19.919,0,0,1-5.033-2.71,14.768,14.768,0,0,1-3.65-3.927,9.6,9.6,0,0,1-1.438-5.254,11.517,11.517,0,0,1,1.715-6.194,15.475,15.475,0,0,1,4.59-4.7,23.117,23.117,0,0,1,6.471-2.987,26.475,26.475,0,0,1,7.466-1.051,24.371,24.371,0,0,1,12.555,3.208,17.249,17.249,0,0,1,7.688,9.4l-3.429,1.438a17.618,17.618,0,0,0-6.637-8.02,19.043,19.043,0,0,0-10.066-2.489,23.941,23.941,0,0,0-6.139.774,17.5,17.5,0,0,0-5.2,2.268,12.575,12.575,0,0,0-3.65,3.595,8.461,8.461,0,0,0-1.383,4.756,6.608,6.608,0,0,0,1.051,3.706,10.658,10.658,0,0,0,2.876,2.876,19.682,19.682,0,0,0,4.314,2.212,41.731,41.731,0,0,0,5.365,1.6l7.743,1.77q8.185,1.88,12.168,5.7a11.738,11.738,0,0,1,3.982,8.683,14.245,14.245,0,0,1-1.438,6.36,15.32,15.32,0,0,1-4.148,5.144A20.409,20.409,0,0,1,794.6.5,27.021,27.021,0,0,1,786.025,1.77Z" transform="translate(583.795 708.534)"/><path class="aa" d="M534.238,710.693a47.544,47.544,0,0,1,0-95.088Z"/><rect class="aa" width="42.261" height="31.696" transform="translate(534.238 615.605)"/><path class="ac" d="M512.071,685.8a31.7,31.7,0,0,1,22.167-54.351H558.01"/><rect class="j" width="42.261" height="31.696" transform="translate(534.238 678.997)"/><path class="ac" d="M512.15,640.514a31.7,31.7,0,0,0,22.167,54.352h23.772"/><rect class="d" width="38.46" height="94.891" transform="translate(731.818 615.704)"/><rect class="g" width="31.637" height="23.723" transform="translate(770.278 615.704)"/><rect class="g" width="23.723" height="23.723" transform="translate(770.278 663.149)"/><path class="ad" d="M775.489,674.927h-24.44v24.441"/><path class="ad" d="M786.046,627.556h-35v35"/><path class="i" d="M978.332,686.413a35.584,35.584,0,0,1,0-71.168Z"/><rect class="i" width="31.63" height="23.723" transform="translate(978.332 615.245)"/><path class="c" d="M978.332,638.968v47.445H946.7v23.723h31.63a35.584,35.584,0,1,0,0-71.168Z"/><path class="af" d="M961.741,667.785a23.723,23.723,0,0,1,16.591-40.678h17.792"/><path class="af" d="M967.116,698.274h11.216a23.723,23.723,0,1,0,0-47.445"/><rect class="e" width="23.403" height="66.847" transform="translate(1409.903 615.704)"/><circle class="ae" cx="5.708" cy="5.708" r="5.708" transform="translate(1415.897 641.997)"/><circle class="ae" cx="5.708" cy="5.708" r="5.708" transform="translate(1415.897 663.88)"/><circle class="h" cx="11.701" cy="11.701" r="11.701" transform="translate(1409.903 686.573)"/></g></svg>