<svg xmlns="http://www.w3.org/2000/svg" width="400" height="669.208" viewBox="0 0 400 669.208"><defs><style>.a,.e,.o{fill:#174ea6;font-family:ProductSans-Thin, Product Sans Thin;font-weight:200;letter-spacing:0.02em;}.a,.o{font-size:55px;}.b{fill:#34a853;}.aa,.ab,.ac,.ad,.ae,.af,.ag,.ah,.ai,.ak,.am,.c,.h,.j,.n,.p,.q,.r,.s,.t,.u,.v,.w,.x,.y,.z{fill:none;}.c{stroke:#0d652d;}.aa,.ab,.ac,.ad,.ae,.af,.ag,.ah,.ai,.ak,.c,.h,.j,.n,.p,.q,.r,.s,.t,.u,.v,.w,.x,.y,.z{stroke-miterlimit:10;}.c,.h,.j,.n{stroke-width:0.938px;}.d{fill:#a8dab5;}.e{font-size:56px;}.f{fill:#fde293;}.g{fill:#fbbc04;}.h,.z{stroke:#e37400;}.i{fill:#aecbfa;}.j,.y{stroke:#174ea6;}.k{fill:#4285f4;}.an,.l{fill:#ea4335;}.m{fill:#fad2cf;}.n,.p{stroke:#a50e0e;}.p{stroke-width:0.934px;}.q{stroke:#202124;stroke-width:0.86px;}.r,.x{stroke:#a8dab5;}.r{stroke-width:0.701px;}.ak,.s{stroke:#fde293;}.ab,.ac,.ad,.ae,.af,.ag,.ai,.s,.t{stroke-width:0.938px;}.t{stroke:#4285f4;}.aa,.ag,.u{stroke:#aecbfa;}.u,.v,.w,.x,.y,.z{stroke-width:0.938px;}.ab,.v{stroke:#ea4335;}.w{stroke:#1e8e3e;}.aa{stroke-width:0.934px;}.ac{stroke:#34a853;}.ad{stroke:#fbbc04;}.ae{stroke:#fff;}.af{stroke:#f9ab00;}.ai{stroke:#fad2cf;}.aj{fill:#fff;}.ak{stroke-width:0.957px;}.al,.an{stroke:none;}</style></defs><g transform="translate(-8 -56.622)"><g transform="translate(-8.028 317.951)"><text class="a" transform="translate(115.79 53)"><tspan x="-29.15" y="0" xml:space="preserve">    </tspan><tspan x="-21.725" y="65" xml:space="preserve">   </tspan><tspan x="0" y="130"></tspan></text><g transform="translate(167.835 12.178)"><g transform="translate(0 5.15)"><path class="b" d="M511.193,664.6a24.5,24.5,0,0,1,0-49Z" transform="translate(-486.694 -615.605)"/><rect class="b" width="21.777" height="16.333" transform="translate(24.499)"/><path class="c" d="M507.452,659.46a16.333,16.333,0,0,1,11.423-28.007h12.25" transform="translate(-494.376 -623.287)"/><rect class="d" width="21.777" height="16.333" transform="translate(24.499 32.666)"/><path class="c" d="M507.531,640.514a16.333,16.333,0,0,0,11.422,28.007H531.2" transform="translate(-494.414 -627.679)"/></g><text class="e" transform="translate(74.193 53.73)"><tspan x="-24.22" y="0">all</tspan></text></g><g transform="translate(174.981 91.297)"><g transform="translate(0 5.2)"><rect class="f" width="19.818" height="48.896"/><rect class="g" width="16.302" height="12.224" transform="translate(19.818)"/><rect class="g" width="12.224" height="12.224" transform="translate(19.818 24.448)"/><path class="h" d="M763.642,674.927H751.048v12.594" transform="translate(-741.139 -644.41)"/><path class="h" d="M769.082,627.556H751.048V645.59" transform="translate(-741.139 -621.448)"/></g><text class="e" transform="translate(60.047 53.611)"><tspan x="-24.192" y="0">or</tspan></text></g><g transform="translate(90.361 167.091)"><g transform="translate(240.721 5.2)"><rect class="i" width="12.059" height="34.446"/><ellipse class="j" cx="2.941" cy="2.941" rx="2.941" ry="2.941" transform="translate(3.088 13.549)"/><ellipse class="j" cx="2.941" cy="2.941" rx="2.941" ry="2.941" transform="translate(3.088 24.825)"/><ellipse class="k" cx="6.03" cy="6.03" rx="6.03" ry="6.03" transform="translate(0 36.518)"/></g><g transform="translate(0 4.964)"><path class="l" d="M961.084,651.917a18.336,18.336,0,0,1,0-36.672Z" transform="translate(-942.748 -615.245)"/><rect class="l" width="16.299" height="12.224" transform="translate(18.336 0)"/><path class="m" d="M963,638.968v24.448H946.7V675.64H963a18.336,18.336,0,0,0,0-36.672Z" transform="translate(-944.665 -626.744)"/><path class="n" d="M958.285,648.068a12.224,12.224,0,0,1,8.549-20.961H976" transform="translate(-948.498 -620.995)"/><path class="n" d="M967.116,675.277H972.9a12.224,12.224,0,1,0,0-24.448" transform="translate(-954.559 -632.493)"/></g><text class="o" transform="translate(134.667 52.816)"><tspan x="-93.253" y="0">peakers</tspan></text></g></g><g transform="translate(77.972 184.141)"><rect class="m" width="13.993" height="34.524" transform="translate(124.191 0)"/><rect class="i" width="13.993" height="34.524" transform="translate(234.352 0)"/><rect class="d" width="13.993" height="34.524" transform="translate(0 0)"/><path class="g" d="M767.323,373.263h0V338.739h0a12.346,12.346,0,0,0-12.346,12.346v9.833A12.345,12.345,0,0,0,767.323,373.263Z" transform="translate(-715.252 -338.739)"/><rect class="f" width="15.645" height="34.524" transform="translate(52.071 0)"/><path class="i" d="M839.116,338.74l19.932,34.524V338.74Z" transform="translate(-762.93 -338.739)"/><path class="k" d="M905.044,338.74H885.112v34.524h0Z" transform="translate(-788.993 -338.739)"/><path class="b" d="M695.6,338.739a17.262,17.262,0,1,1,0,34.524Z" transform="translate(-681.605 -338.739)"/><path class="c" d="M686.449,375.291a10.671,10.671,0,0,0,0-21.341h-7v8.167" transform="translate(-672.456 -347.358)"/><path class="g" d="M1126.879,364.632a12.946,12.946,0,0,1,0-25.893Z" transform="translate(-918.656 -338.739)"/><rect class="l" width="11.51" height="8.631" transform="translate(138.184 0)"/><rect class="k" width="8.797" height="8.631" transform="translate(225.556 0)"/><rect class="k" width="8.797" height="8.631" transform="translate(248.345 0)"/><rect class="l" width="8.631" height="8.631" transform="translate(138.184 17.262)"/><rect class="g" width="11.508" height="8.631" transform="translate(208.224 0)"/><path class="f" d="M1128.761,358.656v17.262h-11.508v8.631h11.508a12.946,12.946,0,1,0,0-25.893Z" transform="translate(-920.537 -350.025)"/><path class="h" d="M1126.486,363.5a8.631,8.631,0,0,1,6.036-14.8H1139" transform="translate(-924.298 -344.382)"/><line class="j" x2="22.79" transform="translate(229.954 4.399)"/><path class="b" d="M1040.08,373.263h0V338.739h0a12.346,12.346,0,0,0-12.346,12.346v9.833A12.345,12.345,0,0,0,1040.08,373.263Z" transform="translate(-869.811 -338.739)"/><rect class="d" width="15.645" height="34.524" transform="translate(170.269 0)"/><line class="c" x1="2.229" y1="0.015" transform="translate(164.19 12.033)"/><line class="c" x1="15.326" transform="translate(170.589 12.07)"/><line class="c" x1="4.576" transform="translate(181.339 22.455)"/><line class="c" x1="3.479" transform="translate(173.686 22.455)"/><ellipse class="j" cx="2.194" cy="2.194" rx="2.194" ry="2.194" transform="translate(93.924 18.177)"/><ellipse class="j" cx="2.194" cy="2.194" rx="2.194" ry="2.194" transform="translate(101.6 4.883)"/><line class="j" x1="5.494" y2="9.515" transform="translate(97.203 8.977)"/><ellipse class="j" cx="2.194" cy="2.194" rx="2.194" ry="2.194" transform="translate(86.249 4.883)"/><line class="j" x2="5.494" y2="9.515" transform="translate(89.54 8.977)"/><rect class="c" width="3.54" height="3.54" transform="translate(6.996 14.759) rotate(45)"/><rect class="c" width="2.952" height="2.952" transform="translate(179.252 20.368) rotate(45)"/><rect class="c" width="2.952" height="2.952" transform="translate(168.547 9.982) rotate(45)"/><ellipse class="j" cx="2.087" cy="2.087" rx="2.087" ry="2.087" transform="translate(239.262 9.613)"/><ellipse class="j" cx="2.087" cy="2.087" rx="2.087" ry="2.087" transform="translate(239.262 17.613)"/><ellipse class="j" cx="2.087" cy="2.087" rx="2.087" ry="2.087" transform="translate(239.262 25.613)"/><path class="h" d="M1134.392,385.877h4.08a8.631,8.631,0,0,0,0-17.262" transform="translate(-930.249 -355.668)"/><path class="n" d="M974.93,388.462h-8.892v8.892" transform="translate(-834.85 -366.915)"/><path class="p" d="M978.771,348.69H966.038v12.733" transform="translate(-834.85 -344.378)"/><line class="h" x1="15.708" transform="translate(52.008 12.07)"/><line class="h" x1="15.708" transform="translate(52.008 17.262)"/><line class="h" x1="15.708" transform="translate(52.008 22.455)"/><path class="q" d="M1055.678,453.6a8.631,8.631,0,0,1,8.631,8.631v8.631a8.631,8.631,0,0,1-8.631,8.631H1049.2" transform="translate(-881.977 -403.828)"/><path class="q" d="M917.507,453.6a8.631,8.631,0,0,1,8.631,8.631v8.631a8.631,8.631,0,1,1-17.262,0v-8.631A8.631,8.631,0,0,1,917.507,453.6Z" transform="translate(-802.459 -403.828)"/><line class="q" y2="25.81" transform="translate(144.598 49.859)"/><path class="q" d="M851.43,507.712H838.592V503.4" transform="translate(-762.633 -432.043)"/><path class="q" d="M838.592,475.182a6.043,6.043,0,0,1,6.043-6.043,7.767,7.767,0,0,0,0-15.535h-6.043" transform="translate(-762.633 -403.828)"/><path class="q" d="M1052.857,453.6a8.631,8.631,0,1,0,8.631,8.631" transform="translate(-879.156 -403.828)"/></g><g transform="translate(-117.353 1066.929)"><g transform="translate(499.257 -763.803)"><line class="r" y1="9.377" transform="translate(1.919 8.47)"/><line class="r" y1="4.631" transform="translate(1.919)"/><circle class="r" cx="1.919" cy="1.919" r="1.919" transform="translate(0 4.631)"/></g><g class="s" transform="translate(500.561 -530.792)"><ellipse class="al" cx="6.912" cy="17.489" rx="6.912" ry="17.489"/><ellipse class="am" cx="6.912" cy="17.489" rx="6.444" ry="17.021"/></g><line class="s" x2="33.124" transform="translate(490.948 -519.133)"/><g class="s" transform="translate(488.984 -530.792)"><circle class="al" cx="17.489" cy="17.489" r="17.489"/><circle class="am" cx="17.489" cy="17.489" r="17.021"/></g><line class="s" x2="32.915" transform="translate(491.053 -507.473)"/><path class="m" d="M1689.969,711.242l-13.979-24.212-13.979,24.212" transform="translate(-1164.616 -1130.171)"/><rect class="f" width="10.703" height="4.034" transform="translate(175.98 -419.929)"/><rect class="m" width="16.365" height="40.376" transform="translate(323.556 -999.4)"/><rect class="i" width="16.365" height="40.376" transform="translate(513.272 -675.525) rotate(180)"/><path class="t" d="M1846.879,794.806" transform="translate(-1340.065 -1487.983)"/><line class="t" x1="11.109" transform="translate(491.352 -685.798)"/><line class="t" x1="11.109" transform="translate(491.352 -694.447)"/><rect class="m" width="20.224" height="40.376" transform="translate(131.155 -578.997)"/><path class="g" d="M164.556,143.46h40.376a14.438,14.438,0,0,0-14.438-14.438h-11.5A14.438,14.438,0,0,0,164.556,143.46Z" transform="translate(-36.321 -1094.121)"/><rect class="f" width="34.822" height="40.376" transform="translate(134.183 -707.305)"/><path class="i" d="M425.353,33.6l23.311,40.376V33.6Z" transform="translate(-235.371 -1033)"/><path class="k" d="M515.729,969.831l-20.188-11.656-20.188,34.967h0Z" transform="translate(-270.377 -1340.071)"/><rect class="l" width="13.462" height="10.094" transform="translate(140.039 -461.729)"/><rect class="k" width="10.288" height="10.094" transform="translate(510.078 -904.426) rotate(45)"/><rect class="k" width="10.288" height="10.094" transform="translate(505.072 -643.023)"/><rect class="l" width="10.094" height="10.094" transform="translate(363.258 -354.929)"/><rect class="l" width="13.459" height="10.094" transform="translate(498.425 -841.394)"/><path class="g" d="M1382.412,968.5l-14.275,14.275-9.517-9.517-7.138,7.138,9.517,9.517a15.141,15.141,0,0,0,21.413-21.413Z" transform="translate(-962.129 -1411.427)"/><path class="d" d="M922.588,951.509h0l-28.551-28.55h0a14.438,14.438,0,0,0,0,20.419l8.132,8.131A14.438,14.438,0,0,0,922.588,951.509Z" transform="translate(-599.023 -1310.667)"/><rect class="d" width="40.376" height="18.298" transform="translate(459.233 -961.788)"/><circle class="u" cx="2.566" cy="2.566" r="2.566" transform="translate(261.445 -346.7)"/><g class="s" transform="translate(254.531 -979.079)"><circle class="al" cx="2.566" cy="2.566" r="2.566"/><circle class="am" cx="2.566" cy="2.566" r="2.097"/></g><g class="s" transform="translate(254.531 -969.113)"><circle class="al" cx="2.566" cy="2.566" r="2.566"/><circle class="am" cx="2.566" cy="2.566" r="2.097"/></g><g class="s" transform="translate(254.531 -989.046)"><circle class="al" cx="2.566" cy="2.566" r="2.566"/><circle class="am" cx="2.566" cy="2.566" r="2.097"/></g><rect class="v" width="4.14" height="4.14" transform="translate(176.939 -501.775) rotate(45)"/><rect class="d" width="3.452" height="3.452" transform="translate(174.916 -621.004) rotate(45)"/><rect class="w" width="3.452" height="3.452" transform="translate(168.713 -627.207) rotate(45)"/><rect class="x" width="3.452" height="3.452" transform="translate(161.148 -634.772) rotate(45)"/><circle class="y" cx="2.441" cy="2.441" r="2.441" transform="translate(512.854 -1009.838)"/><circle class="y" cx="2.441" cy="2.441" r="2.441" transform="translate(464.471 -463.81)"/><circle class="f" cx="3.932" cy="3.932" r="3.932" transform="translate(421.353 -374.39)"/><path class="z" d="M1672.285,943.447h4.773a10.094,10.094,0,0,0,0-20.188" transform="translate(-1176.197 -1290.376)"/><path class="u" d="M1285.434,886.11l-7.354-7.354-7.354,7.354" transform="translate(-809.375 -1289.038)"/><path class="aa" d="M997.154,167.74l10.53,10.53,10.53-10.53" transform="translate(-622.629 -1118.921)"/><path class="ab" d="M1793.034,468.647l-8.082,8.082A10.094,10.094,0,0,0,1799.227,491l12.637-12.637" transform="translate(-1298.505 -1257.067)"/><line class="ab" x1="11.499" y2="11.499" transform="translate(502.312 -785.71)"/><line class="ab" x1="14.228" y2="14.228" transform="translate(498.764 -791.986)"/><line class="ab" x1="12.044" y2="12.044" transform="translate(495.216 -793.351)"/><line class="t" y1="16.262" transform="translate(156.366 -885.629)"/><line class="t" y1="20.121" transform="translate(151.349 -885.629)"/><path class="t" d="M66.021,344.867h8.517V336.35" transform="translate(71.794 -1221.979)"/><path class="t" d="M102.449,289.113a10.094,10.094,0,0,1,10.094,10.094v17.872" transform="translate(48.46 -1191.722)"/><path class="t" d="M96.968,299.205a10.1,10.1,0,0,0-18.837-5.047" transform="translate(64.037 -1191.72)"/><line class="t" x1="6.809" y2="11.932" transform="translate(135.359 -897.562)"/><path class="ac" d="M1495.145,865.793l8.082,8.082A10.094,10.094,0,0,0,1517.5,859.6l-6.987-6.987" transform="translate(-1064.995 -1223.761)"/><line class="ac" x2="5.119" y2="5.119" transform="translate(441.422 -368.687)"/><line class="ac" x2="5.938" y2="5.938" transform="translate(437.056 -365.958)"/><line class="ac" x2="14.228" y2="14.228" transform="translate(425.219 -370.7)"/><line class="ad" y1="12.193" transform="translate(272.288 -954.583)"/><line class="ad" y1="9.878" transform="translate(267.206 -956.127)"/><line class="ad" y1="11.036" transform="translate(262.123 -957.284)"/><line class="ad" y1="20.298" transform="translate(257.041 -966.547)"/><line class="ad" x1="3.14" y1="11.661" transform="translate(249.296 -951.459)"/><path class="ad" d="M621.347,194.788A10.1,10.1,0,0,0,641.2,192.2" transform="translate(-368.911 -1134.587)"/><rect class="ae" width="16.897" height="16.897" transform="translate(143.146 -699.049)"/><rect class="d" width="16.897" height="16.897" transform="translate(128.91 -371.429)"/><line class="ae" x1="17.891" y1="17.891" transform="translate(128.319 -372.026)"/><line class="ae" y1="17.973" x2="17.973" transform="translate(128.319 -371.908)"/><circle class="f" cx="12.148" cy="12.148" r="12.148" transform="translate(422.045 -1004.667)"/><path class="af" d="M1184.2,76.711l9.676-5.586-9.676-5.586Z" transform="translate(-753.438 -1063.457)"/><line class="ag" y2="14.692" transform="translate(342.007 -425.621)"/><line class="ag" x2="14.692" transform="translate(334.66 -418.275)"/><g class="ah" transform="translate(-87.672 -1028.041)"><path class="al" d="M228,461.95v14.565H246.81l4.838,4.838v-19.4Z"/><path class="an" d="M 228.9399719238281 462.8874816894531 L 228.9399719238281 475.577392578125 L 246.8102111816406 475.577392578125 L 247.1985473632812 475.577392578125 L 247.4731140136719 475.8519897460938 L 250.7110290527344 479.0899047851562 L 250.7110290527344 476.514892578125 L 250.7110290527344 462.8874816894531 L 228.9399719238281 462.8874816894531 M 228.0024719238281 461.9499816894531 L 251.6485290527344 461.9499816894531 L 251.6485290527344 476.514892578125 L 251.6485290527344 481.3532104492188 L 246.8102111816406 476.514892578125 L 228.0024719238281 476.514892578125 L 228.0024719238281 461.9499816894531 Z"/></g><line class="ac" y2="16.289" transform="translate(159.706 -382.401)"/><line class="ac" y2="20.155" transform="translate(154.68 -386.267)"/><path class="ac" d="M282.741,919.427h6.647v8.531" transform="translate(-139.733 -1294.071)"/><path class="ac" d="M313.988,937.733A10.111,10.111,0,0,0,324.1,927.622V912.546" transform="translate(-159.748 -1289.663)"/><path class="ac" d="M304.086,954.486A10.117,10.117,0,0,1,293.973,964.6H282.741" transform="translate(-139.733 -1316.527)"/><path class="x" d="M47.884,589.093a6.713,6.713,0,0,1,13.426,0v15.243H73.283" transform="translate(83.411 -1379.57)"/><path class="ac" d="M116.294,589.093a6.713,6.713,0,0,1,13.426,0" transform="translate(39.592 -1379.57)"/><path class="d" d="M90.626,668.995a12.966,12.966,0,0,1-25.933,0Z" transform="translate(72.644 -1435.05)"/><path class="ab" d="M1628.4,98.964a5.718,5.718,0,1,1-11.437,0" transform="translate(-1129.764 -696.387)"/><path class="ai" d="M1673.057,162.007a11.045,11.045,0,0,1-11.045,11.045" transform="translate(-1158.617 -736.768)"/><path class="ab" d="M1669.73,98.964a5.725,5.725,0,0,1-5.718,5.718,5.793,5.793,0,0,1-5.8-5.718l-9.431,16.2h10.2" transform="translate(-1150.143 -696.387)"/><rect class="aj" width="10.197" height="6.615" transform="translate(504.568 -604.039)"/><line class="x" x1="12.536" transform="translate(272.817 -432.807)"/><line class="x" x1="5.324" transform="translate(262.361 -432.807)"/><rect class="b" width="4.516" height="4.516" transform="translate(270.251 -436) rotate(45)"/><line class="ad" y2="16.262" transform="translate(248.729 -444.172)"/><line class="ad" y2="20.121" transform="translate(253.746 -448.031)"/><path class="ad" d="M733,913.507h-8.517v8.517" transform="translate(-465.717 -1349.934)"/><path class="ad" d="M693.759,934.6a10.094,10.094,0,0,1-10.094-10.094V906.638" transform="translate(-439.574 -1345.534)"/><path class="ad" d="M683.66,956.356A10.1,10.1,0,0,0,702.5,961.4" transform="translate(-439.57 -1377.38)"/><line class="ad" y1="11.932" x2="6.809" transform="translate(262.927 -427.91)"/><g class="ak" transform="translate(125.353 -886.552)"><circle class="al" cx="6.629" cy="6.629" r="6.629"/><circle class="am" cx="6.629" cy="6.629" r="6.151"/></g></g></g></svg>
