<svg xmlns="http://www.w3.org/2000/svg" width="400" height="669.208" viewBox="0 0 400 669.208"><defs><style>.a,.e{fill:#174ea6;}.a{font-size:55px;font-family:ProductSans-Thin, Product Sans Thin;font-weight:200;letter-spacing:0.02em;}.b{fill:#34a853;}.aa,.ab,.ac,.ad,.ae,.af,.ag,.ah,.aj,.al,.c,.h,.j,.n,.o,.p,.q,.r,.s,.t,.u,.v,.w,.x,.y,.z{fill:none;}.c{stroke:#0d652d;}.aa,.ab,.ac,.ad,.ae,.af,.ag,.ah,.aj,.c,.h,.j,.n,.o,.p,.q,.r,.s,.t,.u,.v,.w,.x,.y,.z{stroke-miterlimit:10;}.c,.h,.j,.n{stroke-width:0.938px;}.d{fill:#a8dab5;}.f{fill:#fde293;}.g{fill:#fbbc04;}.h,.y{stroke:#e37400;}.i{fill:#aecbfa;}.j,.x{stroke:#174ea6;}.k{fill:#4285f4;}.am,.l{fill:#ea4335;}.m{fill:#fad2cf;}.n,.o{stroke:#a50e0e;}.o{stroke-width:0.934px;}.p{stroke:#202124;stroke-width:0.86px;}.q,.w{stroke:#a8dab5;}.q{stroke-width:0.701px;}.aj,.r{stroke:#fde293;}.aa,.ab,.ac,.ad,.ae,.af,.ah,.r,.s{stroke-width:0.938px;}.s{stroke:#4285f4;}.af,.t,.z{stroke:#aecbfa;}.t,.u,.v,.w,.x,.y{stroke-width:0.938px;}.aa,.u{stroke:#ea4335;}.v{stroke:#1e8e3e;}.z{stroke-width:0.934px;}.ab{stroke:#34a853;}.ac{stroke:#fbbc04;}.ad{stroke:#fff;}.ae{stroke:#f9ab00;}.ah{stroke:#fad2cf;}.ai{fill:#fff;}.aj{stroke-width:0.957px;}.ak,.am{stroke:none;}</style></defs><g transform="translate(-8 -56.622)"><g transform="translate(-8.028 317.951)"><text class="a" transform="translate(115.79 53)"><tspan x="-29.15" y="0" xml:space="preserve">    </tspan><tspan x="-21.725" y="65" xml:space="preserve">   </tspan><tspan x="0" y="130"></tspan></text><g transform="translate(167.835 12.178)"><g transform="translate(0 5.15)"><path class="b" d="M511.193,664.6a24.5,24.5,0,0,1,0-49Z" transform="translate(-486.694 -615.605)"/><rect class="b" width="21.777" height="16.333" transform="translate(24.499)"/><path class="c" d="M507.452,659.46a16.333,16.333,0,0,1,11.423-28.007h12.25" transform="translate(-494.376 -623.287)"/><rect class="d" width="21.777" height="16.333" transform="translate(24.499 32.666)"/><path class="c" d="M507.531,640.514a16.333,16.333,0,0,0,11.422,28.007H531.2" transform="translate(-494.414 -627.679)"/></g><path class="e" d="M-1.2-5.936h-.224A12.707,12.707,0,0,1-5.964-.952,11.492,11.492,0,0,1-12.236.9,12.127,12.127,0,0,1-16.352.224,10.239,10.239,0,0,1-19.6-1.624a8.216,8.216,0,0,1-2.128-2.8,8.256,8.256,0,0,1-.756-3.528A7.792,7.792,0,0,1-21.5-11.9a9.289,9.289,0,0,1,2.576-2.884,11.378,11.378,0,0,1,3.64-1.764,15.217,15.217,0,0,1,4.228-.588,19.368,19.368,0,0,1,5.208.7A19.817,19.817,0,0,1-1.2-14.5v-2.184a11.167,11.167,0,0,0-.728-4.172A9.04,9.04,0,0,0-3.92-23.94a8.541,8.541,0,0,0-3-1.932,10.463,10.463,0,0,0-3.808-.672A10.008,10.008,0,0,0-15.876-25.2,9.411,9.411,0,0,0-19.4-21.672l-1.736-1.064a11.18,11.18,0,0,1,4.312-4.06,12.459,12.459,0,0,1,6.1-1.54,12.707,12.707,0,0,1,4.7.84,11,11,0,0,1,3.64,2.3A10.147,10.147,0,0,1-.028-21.7a11.451,11.451,0,0,1,.84,4.4V0H-1.2Zm0-6.664a21.745,21.745,0,0,0-4.48-2.016,17.006,17.006,0,0,0-5.152-.728,14.461,14.461,0,0,0-3.78.476,9.371,9.371,0,0,0-3.052,1.4,6.883,6.883,0,0,0-2.044,2.3,6.568,6.568,0,0,0-.756,3.22,6.37,6.37,0,0,0,.672,2.94,6.832,6.832,0,0,0,1.82,2.24,8.05,8.05,0,0,0,2.66,1.4A10.568,10.568,0,0,0-12.124-.9a9.307,9.307,0,0,0,4.06-.952,11.571,11.571,0,0,0,3.5-2.576A13.248,13.248,0,0,0-2.128-8.148,10.933,10.933,0,0,0-1.2-12.6ZM8.484,0V-40.1H10.5V0ZM18.676,0V-40.1h2.016V0Z" transform="translate(74.193 53.73)"/></g><g transform="translate(174.981 91.297)"><g transform="translate(0 5.2)"><rect class="f" width="19.818" height="48.896"/><rect class="g" width="16.302" height="12.224" transform="translate(19.818)"/><rect class="g" width="12.224" height="12.224" transform="translate(19.818 24.448)"/><path class="h" d="M763.642,674.927H751.048v12.594" transform="translate(-741.139 -644.41)"/><path class="h" d="M769.082,627.556H751.048V645.59" transform="translate(-741.139 -621.448)"/></g><path class="e" d="M-8.848-28.336a13.029,13.029,0,0,1,5.4,1.12,13.2,13.2,0,0,1,4.312,3.08,14.378,14.378,0,0,1,2.856,4.62,15.835,15.835,0,0,1,1.036,5.8,15.835,15.835,0,0,1-1.036,5.8A14.378,14.378,0,0,1,.868-3.3,13.2,13.2,0,0,1-3.444-.224,13.029,13.029,0,0,1-8.848.9a13.029,13.029,0,0,1-5.4-1.12A13.2,13.2,0,0,1-18.564-3.3a14.378,14.378,0,0,1-2.856-4.62,15.835,15.835,0,0,1-1.036-5.8,15.835,15.835,0,0,1,1.036-5.8,14.378,14.378,0,0,1,2.856-4.62,13.2,13.2,0,0,1,4.312-3.08A13.029,13.029,0,0,1-8.848-28.336Zm0,27.44a10.4,10.4,0,0,0,4.34-.952A11.853,11.853,0,0,0-.784-4.508a12.778,12.778,0,0,0,2.576-4.06,13.606,13.606,0,0,0,.952-5.152,13.606,13.606,0,0,0-.952-5.152,12.778,12.778,0,0,0-2.576-4.06,11.853,11.853,0,0,0-3.724-2.66,10.4,10.4,0,0,0-4.34-.952,10.341,10.341,0,0,0-4.368.952,11.954,11.954,0,0,0-3.7,2.66,12.778,12.778,0,0,0-2.576,4.06,13.606,13.606,0,0,0-.952,5.152,13.606,13.606,0,0,0,.952,5.152,12.778,12.778,0,0,0,2.576,4.06,11.954,11.954,0,0,0,3.7,2.66A10.341,10.341,0,0,0-8.848-.9ZM10.584,0V-27.44h1.792v5.152H12.6a7.623,7.623,0,0,1,1.2-2.436A8.937,8.937,0,0,1,15.68-26.6a8.563,8.563,0,0,1,2.268-1.2,7.193,7.193,0,0,1,2.38-.42,10.344,10.344,0,0,1,2.044.168,5.425,5.425,0,0,1,1.6.616L23.352-25.7a6,6,0,0,0-1.372-.532,7.337,7.337,0,0,0-1.82-.2,5.634,5.634,0,0,0-2.8.756,7.779,7.779,0,0,0-2.408,2.184,11.708,11.708,0,0,0-1.708,3.416,14.207,14.207,0,0,0-.644,4.4V0Z" transform="translate(60.047 53.611)"/></g><g transform="translate(90.361 167.091)"><g transform="translate(240.721 5.2)"><rect class="i" width="12.059" height="34.446"/><ellipse class="j" cx="2.941" cy="2.941" rx="2.941" ry="2.941" transform="translate(3.088 13.549)"/><ellipse class="j" cx="2.941" cy="2.941" rx="2.941" ry="2.941" transform="translate(3.088 24.825)"/><ellipse class="k" cx="6.03" cy="6.03" rx="6.03" ry="6.03" transform="translate(0 36.518)"/></g><g transform="translate(0 4.964)"><path class="l" d="M961.084,651.917a18.336,18.336,0,0,1,0-36.672Z" transform="translate(-942.748 -615.245)"/><rect class="l" width="16.299" height="12.224" transform="translate(18.336 0)"/><path class="m" d="M963,638.968v24.448H946.7V675.64H963a18.336,18.336,0,0,0,0-36.672Z" transform="translate(-944.665 -626.744)"/><path class="n" d="M958.285,648.068a12.224,12.224,0,0,1,8.549-20.961H976" transform="translate(-948.498 -620.995)"/><path class="n" d="M967.116,675.277H972.9a12.224,12.224,0,1,0,0-24.448" transform="translate(-954.559 -632.493)"/></g><path class="e" d="M-90.007-26.95h1.76v5.665h.22a15.085,15.085,0,0,1,1.705-2.5,11.143,11.143,0,0,1,2.338-2.09,11.259,11.259,0,0,1,3.107-1.43,14.118,14.118,0,0,1,4.015-.523,11.74,11.74,0,0,1,4.9,1.045,11.984,11.984,0,0,1,4.015,2.943,14.126,14.126,0,0,1,2.695,4.537,16.487,16.487,0,0,1,.99,5.83,16.487,16.487,0,0,1-.99,5.83,14.126,14.126,0,0,1-2.695,4.538A11.984,11.984,0,0,1-71.967-.165,11.74,11.74,0,0,1-76.863.88,14.118,14.118,0,0,1-80.878.358a11.259,11.259,0,0,1-3.107-1.43,11.143,11.143,0,0,1-2.338-2.09,15.085,15.085,0,0,1-1.705-2.5h-.22l.22,3.74V11.88h-1.98ZM-77.247-.88a10.178,10.178,0,0,0,4.18-.88,10.647,10.647,0,0,0,3.493-2.5,12.212,12.212,0,0,0,2.42-3.96,14.415,14.415,0,0,0,.907-5.253,14.415,14.415,0,0,0-.907-5.252,12.212,12.212,0,0,0-2.42-3.96,10.647,10.647,0,0,0-3.493-2.5,10.178,10.178,0,0,0-4.18-.88,10.459,10.459,0,0,0-4.18.852A10.486,10.486,0,0,0-84.92-22.77a11.833,11.833,0,0,0-2.42,3.96,14.8,14.8,0,0,0-.908,5.335A14.8,14.8,0,0,0-87.34-8.14a11.833,11.833,0,0,0,2.42,3.96,10.486,10.486,0,0,0,3.492,2.447A10.459,10.459,0,0,0-77.247-.88Zm42.075-5.5A14.356,14.356,0,0,1-36.85-3.63a11.154,11.154,0,0,1-2.42,2.31,12.266,12.266,0,0,1-3.217,1.6,12.827,12.827,0,0,1-4.07.605,12.884,12.884,0,0,1-5.28-1.073,12.413,12.413,0,0,1-4.18-3,13.993,13.993,0,0,1-2.75-4.537,16.1,16.1,0,0,1-.99-5.748A16.725,16.725,0,0,1-58.85-19a13.946,13.946,0,0,1,2.585-4.565,12.411,12.411,0,0,1,4.07-3.108,12.048,12.048,0,0,1,5.307-1.155,12.656,12.656,0,0,1,5.088.99,10.822,10.822,0,0,1,3.878,2.805,12.934,12.934,0,0,1,2.475,4.345,16.988,16.988,0,0,1,.88,5.61v.275a.9.9,0,0,0-.055.275v.33H-57.778a13.448,13.448,0,0,0,1.072,5.637A11.516,11.516,0,0,0-53.983-3.74a10.585,10.585,0,0,0,3.63,2.173A11.7,11.7,0,0,0-46.5-.88a11.844,11.844,0,0,0,3.493-.467A8.862,8.862,0,0,0-40.37-2.64a9.776,9.776,0,0,0,2.007-1.98,21.5,21.5,0,0,0,1.65-2.53Zm-1.375-8.58a14.6,14.6,0,0,0-.632-3.657,11.623,11.623,0,0,0-1.787-3.6,9.756,9.756,0,0,0-3.19-2.75A9.839,9.839,0,0,0-47-26.07a10.333,10.333,0,0,0-3.6.66,10.073,10.073,0,0,0-3.3,2.035,11.668,11.668,0,0,0-2.557,3.465,14,14,0,0,0-1.32,4.95ZM-8.883-5.83H-9.1A12.48,12.48,0,0,1-13.558-.935,11.287,11.287,0,0,1-19.718.88,11.91,11.91,0,0,1-23.76.22a10.056,10.056,0,0,1-3.19-1.815,8.069,8.069,0,0,1-2.09-2.75,8.108,8.108,0,0,1-.743-3.465,7.653,7.653,0,0,1,.962-3.877,9.123,9.123,0,0,1,2.53-2.832,11.175,11.175,0,0,1,3.575-1.733,14.945,14.945,0,0,1,4.153-.577,19.022,19.022,0,0,1,5.115.688,19.463,19.463,0,0,1,4.565,1.9V-16.39a10.968,10.968,0,0,0-.715-4.1,8.878,8.878,0,0,0-1.952-3.025,8.389,8.389,0,0,0-2.943-1.9,10.277,10.277,0,0,0-3.74-.66,9.829,9.829,0,0,0-5.06,1.32,9.243,9.243,0,0,0-3.465,3.465l-1.7-1.045a10.981,10.981,0,0,1,4.235-3.988,12.237,12.237,0,0,1,6-1.512,12.48,12.48,0,0,1,4.62.825,10.8,10.8,0,0,1,3.575,2.255,9.966,9.966,0,0,1,2.31,3.438A11.247,11.247,0,0,1-6.9-16.995V0h-1.98Zm0-6.545a21.357,21.357,0,0,0-4.4-1.98,16.7,16.7,0,0,0-5.06-.715,14.2,14.2,0,0,0-3.713.467,9.2,9.2,0,0,0-3,1.375,6.76,6.76,0,0,0-2.007,2.255A6.451,6.451,0,0,0-27.8-7.81a6.256,6.256,0,0,0,.66,2.888,6.71,6.71,0,0,0,1.787,2.2,7.907,7.907,0,0,0,2.612,1.375,10.379,10.379,0,0,0,3.135.467,9.141,9.141,0,0,0,3.987-.935,11.365,11.365,0,0,0,3.438-2.53A13.012,13.012,0,0,0-9.79-8,10.737,10.737,0,0,0-8.883-12.375ZM.632-39.38h1.98v28.05l15.62-15.62h2.42v.22l-9.735,9.845L22.192-.22V0h-2.2L9.487-15.455,2.612-8.58V0H.632Zm48.125,33A14.356,14.356,0,0,1,47.08-3.63a11.154,11.154,0,0,1-2.42,2.31,12.266,12.266,0,0,1-3.217,1.6,12.827,12.827,0,0,1-4.07.605,12.884,12.884,0,0,1-5.28-1.073,12.413,12.413,0,0,1-4.18-3,13.992,13.992,0,0,1-2.75-4.537,16.1,16.1,0,0,1-.99-5.748A16.725,16.725,0,0,1,25.08-19a13.946,13.946,0,0,1,2.585-4.565,12.411,12.411,0,0,1,4.07-3.108,12.048,12.048,0,0,1,5.307-1.155,12.656,12.656,0,0,1,5.088.99,10.822,10.822,0,0,1,3.878,2.805,12.934,12.934,0,0,1,2.475,4.345,16.988,16.988,0,0,1,.88,5.61v.275a.9.9,0,0,0-.055.275v.33H26.152a13.448,13.448,0,0,0,1.073,5.637A11.516,11.516,0,0,0,29.947-3.74a10.585,10.585,0,0,0,3.63,2.173,11.7,11.7,0,0,0,3.85.687,11.844,11.844,0,0,0,3.493-.467A8.862,8.862,0,0,0,43.56-2.64a9.776,9.776,0,0,0,2.007-1.98,21.5,21.5,0,0,0,1.65-2.53Zm-1.375-8.58a14.6,14.6,0,0,0-.632-3.657,11.623,11.623,0,0,0-1.787-3.6,9.756,9.756,0,0,0-3.19-2.75,9.839,9.839,0,0,0-4.84-1.1,10.333,10.333,0,0,0-3.6.66,10.073,10.073,0,0,0-3.3,2.035,11.668,11.668,0,0,0-2.557,3.465,14,14,0,0,0-1.32,4.95ZM55.632,0V-26.95h1.76v5.06h.22a7.487,7.487,0,0,1,1.182-2.393,8.777,8.777,0,0,1,1.843-1.842,8.41,8.41,0,0,1,2.228-1.182A7.064,7.064,0,0,1,65.2-27.72a10.159,10.159,0,0,1,2.007.165,5.328,5.328,0,0,1,1.568.6l-.6,1.705a5.888,5.888,0,0,0-1.348-.523,7.206,7.206,0,0,0-1.787-.193,5.534,5.534,0,0,0-2.75.743,7.641,7.641,0,0,0-2.365,2.145,11.5,11.5,0,0,0-1.678,3.355,13.954,13.954,0,0,0-.632,4.318V0Zm25.85.88A12.022,12.022,0,0,1,77.6.275a11.427,11.427,0,0,1-3.19-1.65,10.817,10.817,0,0,1-2.393-2.447,11.652,11.652,0,0,1-1.54-3.053l1.76-.77a9.664,9.664,0,0,0,3.63,5,9.6,9.6,0,0,0,5.61,1.76A9.55,9.55,0,0,0,87.56-2.64a5.4,5.4,0,0,0,2.228-4.4,5.06,5.06,0,0,0-.33-1.843,4.11,4.11,0,0,0-1.183-1.595A8.131,8.131,0,0,0,86.02-11.8a23.208,23.208,0,0,0-3.548-1.073l-3.465-.77a22.779,22.779,0,0,1-2.833-.853,9.9,9.9,0,0,1-2.5-1.347,7.343,7.343,0,0,1-1.815-1.953,4.773,4.773,0,0,1-.715-2.612,5.726,5.726,0,0,1,.853-3.08,7.7,7.7,0,0,1,2.283-2.338,11.494,11.494,0,0,1,3.217-1.485,13.164,13.164,0,0,1,3.713-.523,12.118,12.118,0,0,1,6.243,1.595,8.577,8.577,0,0,1,3.823,4.675l-1.705.715a8.76,8.76,0,0,0-3.3-3.987,9.469,9.469,0,0,0-5.005-1.237,11.9,11.9,0,0,0-3.052.385,8.7,8.7,0,0,0-2.585,1.128A6.252,6.252,0,0,0,73.81-22.77a4.207,4.207,0,0,0-.687,2.365,3.286,3.286,0,0,0,.522,1.842,5.3,5.3,0,0,0,1.43,1.43,9.787,9.787,0,0,0,2.145,1.1,20.749,20.749,0,0,0,2.667.8l3.85.88a12.761,12.761,0,0,1,6.05,2.833A5.836,5.836,0,0,1,91.768-7.2a7.083,7.083,0,0,1-.715,3.162A7.617,7.617,0,0,1,88.99-1.485,10.148,10.148,0,0,1,85.745.247,13.436,13.436,0,0,1,81.482.88Z" transform="translate(134.667 52.816)"/></g></g><g transform="translate(77.972 184.141)"><rect class="m" width="13.993" height="34.524" transform="translate(124.191 0)"/><rect class="i" width="13.993" height="34.524" transform="translate(234.352 0)"/><rect class="d" width="13.993" height="34.524" transform="translate(0 0)"/><path class="g" d="M767.323,373.263h0V338.739h0a12.346,12.346,0,0,0-12.346,12.346v9.833A12.345,12.345,0,0,0,767.323,373.263Z" transform="translate(-715.252 -338.739)"/><rect class="f" width="15.645" height="34.524" transform="translate(52.071 0)"/><path class="i" d="M839.116,338.74l19.932,34.524V338.74Z" transform="translate(-762.93 -338.739)"/><path class="k" d="M905.044,338.74H885.112v34.524h0Z" transform="translate(-788.993 -338.739)"/><path class="b" d="M695.6,338.739a17.262,17.262,0,1,1,0,34.524Z" transform="translate(-681.605 -338.739)"/><path class="c" d="M686.449,375.291a10.671,10.671,0,0,0,0-21.341h-7v8.167" transform="translate(-672.456 -347.358)"/><path class="g" d="M1126.879,364.632a12.946,12.946,0,0,1,0-25.893Z" transform="translate(-918.656 -338.739)"/><rect class="l" width="11.51" height="8.631" transform="translate(138.184 0)"/><rect class="k" width="8.797" height="8.631" transform="translate(225.556 0)"/><rect class="k" width="8.797" height="8.631" transform="translate(248.345 0)"/><rect class="l" width="8.631" height="8.631" transform="translate(138.184 17.262)"/><rect class="g" width="11.508" height="8.631" transform="translate(208.224 0)"/><path class="f" d="M1128.761,358.656v17.262h-11.508v8.631h11.508a12.946,12.946,0,1,0,0-25.893Z" transform="translate(-920.537 -350.025)"/><path class="h" d="M1126.486,363.5a8.631,8.631,0,0,1,6.036-14.8H1139" transform="translate(-924.298 -344.382)"/><line class="j" x2="22.79" transform="translate(229.954 4.399)"/><path class="b" d="M1040.08,373.263h0V338.739h0a12.346,12.346,0,0,0-12.346,12.346v9.833A12.345,12.345,0,0,0,1040.08,373.263Z" transform="translate(-869.811 -338.739)"/><rect class="d" width="15.645" height="34.524" transform="translate(170.269 0)"/><line class="c" x1="2.229" y1="0.015" transform="translate(164.19 12.033)"/><line class="c" x1="15.326" transform="translate(170.589 12.07)"/><line class="c" x1="4.576" transform="translate(181.339 22.455)"/><line class="c" x1="3.479" transform="translate(173.686 22.455)"/><ellipse class="j" cx="2.194" cy="2.194" rx="2.194" ry="2.194" transform="translate(93.924 18.177)"/><ellipse class="j" cx="2.194" cy="2.194" rx="2.194" ry="2.194" transform="translate(101.6 4.883)"/><line class="j" x1="5.494" y2="9.515" transform="translate(97.203 8.977)"/><ellipse class="j" cx="2.194" cy="2.194" rx="2.194" ry="2.194" transform="translate(86.249 4.883)"/><line class="j" x2="5.494" y2="9.515" transform="translate(89.54 8.977)"/><rect class="c" width="3.54" height="3.54" transform="translate(6.996 14.759) rotate(45)"/><rect class="c" width="2.952" height="2.952" transform="translate(179.252 20.368) rotate(45)"/><rect class="c" width="2.952" height="2.952" transform="translate(168.547 9.982) rotate(45)"/><ellipse class="j" cx="2.087" cy="2.087" rx="2.087" ry="2.087" transform="translate(239.262 9.613)"/><ellipse class="j" cx="2.087" cy="2.087" rx="2.087" ry="2.087" transform="translate(239.262 17.613)"/><ellipse class="j" cx="2.087" cy="2.087" rx="2.087" ry="2.087" transform="translate(239.262 25.613)"/><path class="h" d="M1134.392,385.877h4.08a8.631,8.631,0,0,0,0-17.262" transform="translate(-930.249 -355.668)"/><path class="n" d="M974.93,388.462h-8.892v8.892" transform="translate(-834.85 -366.915)"/><path class="o" d="M978.771,348.69H966.038v12.733" transform="translate(-834.85 -344.378)"/><line class="h" x1="15.708" transform="translate(52.008 12.07)"/><line class="h" x1="15.708" transform="translate(52.008 17.262)"/><line class="h" x1="15.708" transform="translate(52.008 22.455)"/><path class="p" d="M1055.678,453.6a8.631,8.631,0,0,1,8.631,8.631v8.631a8.631,8.631,0,0,1-8.631,8.631H1049.2" transform="translate(-881.977 -403.828)"/><path class="p" d="M917.507,453.6a8.631,8.631,0,0,1,8.631,8.631v8.631a8.631,8.631,0,1,1-17.262,0v-8.631A8.631,8.631,0,0,1,917.507,453.6Z" transform="translate(-802.459 -403.828)"/><line class="p" y2="25.81" transform="translate(144.598 49.859)"/><path class="p" d="M851.43,507.712H838.592V503.4" transform="translate(-762.633 -432.043)"/><path class="p" d="M838.592,475.182a6.043,6.043,0,0,1,6.043-6.043,7.767,7.767,0,0,0,0-15.535h-6.043" transform="translate(-762.633 -403.828)"/><path class="p" d="M1052.857,453.6a8.631,8.631,0,1,0,8.631,8.631" transform="translate(-879.156 -403.828)"/></g><g transform="translate(-117.353 1066.929)"><g transform="translate(499.257 -763.803)"><line class="q" y1="9.377" transform="translate(1.919 8.47)"/><line class="q" y1="4.631" transform="translate(1.919)"/><circle class="q" cx="1.919" cy="1.919" r="1.919" transform="translate(0 4.631)"/></g><g class="r" transform="translate(500.561 -530.792)"><ellipse class="ak" cx="6.912" cy="17.489" rx="6.912" ry="17.489"/><ellipse class="al" cx="6.912" cy="17.489" rx="6.444" ry="17.021"/></g><line class="r" x2="33.124" transform="translate(490.948 -519.133)"/><g class="r" transform="translate(488.984 -530.792)"><circle class="ak" cx="17.489" cy="17.489" r="17.489"/><circle class="al" cx="17.489" cy="17.489" r="17.021"/></g><line class="r" x2="32.915" transform="translate(491.053 -507.473)"/><path class="m" d="M1689.969,711.242l-13.979-24.212-13.979,24.212" transform="translate(-1164.616 -1130.171)"/><rect class="f" width="10.703" height="4.034" transform="translate(175.98 -419.929)"/><rect class="m" width="16.365" height="40.376" transform="translate(323.556 -999.4)"/><rect class="i" width="16.365" height="40.376" transform="translate(513.272 -675.525) rotate(180)"/><path class="s" d="M1846.879,794.806" transform="translate(-1340.065 -1487.983)"/><line class="s" x1="11.109" transform="translate(491.352 -685.798)"/><line class="s" x1="11.109" transform="translate(491.352 -694.447)"/><rect class="m" width="20.224" height="40.376" transform="translate(131.155 -578.997)"/><path class="g" d="M164.556,143.46h40.376a14.438,14.438,0,0,0-14.438-14.438h-11.5A14.438,14.438,0,0,0,164.556,143.46Z" transform="translate(-36.321 -1094.121)"/><rect class="f" width="34.822" height="40.376" transform="translate(134.183 -707.305)"/><path class="i" d="M425.353,33.6l23.311,40.376V33.6Z" transform="translate(-235.371 -1033)"/><path class="k" d="M515.729,969.831l-20.188-11.656-20.188,34.967h0Z" transform="translate(-270.377 -1340.071)"/><rect class="l" width="13.462" height="10.094" transform="translate(140.039 -461.729)"/><rect class="k" width="10.288" height="10.094" transform="translate(510.078 -904.426) rotate(45)"/><rect class="k" width="10.288" height="10.094" transform="translate(505.072 -643.023)"/><rect class="l" width="10.094" height="10.094" transform="translate(363.258 -354.929)"/><rect class="l" width="13.459" height="10.094" transform="translate(498.425 -841.394)"/><path class="g" d="M1382.412,968.5l-14.275,14.275-9.517-9.517-7.138,7.138,9.517,9.517a15.141,15.141,0,0,0,21.413-21.413Z" transform="translate(-962.129 -1411.427)"/><path class="d" d="M922.588,951.509h0l-28.551-28.55h0a14.438,14.438,0,0,0,0,20.419l8.132,8.131A14.438,14.438,0,0,0,922.588,951.509Z" transform="translate(-599.023 -1310.667)"/><rect class="d" width="40.376" height="18.298" transform="translate(459.233 -961.788)"/><circle class="t" cx="2.566" cy="2.566" r="2.566" transform="translate(261.445 -346.7)"/><g class="r" transform="translate(254.531 -979.079)"><circle class="ak" cx="2.566" cy="2.566" r="2.566"/><circle class="al" cx="2.566" cy="2.566" r="2.097"/></g><g class="r" transform="translate(254.531 -969.113)"><circle class="ak" cx="2.566" cy="2.566" r="2.566"/><circle class="al" cx="2.566" cy="2.566" r="2.097"/></g><g class="r" transform="translate(254.531 -989.046)"><circle class="ak" cx="2.566" cy="2.566" r="2.566"/><circle class="al" cx="2.566" cy="2.566" r="2.097"/></g><rect class="u" width="4.14" height="4.14" transform="translate(176.939 -501.775) rotate(45)"/><rect class="d" width="3.452" height="3.452" transform="translate(174.916 -621.004) rotate(45)"/><rect class="v" width="3.452" height="3.452" transform="translate(168.713 -627.207) rotate(45)"/><rect class="w" width="3.452" height="3.452" transform="translate(161.148 -634.772) rotate(45)"/><circle class="x" cx="2.441" cy="2.441" r="2.441" transform="translate(512.854 -1009.838)"/><circle class="x" cx="2.441" cy="2.441" r="2.441" transform="translate(464.471 -463.81)"/><circle class="f" cx="3.932" cy="3.932" r="3.932" transform="translate(421.353 -374.39)"/><path class="y" d="M1672.285,943.447h4.773a10.094,10.094,0,0,0,0-20.188" transform="translate(-1176.197 -1290.376)"/><path class="t" d="M1285.434,886.11l-7.354-7.354-7.354,7.354" transform="translate(-809.375 -1289.038)"/><path class="z" d="M997.154,167.74l10.53,10.53,10.53-10.53" transform="translate(-622.629 -1118.921)"/><path class="aa" d="M1793.034,468.647l-8.082,8.082A10.094,10.094,0,0,0,1799.227,491l12.637-12.637" transform="translate(-1298.505 -1257.067)"/><line class="aa" x1="11.499" y2="11.499" transform="translate(502.312 -785.71)"/><line class="aa" x1="14.228" y2="14.228" transform="translate(498.764 -791.986)"/><line class="aa" x1="12.044" y2="12.044" transform="translate(495.216 -793.351)"/><line class="s" y1="16.262" transform="translate(156.366 -885.629)"/><line class="s" y1="20.121" transform="translate(151.349 -885.629)"/><path class="s" d="M66.021,344.867h8.517V336.35" transform="translate(71.794 -1221.979)"/><path class="s" d="M102.449,289.113a10.094,10.094,0,0,1,10.094,10.094v17.872" transform="translate(48.46 -1191.722)"/><path class="s" d="M96.968,299.205a10.1,10.1,0,0,0-18.837-5.047" transform="translate(64.037 -1191.72)"/><line class="s" x1="6.809" y2="11.932" transform="translate(135.359 -897.562)"/><path class="ab" d="M1495.145,865.793l8.082,8.082A10.094,10.094,0,0,0,1517.5,859.6l-6.987-6.987" transform="translate(-1064.995 -1223.761)"/><line class="ab" x2="5.119" y2="5.119" transform="translate(441.422 -368.687)"/><line class="ab" x2="5.938" y2="5.938" transform="translate(437.056 -365.958)"/><line class="ab" x2="14.228" y2="14.228" transform="translate(425.219 -370.7)"/><line class="ac" y1="12.193" transform="translate(272.288 -954.583)"/><line class="ac" y1="9.878" transform="translate(267.206 -956.127)"/><line class="ac" y1="11.036" transform="translate(262.123 -957.284)"/><line class="ac" y1="20.298" transform="translate(257.041 -966.547)"/><line class="ac" x1="3.14" y1="11.661" transform="translate(249.296 -951.459)"/><path class="ac" d="M621.347,194.788A10.1,10.1,0,0,0,641.2,192.2" transform="translate(-368.911 -1134.587)"/><rect class="ad" width="16.897" height="16.897" transform="translate(143.146 -699.049)"/><rect class="d" width="16.897" height="16.897" transform="translate(128.91 -371.429)"/><line class="ad" x1="17.891" y1="17.891" transform="translate(128.319 -372.026)"/><line class="ad" y1="17.973" x2="17.973" transform="translate(128.319 -371.908)"/><circle class="f" cx="12.148" cy="12.148" r="12.148" transform="translate(422.045 -1004.667)"/><path class="ae" d="M1184.2,76.711l9.676-5.586-9.676-5.586Z" transform="translate(-753.438 -1063.457)"/><line class="af" y2="14.692" transform="translate(342.007 -425.621)"/><line class="af" x2="14.692" transform="translate(334.66 -418.275)"/><g class="ag" transform="translate(-87.672 -1028.041)"><path class="ak" d="M228,461.95v14.565H246.81l4.838,4.838v-19.4Z"/><path class="am" d="M 228.9399719238281 462.8874816894531 L 228.9399719238281 475.577392578125 L 246.8102111816406 475.577392578125 L 247.1985473632812 475.577392578125 L 247.4731140136719 475.8519897460938 L 250.7110290527344 479.0899047851562 L 250.7110290527344 476.514892578125 L 250.7110290527344 462.8874816894531 L 228.9399719238281 462.8874816894531 M 228.0024719238281 461.9499816894531 L 251.6485290527344 461.9499816894531 L 251.6485290527344 476.514892578125 L 251.6485290527344 481.3532104492188 L 246.8102111816406 476.514892578125 L 228.0024719238281 476.514892578125 L 228.0024719238281 461.9499816894531 Z"/></g><line class="ab" y2="16.289" transform="translate(159.706 -382.401)"/><line class="ab" y2="20.155" transform="translate(154.68 -386.267)"/><path class="ab" d="M282.741,919.427h6.647v8.531" transform="translate(-139.733 -1294.071)"/><path class="ab" d="M313.988,937.733A10.111,10.111,0,0,0,324.1,927.622V912.546" transform="translate(-159.748 -1289.663)"/><path class="ab" d="M304.086,954.486A10.117,10.117,0,0,1,293.973,964.6H282.741" transform="translate(-139.733 -1316.527)"/><path class="w" d="M47.884,589.093a6.713,6.713,0,0,1,13.426,0v15.243H73.283" transform="translate(83.411 -1379.57)"/><path class="ab" d="M116.294,589.093a6.713,6.713,0,0,1,13.426,0" transform="translate(39.592 -1379.57)"/><path class="d" d="M90.626,668.995a12.966,12.966,0,0,1-25.933,0Z" transform="translate(72.644 -1435.05)"/><path class="aa" d="M1628.4,98.964a5.718,5.718,0,1,1-11.437,0" transform="translate(-1129.764 -696.387)"/><path class="ah" d="M1673.057,162.007a11.045,11.045,0,0,1-11.045,11.045" transform="translate(-1158.617 -736.768)"/><path class="aa" d="M1669.73,98.964a5.725,5.725,0,0,1-5.718,5.718,5.793,5.793,0,0,1-5.8-5.718l-9.431,16.2h10.2" transform="translate(-1150.143 -696.387)"/><rect class="ai" width="10.197" height="6.615" transform="translate(504.568 -604.039)"/><line class="w" x1="12.536" transform="translate(272.817 -432.807)"/><line class="w" x1="5.324" transform="translate(262.361 -432.807)"/><rect class="b" width="4.516" height="4.516" transform="translate(270.251 -436) rotate(45)"/><line class="ac" y2="16.262" transform="translate(248.729 -444.172)"/><line class="ac" y2="20.121" transform="translate(253.746 -448.031)"/><path class="ac" d="M733,913.507h-8.517v8.517" transform="translate(-465.717 -1349.934)"/><path class="ac" d="M693.759,934.6a10.094,10.094,0,0,1-10.094-10.094V906.638" transform="translate(-439.574 -1345.534)"/><path class="ac" d="M683.66,956.356A10.1,10.1,0,0,0,702.5,961.4" transform="translate(-439.57 -1377.38)"/><line class="ac" y1="11.932" x2="6.809" transform="translate(262.927 -427.91)"/><g class="aj" transform="translate(125.353 -886.552)"><circle class="ak" cx="6.629" cy="6.629" r="6.629"/><circle class="al" cx="6.629" cy="6.629" r="6.151"/></g></g></g></svg>