<svg xmlns="http://www.w3.org/2000/svg" width="1844.845" height="1021.849" viewBox="0 0 1844.845 1021.849"><defs><style>.a,.ab,.ac,.ad,.ae,.af,.ag,.ah,.ak,.b,.f,.k,.l,.m,.n,.o,.p,.q,.r,.s,.t,.u,.v,.w,.x,.y{fill:none;}.a,.n{stroke:#a8dab5;}.a,.ab,.ac,.ad,.ae,.af,.ag,.ah,.b,.f,.k,.l,.m,.n,.o,.p,.q,.r,.s,.t,.u,.v,.w,.x,.y{stroke-miterlimit:10;}.a{stroke-width:0.701px;}.ab,.b{stroke:#fde293;}.b,.f,.r,.s,.t,.u,.v,.w,.y{stroke-width:0.938px;}.c{fill:#fad2cf;}.d{fill:#fde293;}.e{fill:#aecbfa;}.f{stroke:#4285f4;}.g{fill:#fbbc04;}.h{fill:#4285f4;}.al,.i{fill:#ea4335;}.j{fill:#a8dab5;}.k,.q,.w{stroke:#aecbfa;}.k,.l,.m,.n,.o,.p{stroke-width:0.938px;}.l,.r{stroke:#ea4335;}.m{stroke:#1e8e3e;}.ae,.o{stroke:#174ea6;}.ad,.p{stroke:#e37400;}.q{stroke-width:0.934px;}.s{stroke:#34a853;}.t{stroke:#fbbc04;}.u{stroke:#fff;}.v{stroke:#f9ab00;}.y{stroke:#fad2cf;}.z{fill:#fff;}.aa{fill:#34a853;}.ab{stroke-width:0.957px;}.ac{stroke:#0d652d;}.ac,.ad,.ae,.af{stroke-width:0.938px;}.af,.ag{stroke:#a50e0e;}.ag{stroke-width:0.934px;}.ah{stroke:#202124;stroke-width:0.86px;}.ai{fill:#174ea6;font-size:110.614px;font-family:ProductSans-Thin, Product Sans Thin;font-weight:200;letter-spacing:0.02em;}.aj,.al{stroke:none;}</style></defs><g transform="translate(-31.353 -33.6)"><line class="a" y1="26.085" transform="translate(1831.196 560.69)"/><line class="a" y1="12.884" transform="translate(1831.196 537.128)"/><circle class="a" cx="5.339" cy="5.339" r="5.339" transform="translate(1825.857 550.012)"/><g class="b" transform="translate(1654.128 284.324)"><ellipse class="aj" cx="19.23" cy="48.654" rx="19.23" ry="48.654"/><ellipse class="ak" cx="19.23" cy="48.654" rx="18.761" ry="48.185"/></g><line class="b" x2="92.147" transform="translate(1627.385 316.76)"/><g class="b" transform="translate(1624.704 284.324)"><circle class="aj" cx="48.654" cy="48.654" r="48.654"/><circle class="ak" cx="48.654" cy="48.654" r="48.185"/></g><line class="b" x2="91.566" transform="translate(1627.677 349.196)"/><path class="c" d="M1739.786,754.385,1700.9,687.031l-38.887,67.355"/><rect class="d" width="29.774" height="11.223" transform="translate(532.167 860.241)"/><rect class="c" width="45.526" height="112.323" transform="translate(838.671 33.6)"/><rect class="e" width="45.526" height="112.323" transform="translate(1864.845 843.912) rotate(180)"/><path class="f" d="M1846.879,794.806"/><line class="f" x1="30.906" transform="translate(1803.866 815.333)"/><line class="f" x1="30.906" transform="translate(1803.866 791.271)"/><rect class="c" width="56.262" height="112.323" transform="translate(202.476 426.047)"/><path class="g" d="M164.556,169.188H276.879a40.166,40.166,0,0,0-40.166-40.166H204.722A40.166,40.166,0,0,0,164.556,169.188Z"/><rect class="d" width="96.873" height="112.323" transform="translate(55.919 832.43)"/><path class="e" d="M425.353,33.6,490.2,145.924V33.6Z"/><path class="h" d="M587.676,990.6l-56.162-32.425-56.162,97.275h0Z"/><rect class="i" width="37.449" height="28.081" transform="translate(227.19 752.276)"/><rect class="h" width="28.62" height="28.081" transform="translate(1855.961 145.927) rotate(45)"/><rect class="h" width="28.62" height="28.081" transform="translate(1842.033 934.328)"/><rect class="i" width="28.082" height="28.081" transform="translate(1119.922 898.918)"/><rect class="i" width="37.441" height="28.081" transform="translate(1823.542 321.279)"/><path class="g" d="M1437.525,968.5l-39.712,39.712-26.475-26.475-19.856,19.856,26.475,26.475a42.121,42.121,0,1,0,59.568-59.568Z"/><path class="j" d="M981,1002.383h0l-79.425-79.424h0a40.165,40.165,0,0,0,0,56.8l22.622,22.621A40.165,40.165,0,0,0,981,1002.383Z"/><rect class="j" width="112.323" height="50.902" transform="translate(1302.351 166.052)"/><circle class="k" cx="7.138" cy="7.138" r="7.138" transform="translate(421.077 922.974)"/><g class="b" transform="translate(627.177 90.13)"><circle class="aj" cx="7.138" cy="7.138" r="7.138"/><circle class="ak" cx="7.138" cy="7.138" r="6.669"/></g><g class="b" transform="translate(627.177 117.855)"><circle class="aj" cx="7.138" cy="7.138" r="7.138"/><circle class="ak" cx="7.138" cy="7.138" r="6.669"/></g><g class="b" transform="translate(627.177 62.404)"><circle class="aj" cx="7.138" cy="7.138" r="7.138"/><circle class="ak" cx="7.138" cy="7.138" r="6.669"/></g><rect class="l" width="11.518" height="11.518" transform="translate(329.843 640.871) rotate(45)"/><rect class="j" width="9.603" height="9.603" transform="translate(324.215 309.187) rotate(45)"/><rect class="m" width="9.603" height="9.603" transform="translate(306.957 291.93) rotate(45)"/><rect class="n" width="9.603" height="9.603" transform="translate(285.914 270.886) rotate(45)"/><circle class="o" cx="6.79" cy="6.79" r="6.79" transform="translate(1440.389 74.108)"/><circle class="o" cx="6.79" cy="6.79" r="6.79" transform="translate(1618.579 498.636)"/><circle class="d" cx="10.939" cy="10.939" r="10.939" transform="translate(1470.672 843.594)"/><path class="p" d="M1672.285,979.421h13.277a28.081,28.081,0,0,0,0-56.162"/><path class="k" d="M1311.641,899.213l-20.457-20.457-20.457,20.457"/><path class="q" d="M997.154,167.74l29.293,29.293,29.294-29.293"/><path class="r" d="M1812.7,468.647,1790.22,491.13a28.081,28.081,0,0,0,39.712,39.713l35.156-35.156"/><line class="r" x1="31.988" y2="31.988" transform="translate(1834.355 476.186)"/><line class="r" x1="39.58" y2="39.58" transform="translate(1824.486 458.725)"/><line class="r" x1="33.507" y2="33.507" transform="translate(1814.617 454.929)"/><line class="f" y1="45.238" transform="translate(117.629 336.35)"/><line class="f" y1="55.975" transform="translate(103.671 336.35)"/><path class="f" d="M66.021,360.043H89.714V336.35"/><path class="f" d="M102.449,289.113a28.081,28.081,0,0,1,28.081,28.081v49.718"/><path class="f" d="M130.535,317.194a28.084,28.084,0,0,0-52.4-14.039"/><line class="f" x1="18.942" y2="33.195" transform="translate(59.188 303.155)"/><path class="s" d="M1495.145,889.278l22.483,22.484a28.081,28.081,0,0,0,39.713-39.712L1537.9,852.614"/><line class="s" x2="14.242" y2="14.242" transform="translate(1526.504 859.459)"/><line class="s" x2="16.519" y2="16.519" transform="translate(1514.357 867.051)"/><line class="s" x2="39.58" y2="39.58" transform="translate(1481.428 853.859)"/><line class="t" y1="33.921" transform="translate(676.575 158.276)"/><line class="t" y1="27.479" transform="translate(662.436 153.982)"/><line class="t" y1="30.7" transform="translate(648.297 150.761)"/><line class="t" y1="56.467" transform="translate(634.159 124.994)"/><line class="t" x1="8.736" y1="32.44" transform="translate(612.612 166.965)"/><path class="t" d="M621.347,199.4a28.085,28.085,0,0,0,55.228-7.208"/><rect class="u" width="47.005" height="47.005" transform="translate(80.853 855.398)"/><rect class="j" width="47.005" height="47.005" transform="translate(243.523 928.369)"/><line class="u" x1="49.772" y1="49.772" transform="translate(241.878 926.707)"/><line class="u" y1="50" x2="50" transform="translate(241.878 927.036)"/><circle class="d" cx="33.795" cy="33.795" r="33.795" transform="translate(1159.949 46.765)"/><path class="v" d="M1184.2,96.619l26.917-15.54L1184.2,65.538Z"/><line class="w" y2="40.873" transform="translate(1081.647 972.582)"/><line class="w" x2="40.873" transform="translate(1061.211 993.018)"/><g class="x"><path class="aj" d="M228,461.95v40.518h52.321l13.46,13.46V461.95Z"/><path class="al" d="M 228.93994140625 462.8875122070312 L 228.93994140625 501.5306701660156 L 280.3237915039062 501.5306701660156 L 280.7120971679688 501.5306701660156 L 280.9866943359375 501.8052673339844 L 292.8460388183594 513.6646118164062 L 292.8460388183594 502.4681701660156 L 292.8460388183594 462.8875122070312 L 228.93994140625 462.8875122070312 M 228.00244140625 461.9500122070312 L 293.7835388183594 461.9500122070312 L 293.7835388183594 502.4681701660156 L 293.7835388183594 515.9279174804688 L 280.3237915039062 502.4681701660156 L 228.00244140625 502.4681701660156 L 228.00244140625 461.9500122070312 Z"/></g><line class="s" y2="45.314" transform="translate(329.193 897.845)"/><line class="s" y2="56.069" transform="translate(315.213 887.091)"/><path class="s" d="M282.741,919.427h18.491V943.16"/><path class="s" d="M313.988,982.614a28.128,28.128,0,0,0,28.128-28.128v-41.94"/><path class="s" d="M342.121,954.486a28.146,28.146,0,0,1-28.133,28.131H282.741"/><path class="n" d="M47.884,601.055a18.676,18.676,0,0,1,37.351,0v42.4h33.307"/><path class="s" d="M116.294,601.055a18.676,18.676,0,0,1,37.351,0"/><path class="j" d="M136.836,668.995a36.071,36.071,0,0,1-72.143,0Z"/><path class="r" d="M1648.783,98.964a15.908,15.908,0,1,1-31.816,0"/><path class="y" d="M1692.738,162.007a30.726,30.726,0,0,1-30.726,30.726"/><path class="r" d="M1707.056,98.964a15.926,15.926,0,0,1-15.908,15.908,16.117,16.117,0,0,1-16.129-15.908l-26.236,45.057h28.371"/><rect class="z" width="28.367" height="18.404" transform="translate(1665.275 80.56)"/><line class="n" x1="34.874" transform="translate(763.576 923.578)"/><line class="n" x1="14.811" transform="translate(734.489 923.578)"/><rect class="aa" width="12.562" height="12.562" transform="translate(756.438 914.695) rotate(45)"/><line class="t" y2="45.238" transform="translate(696.566 891.962)"/><line class="t" y2="55.974" transform="translate(710.524 881.226)"/><path class="t" d="M748.174,913.507H724.481V937.2"/><path class="t" d="M711.746,984.437a28.081,28.081,0,0,1-28.081-28.081V906.638"/><path class="t" d="M683.66,956.356a28.084,28.084,0,0,0,52.4,14.039"/><line class="t" y1="33.195" x2="18.942" transform="translate(736.064 937.2)"/><g class="ab" transform="translate(31.353 333.783)"><circle class="aj" cx="18.442" cy="18.442" r="18.442"/><circle class="ak" cx="18.442" cy="18.442" r="17.964"/></g><rect class="c" width="32.29" height="79.668" transform="translate(949.892 338.739)"/><rect class="e" width="32.29" height="79.668" transform="translate(1204.103 338.739)"/><rect class="j" width="32.29" height="79.668" transform="translate(663.307 338.739)"/><path class="g" d="M783.466,418.407h0V338.739h0a28.489,28.489,0,0,0-28.489,28.489v22.691A28.488,28.488,0,0,0,783.466,418.407Z"/><rect class="d" width="36.104" height="79.668" transform="translate(783.466 338.739)"/><path class="e" d="M839.116,338.739l46,79.668V338.739Z"/><path class="h" d="M931.108,338.739h-46v79.668h0Z"/><path class="aa" d="M695.6,338.739a39.834,39.834,0,0,1,0,79.668Z"/><path class="ac" d="M695.6,403.2a24.623,24.623,0,0,0,0-49.247H679.452V372.8"/><path class="g" d="M1143.808,398.49a29.875,29.875,0,0,1,0-59.751Z"/><rect class="i" width="26.561" height="19.917" transform="translate(982.183 338.739)"/><rect class="h" width="20.299" height="19.917" transform="translate(1183.803 338.739)"/><rect class="h" width="20.299" height="19.917" transform="translate(1236.393 338.739)"/><rect class="i" width="19.917" height="19.917" transform="translate(982.183 378.573)"/><rect class="g" width="26.556" height="19.917" transform="translate(1143.808 338.739)"/><path class="d" d="M1143.808,358.656V398.49h-26.555v19.917h26.555a29.876,29.876,0,1,0,0-59.751Z"/><path class="ad" d="M1129.879,382.851a19.917,19.917,0,0,1,13.929-34.153h14.938"/><line class="ae" x2="52.59" transform="translate(1193.953 348.889)"/><path class="aa" d="M1056.224,418.407h0V338.739h0a28.489,28.489,0,0,0-28.489,28.489v22.691A28.488,28.488,0,0,0,1056.224,418.407Z"/><rect class="j" width="36.104" height="79.668" transform="translate(1056.224 338.739)"/><line class="ac" x1="5.143" y1="0.034" transform="translate(1042.196 366.507)"/><line class="ac" x1="35.366" transform="translate(1056.962 366.591)"/><line class="ac" x1="10.56" transform="translate(1081.768 390.556)"/><line class="ac" x1="8.028" transform="translate(1064.108 390.556)"/><circle class="ae" cx="5.063" cy="5.063" r="5.063" transform="translate(880.049 380.685)"/><circle class="ae" cx="5.063" cy="5.063" r="5.063" transform="translate(897.761 350.006)"/><line class="ae" x1="12.677" y2="21.958" transform="translate(887.615 359.454)"/><circle class="ae" cx="5.063" cy="5.063" r="5.063" transform="translate(862.337 350.006)"/><line class="ae" x2="12.677" y2="21.958" transform="translate(869.931 359.454)"/><rect class="ac" width="8.17" height="8.17" transform="translate(679.452 372.797) rotate(45)"/><rect class="ac" width="6.811" height="6.811" transform="translate(1076.952 385.74) rotate(45)"/><rect class="ac" width="6.811" height="6.811" transform="translate(1052.25 361.775) rotate(45)"/><circle class="ae" cx="4.816" cy="4.816" r="4.816" transform="translate(1215.432 360.922)"/><circle class="ae" cx="4.816" cy="4.816" r="4.816" transform="translate(1215.432 379.384)"/><circle class="ae" cx="4.816" cy="4.816" r="4.816" transform="translate(1215.432 397.845)"/><path class="ad" d="M1134.392,408.449h9.416a19.917,19.917,0,0,0,0-39.834"/><path class="af" d="M986.557,388.462h-20.52v20.52"/><path class="ag" d="M995.421,348.69H966.038v29.383"/><line class="ad" x1="36.247" transform="translate(783.323 366.591)"/><line class="ad" x1="36.247" transform="translate(783.323 378.573)"/><line class="ad" x1="36.247" transform="translate(783.323 390.556)"/><path class="ah" d="M1064.143,453.6a19.918,19.918,0,0,1,19.917,19.917v19.917a19.918,19.918,0,0,1-19.917,19.917H1049.2"/><path class="ah" d="M928.793,453.6a19.917,19.917,0,0,1,19.917,19.917v19.917a19.917,19.917,0,0,1-39.834,0V473.521A19.917,19.917,0,0,1,928.793,453.6Z"/><line class="ah" y2="59.56" transform="translate(996.984 453.796)"/><path class="ah" d="M868.218,513.355H838.592V503.4"/><path class="ah" d="M838.592,503.4a13.945,13.945,0,0,1,13.945-13.945,17.924,17.924,0,1,0,0-35.848H838.592"/><path class="ah" d="M1064.143,453.6a19.917,19.917,0,1,0,19.917,19.917"/><path class="ac" d="M581.866,686.2"/><text class="ai" transform="translate(583.795 708.534)"><tspan x="0" y="0" xml:space="preserve">all    or    peakers</tspan></text><path class="aa" d="M534.238,710.693a47.544,47.544,0,0,1,0-95.088Z"/><rect class="aa" width="42.261" height="31.696" transform="translate(534.238 615.605)"/><path class="ac" d="M512.071,685.8a31.7,31.7,0,0,1,22.167-54.351H558.01"/><rect class="j" width="42.261" height="31.696" transform="translate(534.238 678.997)"/><path class="ac" d="M512.15,640.514a31.7,31.7,0,0,0,22.167,54.352h23.772"/><rect class="d" width="38.46" height="94.891" transform="translate(731.818 615.704)"/><rect class="g" width="31.637" height="23.723" transform="translate(770.278 615.704)"/><rect class="g" width="23.723" height="23.723" transform="translate(770.278 663.149)"/><path class="ad" d="M775.489,674.927h-24.44v24.441"/><path class="ad" d="M786.046,627.556h-35v35"/><path class="i" d="M978.332,686.413a35.584,35.584,0,0,1,0-71.168Z"/><rect class="i" width="31.63" height="23.723" transform="translate(978.332 615.245)"/><path class="c" d="M978.332,638.968v47.445H946.7v23.723h31.63a35.584,35.584,0,1,0,0-71.168Z"/><path class="af" d="M961.741,667.785a23.723,23.723,0,0,1,16.591-40.678h17.792"/><path class="af" d="M967.116,698.274h11.216a23.723,23.723,0,1,0,0-47.445"/><rect class="e" width="23.403" height="66.847" transform="translate(1409.903 615.704)"/><circle class="ae" cx="5.708" cy="5.708" r="5.708" transform="translate(1415.897 641.997)"/><circle class="ae" cx="5.708" cy="5.708" r="5.708" transform="translate(1415.897 663.88)"/><circle class="h" cx="11.701" cy="11.701" r="11.701" transform="translate(1409.903 686.573)"/></g></svg>