<svg xmlns="http://www.w3.org/2000/svg" width="114.633" height="24.003" viewBox="0 0 114.633 24.003"><defs><style>.a{fill:#174ea6;}</style></defs><g transform="translate(-2.343 -34.112)"><g transform="translate(2.343 34.112)"><g transform="translate(60.83 2.854)"><path class="a" d="M772.7,87.147a8.914,8.914,0,0,1-3.3-3.3,9.449,9.449,0,0,1,0-9.3,8.991,8.991,0,0,1,7.858-4.5,9.642,9.642,0,0,1,3.635.685,7.31,7.31,0,0,1,2.8,1.934l-1.493,1.493a5.4,5.4,0,0,0-2.13-1.579,7.241,7.241,0,0,0-6.254.343,6.8,6.8,0,0,0-2.57,2.521,7.782,7.782,0,0,0,0,7.515,6.774,6.774,0,0,0,2.582,2.521,7.559,7.559,0,0,0,6.4.343,6.612,6.612,0,0,0,2.044-1.457,5.352,5.352,0,0,0,1.028-1.652,7.3,7.3,0,0,0,.49-2.142H777.3V78.629h8.421a7.277,7.277,0,0,1,.122,1.273,9.812,9.812,0,0,1-.514,3.146,6.95,6.95,0,0,1-1.64,2.68,8.351,8.351,0,0,1-6.438,2.619A8.955,8.955,0,0,1,772.7,87.147Z" transform="translate(-768.167 -70.037)"/><path class="a" d="M1023.332,74.968h5.287a9.533,9.533,0,0,1,4.7,1.114,7.671,7.671,0,0,1,3.084,3.1,10.163,10.163,0,0,1,0,9.106,7.668,7.668,0,0,1-3.084,3.1,9.53,9.53,0,0,1-4.7,1.114h-5.287Zm5.287,15.544a6.743,6.743,0,0,0,4.932-1.787,7.748,7.748,0,0,0,0-9.987,6.744,6.744,0,0,0-4.932-1.787h-3.231V90.512Z" transform="translate(-1003.064 -74.576)"/><path class="a" d="M1227.553,87.147a8.913,8.913,0,0,1-3.3-3.3,9.448,9.448,0,0,1,0-9.3,8.992,8.992,0,0,1,7.858-4.5,9.642,9.642,0,0,1,3.635.685,7.313,7.313,0,0,1,2.8,1.934l-1.493,1.493a5.4,5.4,0,0,0-2.13-1.579,7.241,7.241,0,0,0-6.254.343,6.8,6.8,0,0,0-2.57,2.521,7.784,7.784,0,0,0,0,7.515,6.774,6.774,0,0,0,2.582,2.521,7.559,7.559,0,0,0,6.4.343,6.606,6.606,0,0,0,2.044-1.457,5.346,5.346,0,0,0,1.028-1.652,7.3,7.3,0,0,0,.49-2.142h-6.487V78.629h8.421a7.289,7.289,0,0,1,.122,1.273,9.808,9.808,0,0,1-.514,3.146,6.948,6.948,0,0,1-1.64,2.68,8.352,8.352,0,0,1-6.438,2.619A8.955,8.955,0,0,1,1227.553,87.147Z" transform="translate(-1186.895 -70.037)"/></g><g transform="translate(0)"><path class="a" d="M22.209,143.861l-13.92-8.037a3.964,3.964,0,1,0-3.964,6.865l13.92,8.037a3.964,3.964,0,1,0,3.964-6.866Z" transform="translate(-2.343 -127.255)"/><path class="a" d="M371.7,42.682l-13.92-8.037a3.964,3.964,0,0,0-3.964,6.866l13.92,8.037a3.964,3.964,0,1,0,3.964-6.865Z" transform="translate(-324.07 -34.113)"/><g transform="translate(27.76 12.638)"><path class="a" d="M367.181,196.97l-6.5-3.751-6.872,3.968a3.964,3.964,0,1,0,3.964,6.866l11.19-6.46A5.076,5.076,0,0,1,367.181,196.97Z" transform="translate(-351.829 -193.219)"/></g><g transform="translate(4.713)"><path class="a" d="M63.466,41.726l6.5,3.751,6.872-3.968a3.964,3.964,0,1,0-3.964-6.866L61.682,41.1A5.073,5.073,0,0,1,63.466,41.726Z" transform="translate(-61.682 -34.112)"/></g></g></g></g></svg>