<svg xmlns="http://www.w3.org/2000/svg" width="208.461" height="43.649" viewBox="0 0 208.461 43.649"><defs><style>.a{fill:#174ea6;}</style></defs><g transform="translate(-2.343 -34.112)"><g transform="translate(2.343 34.112)"><g transform="translate(110.62 5.189)"><path class="a" d="M776.4,101.153a16.21,16.21,0,0,1-6.009-6.009,17.183,17.183,0,0,1,0-16.916,16.351,16.351,0,0,1,14.289-8.191,17.535,17.535,0,0,1,6.61,1.246,13.293,13.293,0,0,1,5.1,3.517l-2.715,2.715a9.829,9.829,0,0,0-3.873-2.871,13.168,13.168,0,0,0-11.373.623,12.373,12.373,0,0,0-4.674,4.585,14.154,14.154,0,0,0,0,13.666,12.32,12.32,0,0,0,4.7,4.585,13.746,13.746,0,0,0,11.641.623,12.025,12.025,0,0,0,3.717-2.649,9.728,9.728,0,0,0,1.87-3,13.272,13.272,0,0,0,.89-3.895h-11.8V85.662h15.313a13.23,13.23,0,0,1,.223,2.315,17.841,17.841,0,0,1-.935,5.72,12.635,12.635,0,0,1-2.982,4.874q-4.407,4.764-11.707,4.763A16.284,16.284,0,0,1,776.4,101.153Z" transform="translate(-768.167 -70.037)"/><path class="a" d="M1023.332,74.968h9.615a17.336,17.336,0,0,1,8.547,2.025,13.949,13.949,0,0,1,5.609,5.631,18.481,18.481,0,0,1,0,16.559,13.943,13.943,0,0,1-5.609,5.631,17.33,17.33,0,0,1-8.547,2.025h-9.615Zm9.615,28.267q5.653,0,8.97-3.25t3.316-9.081q0-5.831-3.316-9.081t-8.97-3.249h-5.876v24.661Z" transform="translate(-986.475 -74.256)"/><path class="a" d="M1231.26,101.153a16.208,16.208,0,0,1-6.009-6.009,17.183,17.183,0,0,1,0-16.916,16.351,16.351,0,0,1,14.289-8.191,17.535,17.535,0,0,1,6.611,1.246,13.294,13.294,0,0,1,5.1,3.517l-2.715,2.715a9.829,9.829,0,0,0-3.873-2.871,13.168,13.168,0,0,0-11.373.623,12.371,12.371,0,0,0-4.674,4.585,14.155,14.155,0,0,0,0,13.666,12.317,12.317,0,0,0,4.7,4.585,13.746,13.746,0,0,0,11.641.623,12.018,12.018,0,0,0,3.717-2.649,9.724,9.724,0,0,0,1.87-3,13.276,13.276,0,0,0,.89-3.895h-11.8V85.662h15.313a13.242,13.242,0,0,1,.223,2.315,17.841,17.841,0,0,1-.935,5.72,12.634,12.634,0,0,1-2.983,4.874q-4.407,4.764-11.707,4.763A16.283,16.283,0,0,1,1231.26,101.153Z" transform="translate(-1157.323 -70.037)"/></g><g transform="translate(0)"><path class="a" d="M38.47,150.874,13.156,136.26a7.208,7.208,0,1,0-7.208,12.485l25.314,14.615a7.208,7.208,0,1,0,7.208-12.485Z" transform="translate(-2.343 -120.677)"/><path class="a" d="M387.957,49.7,362.643,35.08a7.208,7.208,0,1,0-7.208,12.485L380.749,62.18A7.208,7.208,0,1,0,387.957,49.7Z" transform="translate(-301.348 -34.113)"/><g transform="translate(50.482 22.982)"><path class="a" d="M379.747,200.04l-11.815-6.821-12.5,7.215a7.208,7.208,0,1,0,7.208,12.485l20.349-11.748A9.231,9.231,0,0,1,379.747,200.04Z" transform="translate(-351.83 -193.219)"/></g><g transform="translate(8.571)"><path class="a" d="M64.927,47.958l11.815,6.821,12.5-7.215A7.208,7.208,0,1,0,82.03,35.079L61.682,46.827A9.225,9.225,0,0,1,64.927,47.958Z" transform="translate(-61.682 -34.112)"/></g></g></g></g></svg>